<svg width="23" height="23" viewBox="0 0 23 23" fill="none" xmlns="http://www.w3.org/2000/svg">
<path d="M4.78074 14.3626V8.21603C4.78074 6.51868 5.9489 3.73779 7.38991 3.73779L3.60662 4.22952C2.16561 4.22952 2.82387 6.51868 2.82387 8.21603V14.3626C2.82387 16.06 2.16561 17.4359 3.60662 17.4359H7.38991C5.9489 17.4359 4.78074 16.06 4.78074 14.3626Z" fill="#FCE31D"/>
<path d="M15.9434 1.71191C16.5646 0.783695 17.8298 0.571282 18.7197 1.23145C19.473 1.79034 19.6954 2.77434 19.3389 3.5791H19.3418C20.3384 3.5791 21.1494 4.3901 21.1494 5.38672V15.9814C21.1494 16.9779 20.3392 17.7888 19.3428 17.7891H13.0947L13.5107 19.5312H14.4414C15.2082 19.5312 15.8318 20.1551 15.832 20.9219V21.0312H16.9766C17.2858 21.0315 17.5361 21.2826 17.5361 21.5918C17.536 21.9009 17.2857 22.1512 16.9766 22.1514H6.02344C5.7141 22.1514 5.46302 21.901 5.46289 21.5918C5.46289 21.2824 5.71402 21.0312 6.02344 21.0312H7.16699V20.9219C7.16721 20.1552 7.79099 19.5315 8.55762 19.5312H9.48926L9.9043 17.7891H3.65723C2.66061 17.7891 1.84961 16.9781 1.84961 15.9814V5.38672C1.84961 4.39011 2.66061 3.5791 3.65723 3.5791H14.6943L15.9434 1.71191ZM8.55762 20.6523C8.40905 20.6526 8.28831 20.7734 8.28809 20.9219V21.0312H14.7119V20.9219C14.7117 20.7732 14.5902 20.6524 14.4414 20.6523H8.55762ZM10.6406 19.5312H12.3584L11.9434 17.7891H11.0557L10.6406 19.5312ZM3.65723 4.7002C3.27869 4.7002 2.9707 5.00818 2.9707 5.38672V13.0898H3.99316C4.30239 13.0901 4.55273 13.3412 4.55273 13.6504C4.55271 13.9596 4.30237 14.2107 3.99316 14.2109H2.9707V15.9814C2.9707 16.36 3.27869 16.668 3.65723 16.668H19.3428C19.7211 16.6677 20.0293 16.3598 20.0293 15.9814V14.2109H7.27441C6.96503 14.2109 6.71391 13.9597 6.71387 13.6504C6.71387 13.341 6.965 13.0899 7.27441 13.0898H20.0293V5.38672C20.0293 5.00818 19.7203 4.7002 19.3418 4.7002H18.5137C18.0122 5.31164 15.3608 8.54337 14.8477 9.16895C15.0997 10.0606 14.9143 11.0202 14.1562 11.6338C13.5149 12.1529 12.8315 12.1088 12.2266 12.0791C11.6116 12.0489 11.0795 12.0336 10.6006 12.4912C10.2914 12.7865 9.78093 12.6394 9.67188 12.2305C9.20028 10.4624 9.31261 9.08771 10.0762 8.19629C10.6184 7.5633 11.4304 7.27256 12.2383 7.24707C12.5942 6.71528 13.4824 5.39054 13.9443 4.7002H3.65723ZM12.3438 8.36523C12.234 8.36551 12.1129 8.37291 11.9932 8.39062L11.8584 8.41504C11.1828 8.55503 10.8161 8.93409 10.6416 9.44629C10.4787 9.92452 10.4818 10.527 10.5879 11.1729C11.1398 10.9353 11.6917 10.9371 12.165 10.9551C12.4329 10.9653 12.6677 10.9796 12.8779 10.9648C13.0859 10.9502 13.2504 10.9083 13.3789 10.8184C13.8401 10.4954 13.93 9.97653 13.7451 9.4043C13.2805 9.05954 12.8096 8.71087 12.3438 8.36523ZM13.2988 7.67871C13.5811 7.88813 13.8379 8.07874 14.1201 8.28809L14.8223 7.43164L13.915 6.75781C13.7595 6.99021 13.4499 7.45289 13.2988 7.67871ZM18.0518 2.13184C17.6735 1.8512 17.138 1.94225 16.875 2.33496L14.5381 5.8252L15.5342 6.56445C16.2078 5.74315 17.5979 4.04922 18.1982 3.31738C18.4981 2.95179 18.4302 2.41258 18.0518 2.13184Z" fill="#6A5F0C" stroke="#6A5F0C" stroke-width="0.3"/>
<path d="M15.9434 1.71191C16.5645 0.783692 17.8298 0.571435 18.7197 1.23145C19.5459 1.84441 19.7355 2.96939 19.2207 3.80762L19.2168 3.81543L19.2109 3.82227L18.708 4.45605L18.7129 4.45703L18.5596 4.64258L18.502 4.7168L18.499 4.71582C18.476 4.7439 18.4473 4.78037 18.4121 4.82324C18.3187 4.93712 18.1852 5.10068 18.0234 5.29785C17.6997 5.69256 17.2634 6.22357 16.8164 6.76855C15.9847 7.78252 15.1133 8.84507 14.8477 9.16895C15.0998 10.0606 14.9143 11.0202 14.1562 11.6338C13.5148 12.1528 12.8316 12.1088 12.2266 12.0791C11.6116 12.0489 11.0795 12.0336 10.6006 12.4912C10.2915 12.7862 9.78198 12.6392 9.67285 12.2305C9.20124 10.4624 9.3135 9.08771 10.0771 8.19629C10.6195 7.56328 11.4313 7.27241 12.2393 7.24707C12.6414 6.64611 13.7215 5.0334 14.1006 4.4668L14.6494 3.64648L14.6562 3.63672L15.9434 1.71191ZM12.3438 8.36523C12.1926 8.36564 12.0194 8.38148 11.8584 8.41504C11.1829 8.55508 10.8161 8.93416 10.6416 9.44629C10.4787 9.9245 10.4818 10.5271 10.5879 11.1729C11.1399 10.9352 11.6916 10.9371 12.165 10.9551C12.433 10.9653 12.6676 10.9796 12.8779 10.9648C13.086 10.9502 13.2503 10.9084 13.3789 10.8184C13.84 10.4956 13.9305 9.97716 13.7461 9.40527C13.2811 9.06026 12.81 8.71114 12.3438 8.36523ZM13.2988 7.67871C13.5811 7.88813 13.838 8.07875 14.1201 8.28809L14.8232 7.43164L13.915 6.75781C13.7595 6.99031 13.4499 7.45299 13.2988 7.67871ZM14.5391 5.8252L15.5342 6.56445C15.9566 6.04946 16.661 5.19144 17.2754 4.44238L15.7002 4.08984L14.5391 5.8252ZM18.0527 2.13184C17.6745 1.85115 17.138 1.94213 16.875 2.33496L15.8789 3.82227L17.4883 4.18262C17.7686 3.84086 18.0188 3.53619 18.1982 3.31738C18.498 2.95192 18.4308 2.41267 18.0527 2.13184Z" fill="#B3A115" stroke="#B3A115" stroke-width="0.3"/>
<path d="M5.52441 13.1016C5.82431 13.0412 6.12122 13.2347 6.18359 13.54V13.541C6.24294 13.8378 6.05463 14.1372 5.74512 14.2002H5.74414C5.39471 14.2699 5.07422 14.0005 5.07422 13.6504C5.07438 13.3894 5.25574 13.1565 5.52441 13.1016Z" fill="#B3A115" stroke="#B3A115" stroke-width="0.3"/>
</svg>
