<svg width="28" height="28" viewBox="0 0 28 28" fill="none" xmlns="http://www.w3.org/2000/svg">
<g clip-path="url(#clip0_0_399)">
<path d="M15.6346 5.95595C13.6905 8.21454 10.7188 12.1493 10.7188 15.0937C10.7188 18.0446 12.6662 20.6822 15.3464 21.5178C14.9116 21.6086 14.4616 21.6562 14 21.6562C10.3759 21.6562 7.4375 18.7178 7.4375 15.0937C7.4375 11.6816 11.7159 6.58469 12.477 5.8236C13.3563 4.95626 14.8077 4.99618 15.6352 5.94282C15.6352 5.95048 15.6346 5.9554 15.6346 5.95595Z" fill="#FCE31D"/>
<path d="M14.8837 10.2591C14.6778 9.97672 14.3493 9.80981 13.9999 9.80981C13.6504 9.80987 13.322 9.97688 13.1162 10.2592C11.3486 12.6839 10.7188 14.3464 10.7188 15.0938C10.7188 16.9031 12.1907 18.375 14 18.375C15.8093 18.375 17.2812 16.9031 17.2812 15.0938C17.2812 14.3457 16.6514 12.6828 14.8837 10.2591ZM14 16.1875C13.4066 16.1875 12.9221 15.7125 12.9066 15.1227C12.9442 14.889 13.2152 14.11 14.0002 12.8512C14.7849 14.1096 15.0559 14.8888 15.0934 15.1227C15.0779 15.7125 14.5934 16.1875 14 16.1875Z" fill="#B3A115"/>
<path d="M16.4674 5.23303L16.4587 5.22296C15.8695 4.54889 15.0176 4.14327 14.1214 4.11013C13.2244 4.07693 12.3448 4.41764 11.7089 5.04485C10.5991 6.1381 6.34375 11.3455 6.34375 15.0937C6.34375 19.3153 9.77834 22.7499 14 22.7499C14.5287 22.7499 15.0568 22.6956 15.5695 22.5885C17.266 22.235 18.8097 21.2992 19.9161 19.9536C21.0382 18.589 21.6562 16.863 21.6562 15.0937C21.6562 11.926 18.839 7.98807 16.4756 5.24238C16.4729 5.23926 16.4702 5.23614 16.4674 5.23303ZM15.1228 20.4471C14.7565 20.5237 14.3787 20.5624 14 20.5624C10.9845 20.5624 8.53125 18.1091 8.53125 15.0937C8.53125 11.8608 13.1667 6.6806 13.2468 6.60049C13.4582 6.39306 13.7403 6.28516 14.0406 6.29615C14.341 6.30725 14.6149 6.43741 14.8084 6.65873L14.82 6.67202C17.7744 10.1049 19.4688 13.1744 19.4688 15.0937C19.4688 17.6709 17.6412 19.9223 15.1228 20.4471Z" fill="#6A5F0C"/>
<path d="M23.8617 18.3812C23.2584 18.3489 22.7433 18.8118 22.711 19.4149C22.6787 20.0181 23.1416 20.5333 23.7447 20.5656C24.9042 20.6277 25.8125 21.5872 25.8125 22.7499C25.8125 23.9561 24.8312 24.9374 23.625 24.9374H4.375C3.16881 24.9374 2.1875 23.9561 2.1875 22.7499C2.1875 21.5872 3.09575 20.6277 4.25523 20.5656C4.85844 20.5334 5.32126 20.0182 5.28899 19.4149C5.25667 18.8117 4.7413 18.3491 4.13831 18.3812C1.81776 18.5055 0 20.4244 0 22.7499C0 25.1623 1.96263 27.1249 4.375 27.1249H23.625C26.0374 27.1249 28 25.1623 28 22.7499C28 20.4244 26.1822 18.5055 23.8617 18.3812Z" fill="#6A5F0C"/>
<path d="M22.75 0.875C22.1459 0.875 21.6562 1.36467 21.6562 1.96875V3.0625H20.5625C19.9584 3.0625 19.4688 3.55217 19.4688 4.15625C19.4688 4.76033 19.9584 5.25 20.5625 5.25H21.6562V6.34375C21.6562 6.94783 22.1459 7.4375 22.75 7.4375C23.3541 7.4375 23.8438 6.94783 23.8438 6.34375V5.25H24.9375C25.5416 5.25 26.0312 4.76033 26.0312 4.15625C26.0312 3.55217 25.5416 3.0625 24.9375 3.0625H23.8438V1.96875C23.8438 1.36467 23.3541 0.875 22.75 0.875Z" fill="#6A5F0C"/>
<path d="M5.25 0.875C4.64592 0.875 4.15625 1.36467 4.15625 1.96875V3.0625H3.0625C2.45842 3.0625 1.96875 3.55217 1.96875 4.15625C1.96875 4.76033 2.45842 5.25 3.0625 5.25H4.15625V6.34375C4.15625 6.94783 4.64592 7.4375 5.25 7.4375C5.85408 7.4375 6.34375 6.94783 6.34375 6.34375V5.25H7.4375C8.04158 5.25 8.53125 4.76033 8.53125 4.15625C8.53125 3.55217 8.04158 3.0625 7.4375 3.0625H6.34375V1.96875C6.34375 1.36467 5.85408 0.875 5.25 0.875Z" fill="#6A5F0C"/>
</g>
<defs>
<clipPath id="clip0_0_399">
<rect width="28" height="28" fill="white"/>
</clipPath>
</defs>
</svg>
