<svg width="18" height="18" viewBox="0 0 18 18" fill="none" xmlns="http://www.w3.org/2000/svg">
<g opacity="0.7" clip-path="url(#clip0_0_7265)">
<path d="M17.25 16.5002V7.12524C17.25 6.97524 17.1607 6.83949 17.0228 6.78024L11.7727 4.53024C11.6565 4.47999 11.5238 4.49199 11.4188 4.56174C11.313 4.63149 11.25 4.74924 11.25 4.87524V16.5002H10.5V0.562743C10.5 0.377493 10.4092 0.204243 10.257 0.0992433C10.104 -0.00575671 9.9105 -0.0290067 9.73725 0.0369933L1.86225 3.03699C1.644 3.12024 1.5 3.32949 1.5 3.56274V16.5002H0.75C0.336 16.5002 0 16.8355 0 17.2502C0 17.665 0.336 18.0002 0.75 18.0002H17.25C17.664 18.0002 18 17.665 18 17.2502C18 16.8355 17.664 16.5002 17.25 16.5002ZM15 9.56274C15 9.25224 15.252 9.00024 15.5625 9.00024C15.873 9.00024 16.125 9.25224 16.125 9.56274V10.6877C16.125 10.9982 15.873 11.2502 15.5625 11.2502C15.252 11.2502 15 10.9982 15 10.6877V9.56274ZM15 14.0627C15 13.7522 15.252 13.5002 15.5625 13.5002C15.873 13.5002 16.125 13.7522 16.125 14.0627V15.1877C16.125 15.4982 15.873 15.7502 15.5625 15.7502C15.252 15.7502 15 15.4982 15 15.1877V14.0627ZM12.375 9.56274C12.375 9.25224 12.627 9.00024 12.9375 9.00024C13.248 9.00024 13.5 9.25224 13.5 9.56274V10.6877C13.5 10.9982 13.248 11.2502 12.9375 11.2502C12.627 11.2502 12.375 10.9982 12.375 10.6877V9.56274ZM12.375 14.0627C12.375 13.7522 12.627 13.5002 12.9375 13.5002C13.248 13.5002 13.5 13.7522 13.5 14.0627V15.1877C13.5 15.4982 13.248 15.7502 12.9375 15.7502C12.627 15.7502 12.375 15.4982 12.375 15.1877V14.0627ZM7.125 5.06274C7.125 4.75224 7.377 4.50024 7.6875 4.50024C7.998 4.50024 8.25 4.75224 8.25 5.06274V6.18774C8.25 6.49824 7.998 6.75024 7.6875 6.75024C7.377 6.75024 7.125 6.49824 7.125 6.18774V5.06274ZM7.125 9.56274C7.125 9.25224 7.377 9.00024 7.6875 9.00024C7.998 9.00024 8.25 9.25224 8.25 9.56274V10.6877C8.25 10.9982 7.998 11.2502 7.6875 11.2502C7.377 11.2502 7.125 10.9982 7.125 10.6877V9.56274ZM7.125 14.0627C7.125 13.7522 7.377 13.5002 7.6875 13.5002C7.998 13.5002 8.25 13.7522 8.25 14.0627V15.1877C8.25 15.4982 7.998 15.7502 7.6875 15.7502C7.377 15.7502 7.125 15.4982 7.125 15.1877V14.0627ZM3.75 5.06274C3.75 4.75224 4.002 4.50024 4.3125 4.50024C4.623 4.50024 4.875 4.75224 4.875 5.06274V6.18774C4.875 6.49824 4.623 6.75024 4.3125 6.75024C4.002 6.75024 3.75 6.49824 3.75 6.18774V5.06274ZM3.75 9.56274C3.75 9.25224 4.002 9.00024 4.3125 9.00024C4.623 9.00024 4.875 9.25224 4.875 9.56274V10.6877C4.875 10.9982 4.623 11.2502 4.3125 11.2502C4.002 11.2502 3.75 10.9982 3.75 10.6877V9.56274ZM3.75 14.0627C3.75 13.7522 4.002 13.5002 4.3125 13.5002C4.623 13.5002 4.875 13.7522 4.875 14.0627V15.1877C4.875 15.4982 4.623 15.7502 4.3125 15.7502C4.002 15.7502 3.75 15.4982 3.75 15.1877V14.0627Z" fill="black"/>
</g>
<defs>
<clipPath id="clip0_0_7265">
<rect width="18" height="18" fill="white"/>
</clipPath>
</defs>
</svg>
