<svg width="20" height="20" viewBox="0 0 20 20" fill="none" xmlns="http://www.w3.org/2000/svg">
<g opacity="0.9">
<path d="M2.50033 16.4359V17.5C2.50033 17.721 2.58813 17.933 2.7444 18.0893C2.90068 18.2455 3.11264 18.3334 3.33366 18.3334H4.16699C4.38801 18.3334 4.59997 18.2455 4.75625 18.0893C4.91253 17.933 5.00033 17.721 5.00033 17.5V16.6667H15.0003V17.5C15.0003 17.721 15.0882 17.933 15.2444 18.0893C15.4007 18.2455 15.6127 18.3334 15.8337 18.3334H16.667C16.888 18.3334 17.1 18.2455 17.2562 18.0893C17.4125 17.933 17.5003 17.721 17.5003 17.5V16.4359C17.7532 16.2909 17.9633 16.0818 18.1096 15.8297C18.2559 15.5777 18.3332 15.2915 18.3337 15V12.5C18.3337 11.8075 17.9112 11.215 17.3103 10.9625L16.1703 7.54254C16.005 7.04461 15.6868 6.61146 15.2612 6.30463C14.8357 5.99781 14.3242 5.83291 13.7995 5.83338H6.20116C5.67648 5.83291 5.165 5.99781 4.73939 6.30463C4.31378 6.61146 3.9957 7.04461 3.83033 7.54254L2.69033 10.9625C2.38724 11.0895 2.12842 11.3031 1.94635 11.5767C1.76429 11.8502 1.6671 12.1715 1.66699 12.5V15C1.66699 15.615 2.00366 16.1467 2.50033 16.4359ZM4.58366 15C4.41945 15 4.25687 14.9676 4.10518 14.9047C3.95349 14.8418 3.81568 14.7496 3.6996 14.6335C3.46518 14.399 3.33355 14.0809 3.33366 13.7492C3.33377 13.4175 3.46562 13.0995 3.70019 12.8651C3.93477 12.6307 4.25286 12.4991 4.58449 12.4992C4.91613 12.4993 5.23413 12.6311 5.46855 12.8657C5.70297 13.1003 5.8346 13.4184 5.83449 13.75C5.83438 14.0817 5.70253 14.3997 5.46796 14.6341C5.23338 14.8685 4.91529 15.0001 4.58366 15ZM15.417 15C15.0853 15 14.7673 14.8681 14.5329 14.6335C14.2985 14.399 14.1669 14.0809 14.167 13.7492C14.1671 13.4175 14.2989 13.0995 14.5335 12.8651C14.7681 12.6307 15.0862 12.4991 15.4178 12.4992C15.7495 12.4993 16.0675 12.6311 16.3019 12.8657C16.5363 13.1003 16.6679 13.4184 16.6678 13.75C16.6677 14.0817 16.5359 14.3997 16.3013 14.6341C16.0667 14.8685 15.7487 15.0001 15.417 15ZM6.20116 7.50004H13.7987C13.9737 7.5 14.1442 7.55503 14.2862 7.65734C14.4281 7.75965 14.5342 7.90404 14.5895 8.07004L15.5112 10.8334H4.48949L5.41033 8.07004C5.52449 7.72921 5.84283 7.50004 6.20116 7.50004Z" fill="black"/>
<path d="M18.3337 6.15668V4.39918L10.2637 1.70918C10.0853 1.64948 9.89199 1.65213 9.71533 1.71668L1.66699 4.64335V6.41668L10.0128 3.38168L18.3337 6.15668Z" fill="black"/>
</g>
</svg>
