<svg width="28" height="28" viewBox="0 0 28 28" fill="none" xmlns="http://www.w3.org/2000/svg">
<g clip-path="url(#clip0_0_1945)">
<mask id="mask0_0_1945" style="mask-type:luminance" maskUnits="userSpaceOnUse" x="0" y="0" width="28" height="28">
<path d="M0 1.90735e-06H28V28H0V1.90735e-06Z" fill="white"/>
</mask>
<g mask="url(#mask0_0_1945)">
<path d="M4.64842 20.5077C4.64842 19.5295 5.07685 17.9052 6.56249 16.4608L5.68749 15.8592L2.39366 18.1311C1.0548 19.1475 0.693698 21.0165 1.57559 22.4476C2.02047 23.1695 2.62214 23.9302 3.34976 24.6579C4.07256 25.3806 4.82796 25.9791 5.54552 26.423C6.56817 27.0557 7.81516 27.0489 8.81419 26.5055C8.79286 26.4931 8.77121 26.4817 8.74999 26.4686C8.03243 26.0246 4.64842 23.7342 4.64842 20.5077Z" fill="#FCE31D"/>
<path d="M14.5375 9.17659C14.0931 8.89905 13.4724 8.99869 13.1553 9.47622L12.9125 9.84159C12.6845 10.1849 12.2713 10.3561 11.8673 10.2745L11.4373 10.1878C10.7265 10.0444 10.0993 10.6716 10.2427 11.3824L10.3294 11.8124C10.411 12.2164 10.2399 12.6296 9.89647 12.8577L9.5311 13.1004C8.92713 13.5015 8.92713 14.3886 9.5311 14.7898L9.89647 15.0325C10.2399 15.2606 10.411 15.6737 10.3294 16.0778L10.2427 16.5078C10.0993 17.2185 10.7265 17.8457 11.4373 17.7024L11.8673 17.6156C12.2713 17.5341 12.6845 17.7052 12.9125 18.0485L13.1553 18.414C13.4724 18.8915 14.0931 18.9911 14.5375 18.7136C13.6989 17.4278 13.1796 15.223 13.1796 13.9451C13.1796 12.6672 13.6989 10.4623 14.5375 9.17659Z" fill="#FCE31D"/>
<path d="M22.1484 12.1953L25.575 9.87973C26.937 8.87009 27.3154 6.98212 26.4229 5.54066C25.9791 4.82393 25.3812 4.06957 24.6595 3.34775C23.9331 2.62139 23.1738 2.02059 22.453 1.57593C21.0196 0.691634 19.1464 1.05662 18.1315 2.40062L15.75 5.79688" stroke="#6A5F0C" stroke-width="2" stroke-miterlimit="10" stroke-linecap="round" stroke-linejoin="round"/>
<path d="M5.68749 15.8594L2.39366 18.1312C1.0548 19.1476 0.693698 21.0166 1.57559 22.4477C2.02047 23.1696 2.62214 23.9303 3.34976 24.658C4.07251 25.3807 4.82796 25.9792 5.54552 26.4232C6.98528 27.314 8.87024 26.9383 9.88098 25.5801L12.1406 22.3125" stroke="#6A5F0C" stroke-width="2" stroke-miterlimit="10" stroke-linecap="round" stroke-linejoin="round"/>
<path d="M11.4373 10.1881L11.8673 10.2748C12.2714 10.3563 12.6845 10.1852 12.9126 9.84184L13.1553 9.47647C13.5565 8.87245 14.4435 8.87245 14.8447 9.47647L15.0874 9.84184C15.3155 10.1852 15.7287 10.3563 16.1327 10.2748L16.5627 10.1881C17.2735 10.0447 17.9007 10.6719 17.7573 11.3827L17.6706 11.8127C17.589 12.2167 17.7602 12.6299 18.1035 12.8579L18.4689 13.1006C19.0729 13.5019 19.0729 14.3889 18.4689 14.7901L18.1035 15.0328C17.7602 15.2608 17.589 15.674 17.6706 16.078L17.7573 16.508C17.9007 17.2188 17.2735 17.846 16.5627 17.7026L16.1327 17.6159C15.7287 17.5344 15.3155 17.7055 15.0874 18.0488L14.8447 18.4142C14.4435 19.0182 13.5565 19.0182 13.1553 18.4142L12.9126 18.0488C12.6845 17.7055 12.2714 17.5344 11.8673 17.6159L11.4373 17.7026C10.7266 17.846 10.0993 17.2188 10.2427 16.508L10.3295 16.078C10.411 15.674 10.2398 15.2608 9.89651 15.0328L9.53114 14.7901C8.92712 14.3889 8.92712 13.5019 9.53114 13.1006L9.89651 12.8579C10.2398 12.6299 10.411 12.2167 10.3295 11.8127L10.2427 11.3827C10.0993 10.6719 10.7266 10.0447 11.4373 10.1881Z" stroke="#6A5F0C" stroke-width="2" stroke-miterlimit="10" stroke-linecap="round" stroke-linejoin="round"/>
<path d="M21.3474 17.5029L25.0921 21.225C25.5721 21.705 25.2467 22.5103 24.5682 22.5312H22.5314V24.568C22.5104 25.2466 21.7052 25.572 21.2251 25.092L17.4805 21.3699" stroke="#B3A115" stroke-width="2" stroke-miterlimit="10" stroke-linecap="round" stroke-linejoin="round"/>
</g>
</g>
<defs>
<clipPath id="clip0_0_1945">
<rect width="28" height="28" fill="white"/>
</clipPath>
</defs>
</svg>
