<svg width="28" height="28" viewBox="0 0 28 28" fill="none" xmlns="http://www.w3.org/2000/svg">
<path d="M8.47772 10.6646C8.47772 7.72593 11.4676 3.79867 16.2004 3.39641C16.2893 3.0642 16.373 2.73324 16.4524 2.40895C16.1426 2.37615 15.8465 2.24716 15.6096 2.03289L14.9994 1.48109C14.432 0.967892 13.5681 0.967892 13.0006 1.48109L12.3904 2.03289C12.035 2.35438 11.5466 2.48523 11.078 2.38457L10.2737 2.21179C9.52571 2.05109 8.77751 2.48304 8.54267 3.21122L8.29018 3.99414C8.1431 4.45025 7.78556 4.80778 7.3294 4.95492L6.54648 5.20742C5.8183 5.44225 5.38635 6.19045 5.54705 6.93848L5.71982 7.74277C5.82048 8.21135 5.68964 8.69973 5.36814 9.05518L4.81656 9.66515C4.55997 9.94887 4.43164 10.3067 4.43164 10.6646C4.43164 11.0224 4.55997 11.3803 4.81656 11.664L5.36836 12.2742C5.68981 12.6296 5.8207 13.118 5.72004 13.5866L5.54726 14.3908C5.38657 15.1388 5.81852 15.887 6.5467 16.1219L7.32962 16.3744C7.78573 16.5214 8.14326 16.879 8.29039 17.3351L8.54289 18.1181C8.77773 18.8462 9.52592 19.2782 10.274 19.1175L11.0783 18.9447C11.5468 18.8441 12.0352 18.9749 12.3907 19.2964L13.0008 19.8482C13.5682 20.3614 14.4322 20.3614 14.9997 19.8482L15.6098 19.2964C15.8467 19.0821 16.1428 18.9531 16.4526 18.9203C16.3733 18.596 16.2895 18.2651 16.2006 17.9329C11.4677 17.5305 8.47772 13.6032 8.47772 10.6646Z" fill="#FCE31D"/>
<path d="M13.9996 21.3292C13.3801 21.3292 12.7606 21.1058 12.2667 20.6591L11.6566 20.1073C11.5622 20.022 11.4316 19.9872 11.3073 20.0137L10.5031 20.1865C9.20058 20.4663 7.91038 19.7213 7.50156 18.4536L7.24912 17.6707C7.21013 17.5497 7.11456 17.4541 6.9935 17.415L6.21064 17.1627C4.9428 16.7538 4.19783 15.4634 4.47766 14.1611L4.6505 13.3568C4.67718 13.2325 4.64224 13.1019 4.55689 13.0076L4.00515 12.3975C3.11157 11.4096 3.11157 9.91963 4.00515 8.93167L4.55694 8.32159C4.64224 8.22727 4.67718 8.09671 4.6505 7.97232L4.47766 7.16813C4.19788 5.86579 4.94285 4.57542 6.21059 4.1666L6.9935 3.9141C7.11456 3.87506 7.21008 3.77949 7.24917 3.65843L7.50156 2.87557C7.91043 1.60773 9.20097 0.862758 10.5031 1.14265L11.3074 1.31543C11.4318 1.34216 11.5623 1.30717 11.6566 1.22187L12.2667 0.670132C13.2546 -0.223395 14.7446 -0.223341 15.7326 0.670077V0.670132L16.3427 1.22193C16.437 1.30717 16.5673 1.34211 16.6919 1.31548L17.4962 1.1427C18.7989 0.862757 20.089 1.60795 20.4977 2.87563L20.7502 3.6586C20.7893 3.7796 20.8848 3.87517 21.0058 3.91421L21.7887 4.16671C23.0565 4.57553 23.8015 5.8659 23.5217 7.16824L23.3488 7.97259C23.3222 8.09682 23.3571 8.22744 23.4424 8.32176L23.9942 8.93184C24.8878 9.91974 24.8878 11.4097 23.9942 12.3977L23.4424 13.0078C23.3571 13.1021 23.3222 13.2327 23.3488 13.357L23.5217 14.1612C23.8015 15.4636 23.0565 16.754 21.7887 17.1628L21.0058 17.4153C20.8848 17.4542 20.7892 17.5498 20.7502 17.6709L20.4978 18.4537C20.0889 19.7216 18.7984 20.4664 17.4962 20.1867L16.6919 20.0139C16.5677 19.987 16.437 20.0221 16.3427 20.1075L15.7326 20.6592C15.2386 21.1058 14.6192 21.3292 13.9996 21.3292ZM11.3881 17.8182C12.0227 17.8182 12.6447 18.0522 13.1236 18.4852L13.7337 19.0371C13.8853 19.1742 14.1139 19.1742 14.2656 19.0371L14.8757 18.4853C15.4903 17.9294 16.3409 17.7013 17.1512 17.8755L17.9556 18.0484C18.1557 18.0915 18.3535 17.977 18.4162 17.7824L18.6686 16.9996C18.923 16.2107 19.5457 15.5881 20.3345 15.3337L21.1175 15.0812C21.312 15.0184 21.4263 14.8204 21.3834 14.6206L21.2105 13.8163C21.0365 13.006 21.2644 12.1554 21.8202 11.5407L22.3721 10.9305C22.5092 10.7789 22.5092 10.5503 22.3721 10.3987L21.8203 9.78857C21.2644 9.17389 21.0365 8.32323 21.2105 7.51298L21.3834 6.70863C21.4263 6.50884 21.312 6.31085 21.1174 6.24809L20.3345 5.99559C19.5457 5.74118 18.923 5.11847 18.6687 4.3297L18.4162 3.54673C18.3535 3.35224 18.1558 3.23802 17.9556 3.28084L17.1513 3.45361C16.3412 3.6277 15.4903 3.39976 14.8757 2.84386L14.2656 2.29206C14.114 2.15488 13.8853 2.15488 13.7337 2.29206L13.1236 2.8438C12.509 3.3997 11.6582 3.62776 10.848 3.45356L10.0437 3.28078C9.84424 3.23797 9.64587 3.35213 9.58305 3.54673L9.33066 4.32959C9.0763 5.11836 8.45354 5.74112 7.66477 5.99553L6.88185 6.24803C6.68726 6.31075 6.57298 6.50878 6.61591 6.70863L6.78874 7.51287C6.96283 8.32318 6.73488 9.17384 6.17904 9.78851L5.62719 10.3987C5.49006 10.5503 5.49006 10.7789 5.62719 10.9305L6.17898 11.5406C6.73488 12.1553 6.96283 13.006 6.78874 13.8162L6.61591 14.6206C6.57298 14.8204 6.68731 15.0183 6.88185 15.0811L7.66471 15.3336C8.45353 15.588 9.07619 16.2107 9.3306 16.9994L9.5831 17.7824C9.64582 17.977 9.84385 18.0914 10.0437 18.0483L10.8479 17.8755C11.0269 17.837 11.2081 17.8182 11.3881 17.8182Z" fill="#6A5F0C"/>
<path d="M17.9051 27.9999C17.253 28 16.6169 27.7535 16.112 27.2808L14.482 25.7756C14.2115 25.5259 13.788 25.5259 13.5174 25.7756L11.8875 27.2808C11.1072 28.0111 10.0139 28.2015 9.03247 27.777C8.04927 27.3519 7.43848 26.4223 7.43848 25.3511V23.2403C7.49622 21.7894 9.5683 21.7905 9.62555 23.2403V25.3511C9.62555 25.6118 9.79783 25.7252 9.90051 25.7696C10.0031 25.814 10.2038 25.8619 10.3936 25.6833C10.396 25.6811 10.3983 25.6789 10.4008 25.6767L12.0337 24.1688C13.1361 23.1508 14.8633 23.1508 15.9657 24.1688L17.5986 25.6767C17.601 25.6789 17.6034 25.6811 17.6058 25.6833C17.7956 25.8619 17.9963 25.8141 18.0989 25.7696C18.2015 25.7252 18.3738 25.6118 18.3738 25.3511V23.2403C18.4316 21.7894 20.5036 21.7905 20.5609 23.2403V25.3511C20.5609 26.4223 19.9501 27.3519 18.9669 27.777C18.6208 27.9267 18.2605 27.9999 17.9051 27.9999ZM19.5221 10.6647C19.4635 9.21274 17.3922 9.21569 17.335 10.6647C17.335 12.5038 15.8388 14 13.9997 14C12.1606 14 10.6645 12.5038 10.6645 10.6647C10.6645 8.82558 12.1606 7.3294 13.9997 7.3294C14.6037 7.3294 15.0933 6.83983 15.0933 6.23587C15.0933 5.63191 14.6037 5.14233 13.9997 5.14233C6.67382 5.44552 6.67552 15.8847 13.9997 16.187C17.0448 16.187 19.5221 13.7097 19.5221 10.6647Z" fill="#B3A115"/>
</svg>
