<svg width="28" height="28" viewBox="0 0 28 28" fill="none" xmlns="http://www.w3.org/2000/svg">
<path d="M8.41133 9.92021C8.41133 14.2624 11.5285 17.8718 15.641 18.6429C15.1105 18.7413 14.5582 18.796 13.9949 18.796C9.09492 18.796 5.11914 14.8202 5.11914 9.92021C5.11914 5.02021 9.10039 1.04443 14.0004 1.04443C14.5637 1.04443 15.1105 1.09912 15.6465 1.19756C11.5285 1.96865 8.41133 5.57803 8.41133 9.92021Z" fill="#FCE31D"/>
<path d="M8.52069 27.9998C8.43866 27.9998 8.35116 27.9943 8.26366 27.9834C7.46522 27.8795 6.79804 27.3162 6.57382 26.5451L6.19647 25.2818L4.90585 25.5607C4.11835 25.7357 3.30351 25.424 2.82772 24.7732C2.35194 24.117 2.31366 23.2475 2.72382 22.5529L4.61601 19.3373C4.92226 18.8178 5.59491 18.6428 6.11444 18.949C6.63397 19.2553 6.80897 19.9279 6.50272 20.4475L4.80194 23.3404L6.72147 22.9303C7.27929 22.81 7.8371 23.1381 8.00116 23.685L8.56444 25.5717L10.6426 22.1209C10.9543 21.6014 11.6269 21.4373 12.1465 21.749C12.666 22.0607 12.8301 22.7334 12.5183 23.2529L10.2488 27.0154C9.89335 27.6279 9.22616 27.9998 8.52069 27.9998ZM19.4801 27.9998C18.7691 27.9998 18.1074 27.6279 17.7355 27.0045L15.5207 23.2365C15.2144 22.717 15.3894 22.0443 15.909 21.7381C16.4285 21.4318 17.1012 21.6068 17.4074 22.1264L19.4308 25.5607L19.9941 23.6795C20.1582 23.1326 20.716 22.8045 21.2738 22.9248L23.1933 23.335L21.4433 20.3928C21.1316 19.8732 21.3066 19.2006 21.8262 18.8889C22.3457 18.5771 23.0184 18.7521 23.3301 19.2717L25.2769 22.542C25.6926 23.242 25.6488 24.1115 25.173 24.7678C24.6973 25.4186 23.8824 25.7303 23.0949 25.5553L21.8043 25.2764L21.4269 26.5396C21.2027 27.3162 20.5355 27.8795 19.7371 27.9779C19.6496 27.9943 19.5676 27.9998 19.4801 27.9998ZM14.0004 19.8897C8.50429 19.8897 4.03085 15.4162 4.03085 9.92012C4.57772 -3.30879 23.423 -3.30332 23.9699 9.92012C23.9699 15.4162 19.4965 19.8897 14.0004 19.8897ZM14.0004 2.13809C9.71288 2.13809 6.22382 5.62715 6.22382 9.91465C6.65038 20.2342 21.3558 20.2342 21.7824 9.91465C21.7769 5.62715 18.2879 2.13809 14.0004 2.13809Z" fill="#6A5F0C"/>
<path d="M15.8598 14.8476C15.5427 14.8476 15.2255 14.771 14.9302 14.6179L13.9403 14.0983L12.9505 14.6179C12.2723 14.9733 11.4684 14.9132 10.8505 14.4647C10.2325 14.0163 9.93171 13.2671 10.0575 12.5179L10.2434 11.4241L9.445 10.6476C8.25828 9.51553 8.92546 7.47021 10.5497 7.246L11.6544 7.0874L12.1466 6.09209C12.8575 4.621 15.0122 4.621 15.7231 6.09209L16.2153 7.0874L17.32 7.246C18.9442 7.46475 19.6114 9.51553 18.4247 10.6476L17.6262 11.4241L17.8122 12.5179C17.9434 13.2671 17.6372 14.0163 17.0192 14.4647C16.6856 14.7218 16.2755 14.8476 15.8598 14.8476ZM13.9458 11.8835C14.263 11.8835 14.5802 11.9601 14.8755 12.1132L15.6028 12.496L15.4661 11.6976C15.3567 11.0522 15.57 10.3905 16.0403 9.93115L16.62 9.36787L15.8161 9.25303C15.1653 9.16006 14.6075 8.7499 14.3122 8.16475L13.9458 7.43193L13.5794 8.16475C13.2895 8.7499 12.7262 9.16006 12.0755 9.25303L11.2716 9.36787L11.8512 9.93115C12.3216 10.3905 12.5348 11.0468 12.4255 11.6976L12.2887 12.496L13.0161 12.1132C13.3059 11.9601 13.6286 11.8835 13.9458 11.8835Z" fill="#B3A115"/>
</svg>
