<svg width="18" height="18" viewBox="0 0 18 18" fill="none" xmlns="http://www.w3.org/2000/svg">
<g clip-path="url(#clip0_0_3632)">
<path opacity="0.8" d="M15.7832 0.788391C16.1776 0.394395 16.8166 0.394314 17.2109 0.788391C17.6054 1.1828 17.6053 1.82253 17.2109 2.2171L10.4277 8.99933L17.2109 15.7825C17.5807 16.1523 17.6038 16.7374 17.2803 17.1341L17.2109 17.2112C17.0138 17.4072 16.7555 17.507 16.498 17.5071C16.2401 17.5071 15.981 17.409 15.7842 17.2112L9 10.4271L2.2168 17.2112C2.01941 17.4074 1.76047 17.5071 1.50195 17.5071C1.24381 17.5071 0.984852 17.4085 0.788086 17.2103C0.394186 16.8158 0.393882 16.1768 0.788086 15.7825L7.57129 8.99933L0.788086 2.2171C0.393853 1.82252 0.393705 1.18277 0.788086 0.788391C1.18247 0.394022 1.8222 0.394181 2.2168 0.788391L8.99902 7.57062L15.7832 0.788391Z" fill="black" stroke="black" stroke-width="0.3"/>
</g>
<defs>
<clipPath id="clip0_0_3632">
<rect width="18" height="18" fill="white"/>
</clipPath>
</defs>
</svg>
