<svg xmlns="http://www.w3.org/2000/svg" width="10" height="10" viewBox="0 0 10 10" fill="none">
  <g clip-path="url(#clip0_2008_335)">
    <path d="M5.00008 2.91663C5.40828 2.9166 5.80749 3.0365 6.14813 3.26142C6.48878 3.48634 6.75584 3.80637 6.91615 4.18178C7.07646 4.55718 7.12296 4.9714 7.04986 5.37301C6.97677 5.77461 6.78731 6.14589 6.50501 6.44073C6.22271 6.73558 5.86002 6.941 5.46197 7.03147C5.06392 7.12195 4.64807 7.0935 4.26605 6.94965C3.88404 6.80581 3.5527 6.55291 3.31319 6.22236C3.07368 5.89182 2.93655 5.49819 2.91883 5.09038L2.91675 4.99996L2.91883 4.90954C2.94213 4.37319 3.17158 3.86653 3.55934 3.49523C3.9471 3.12393 4.46322 2.91666 5.00008 2.91663Z" fill="#2C2C2C"/>
  </g>
  <defs>
    <clipPath id="clip0_2008_335">
      <rect width="10" height="10" fill="white"/>
    </clipPath>
  </defs>
</svg>