<svg width="30" height="28" viewBox="0 0 30 28" fill="none" xmlns="http://www.w3.org/2000/svg">
<path d="M11.2643 21.4417C11.4215 21.1919 11.5762 20.9407 11.7293 20.6884C8.04472 17.4673 5.28125 12.6414 5.28125 7.62641C5.28125 5.0993 6.88447 2.96135 9.0916 2.25102C8.56338 2.09013 7.99966 2 7.41406 2C4.42397 2 2 4.51902 2 7.62641C2 13.0328 5.57886 17.4223 9.6942 20.6152C10.1757 20.9888 10.7081 21.2634 11.2643 21.4417Z" fill="#FCE31D"/>
<path d="M23.4743 9.54688C23.5812 8.92185 23.6435 8.28157 23.6562 7.62641C23.6562 4.51907 21.2323 2 18.2422 2C15.2521 2 12.8281 4.22753 12.8281 6.53906C12.8281 4.34057 10.4042 2 7.41406 2C4.42397 2 2 4.51902 2 7.62641C2 13.0334 5.57962 17.4232 9.69557 20.6163L9.69393 20.615C10.2321 21.0325 10.8333 21.3281 11.4609 21.5019" stroke="#6A5F0C" stroke-width="3" stroke-miterlimit="10" stroke-linecap="round" stroke-linejoin="round"/>
<path d="M21.0859 16.6672C21.0859 14.8121 19.5801 13.375 17.7227 13.375C15.8652 13.375 14.3594 14.8789 14.3594 16.734C14.4249 19.9613 16.5831 22.5827 19.1399 24.4889C20.2915 25.3475 21.8803 25.3475 23.032 24.4889C25.5889 22.5826 27.747 19.9613 27.8126 16.734C27.8126 14.8789 26.3067 13.375 24.4493 13.375C22.5918 13.375 21.0859 14.8121 21.0859 16.6672Z" stroke="#B3A115" stroke-width="3" stroke-miterlimit="10" stroke-linecap="round" stroke-linejoin="round"/>
</svg>
