<svg width="28" height="28" viewBox="0 0 28 28" fill="none" xmlns="http://www.w3.org/2000/svg">
<path d="M6.34375 5.46875V4.66966C6.34375 3.79668 6.85552 2.99945 7.66073 2.66219C8.95541 2.11991 12.6357 1.38458 15.6406 1.16102C15.0614 1.11792 14.5071 1.09375 14 1.09375C10.862 1.09375 5.9237 2.0154 4.37948 2.66219C3.57427 2.9995 3.0625 3.79668 3.0625 4.66966V5.46875C3.0625 6.67685 4.0419 7.65625 5.25 7.65625H8.53125C7.32315 7.65625 6.34375 6.67685 6.34375 5.46875Z" fill="#FCE31D"/>
<path d="M10.7188 14C10.7188 13.3969 11.2094 12.9062 11.8125 12.9062H16.1875C16.7906 12.9062 17.2812 13.3969 17.2812 14V17.2812C17.2812 17.6641 17.2812 17.7709 17.2812 18.375C17.2812 18.9791 17.2812 19.4141 17.2812 19.4141V19.4688V22.5312C17.2812 23.1353 17.7709 23.625 18.375 23.625C18.9791 23.625 19.4688 23.1353 19.4688 22.5312V14C19.4688 12.1907 17.9968 10.7188 16.1875 10.7188H11.8125C10.0032 10.7188 8.53125 12.1907 8.53125 14V22.5312C8.53125 23.1353 9.02092 23.625 9.625 23.625C10.2291 23.625 10.7188 23.1353 10.7188 22.5312V14Z" fill="#B3A115"/>
<path d="M1.96875 5.46875C1.96875 6.89462 2.88323 8.11032 4.15625 8.56187V24.7188C4.15625 26.528 5.62822 28 7.4375 28H20.5625C22.3718 28 23.8438 26.528 23.8438 24.7188V11.8125C23.8438 11.2084 23.3541 10.7188 22.75 10.7188C22.1459 10.7188 21.6562 11.2084 21.6562 11.8125V24.7188C21.6562 25.3218 21.1656 25.8125 20.5625 25.8125H7.4375C6.83441 25.8125 6.34375 25.3218 6.34375 24.7188V8.75H22.75C24.5593 8.75 26.0312 7.27803 26.0312 5.46875V4.66966C26.0312 3.34327 25.2508 2.15928 24.0431 1.65337C22.3032 0.924602 17.2258 0 14 0C10.7743 0 5.6968 0.924602 3.95691 1.65337C2.74914 2.15928 1.96875 3.34327 1.96875 4.66966V5.46875ZM4.15625 4.66966C4.15625 4.22734 4.40973 3.83534 4.80205 3.67101C6.16831 3.09876 10.9323 2.1875 14 2.1875C17.0677 2.1875 21.8317 3.09876 23.1979 3.67101C23.5902 3.83534 23.8438 4.22734 23.8438 4.66966V5.46875C23.8438 6.07184 23.3531 6.5625 22.75 6.5625H5.25C4.64691 6.5625 4.15625 6.07184 4.15625 5.46875V4.66966Z" fill="#6A5F0C"/>
<circle cx="14.0273" cy="22.6133" r="1.01172" fill="#B3A115"/>
</svg>
