<svg width="34" height="34" viewBox="0 0 34 34" fill="none" xmlns="http://www.w3.org/2000/svg">
<path d="M5.3125 22.4453V11.5547C5.3125 7.88714 8.28564 4.91406 11.9531 4.91406H7.96875C4.30127 4.91406 1.32812 7.88714 1.32812 11.5547V22.4453C1.32812 26.1129 4.30127 29.0859 7.96875 29.0859H11.9531C8.28564 29.0859 5.3125 26.1129 5.3125 22.4453Z" fill="#FCE31D"/>
<path d="M26.0312 30.4141H7.96875C3.57478 30.4141 0 26.8393 0 22.4453V11.5547C0 7.16072 3.57478 3.58594 7.96875 3.58594H26.0312C30.4252 3.58594 34 7.16072 34 11.5547V22.4453C34 26.8393 30.4252 30.4141 26.0312 30.4141ZM7.96875 6.24219C5.03944 6.24219 2.65625 8.62537 2.65625 11.5547V22.4453C2.65625 25.3746 5.03944 27.7578 7.96875 27.7578H26.0312C28.9606 27.7578 31.3438 25.3746 31.3438 22.4453V11.5547C31.3438 8.62537 28.9606 6.24219 26.0312 6.24219H7.96875Z" fill="#6A5F0C"/>
<path d="M17.033 20.9793C15.3279 20.9793 13.6233 20.4368 12.2006 19.3518C12.1973 19.3493 12.1941 19.3468 12.1909 19.3443L5.82559 14.3962C5.24646 13.946 5.14194 13.1116 5.59211 12.5325C6.04221 11.9534 6.87667 11.8488 7.4558 12.299L13.8163 17.2433C15.7129 18.6864 18.3597 18.6852 20.255 17.2396L26.8188 12.2258C27.4017 11.7805 28.2351 11.8921 28.6804 12.475C29.1257 13.0579 29.0141 13.8914 28.4312 14.3366L21.8666 19.3511C20.4435 20.4365 18.738 20.9793 17.033 20.9793Z" fill="#B3A115"/>
</svg>
