<svg width="40" height="40" viewBox="0 0 40 40" fill="none" xmlns="http://www.w3.org/2000/svg">
<g opacity="0.5">
<circle cx="20" cy="20" r="19.2857" stroke="white" stroke-width="1.42857"/>
<path d="M20.0002 11.7334C15.5825 11.7334 12.0001 15.3151 12.0001 19.7335C12.0001 23.2681 14.2924 26.2669 17.4711 27.3247C17.8709 27.3988 18.0177 27.1512 18.0177 26.9399C18.0177 26.7491 18.0102 26.1189 18.0068 25.4504C15.7812 25.9344 15.3115 24.5065 15.3115 24.5065C14.9476 23.5818 14.4233 23.3359 14.4233 23.3359C13.6974 22.8394 14.478 22.8496 14.478 22.8496C15.2813 22.906 15.7043 23.674 15.7043 23.674C16.4179 24.897 17.5758 24.5435 18.0324 24.3391C18.1042 23.822 18.3115 23.4691 18.5403 23.2693C16.7634 23.067 14.8954 22.381 14.8954 19.3156C14.8954 18.4422 15.2079 17.7285 15.7197 17.1683C15.6366 16.9668 15.3628 16.1531 15.7972 15.0512C15.7972 15.0512 16.469 14.8362 17.9978 15.8712C18.6359 15.694 19.3203 15.6051 20.0002 15.602C20.6801 15.6051 21.365 15.694 22.0043 15.8712C23.5312 14.8362 24.2021 15.0512 24.2021 15.0512C24.6376 16.1531 24.3636 16.9668 24.2805 17.1683C24.7935 17.7285 25.1039 18.4422 25.1039 19.3156C25.1039 22.3883 23.2324 23.0649 21.451 23.2629C21.7379 23.5112 21.9936 23.9981 21.9936 24.7444C21.9936 25.8149 21.9843 26.6764 21.9843 26.9399C21.9843 27.1527 22.1283 27.4022 22.5338 27.3236C25.7108 26.2646 28.0001 23.2669 28.0001 19.7335C28.0001 15.3151 24.4183 11.7334 20.0002 11.7334ZM14.9964 23.1297C14.9788 23.1694 14.9163 23.1813 14.8593 23.154C14.8013 23.1279 14.7687 23.0738 14.7875 23.0339C14.8047 22.9929 14.8674 22.9816 14.9253 23.009C14.9834 23.0351 15.0165 23.0898 14.9964 23.1297ZM15.3899 23.4808C15.3518 23.5162 15.2772 23.4997 15.2266 23.4438C15.1742 23.3881 15.1644 23.3135 15.2031 23.2776C15.2425 23.2422 15.3148 23.2588 15.3673 23.3145C15.4196 23.371 15.4298 23.445 15.3899 23.4808ZM15.6599 23.93C15.6109 23.9641 15.5307 23.9322 15.4812 23.861C15.4322 23.7899 15.4322 23.7046 15.4822 23.6704C15.5319 23.6362 15.6109 23.6669 15.6611 23.7376C15.71 23.8099 15.71 23.8952 15.6599 23.93ZM16.1165 24.4503C16.0726 24.4987 15.9792 24.4857 15.9109 24.4197C15.8409 24.3552 15.8214 24.2637 15.8654 24.2153C15.9098 24.1668 16.0037 24.1805 16.0726 24.2459C16.142 24.3103 16.1632 24.4025 16.1165 24.4503ZM16.7065 24.626C16.6872 24.6887 16.5972 24.7171 16.5066 24.6905C16.4161 24.6631 16.3569 24.5897 16.3752 24.5264C16.394 24.4633 16.4844 24.4336 16.5756 24.4621C16.666 24.4894 16.7253 24.5623 16.7065 24.626ZM17.3781 24.7005C17.3803 24.7665 17.3035 24.8212 17.2084 24.8224C17.1127 24.8245 17.0353 24.7711 17.0343 24.7062C17.0343 24.6396 17.1094 24.5854 17.205 24.5838C17.3002 24.5819 17.3781 24.6349 17.3781 24.7005ZM18.0378 24.6752C18.0491 24.7396 17.983 24.8057 17.8886 24.8233C17.7957 24.8403 17.7097 24.8005 17.698 24.7367C17.6864 24.6707 17.7537 24.6046 17.8465 24.5875C17.941 24.5711 18.0257 24.6098 18.0378 24.6752Z" fill="white"/>
</g>
</svg>
