<svg width="28" height="28" viewBox="0 0 28 28" fill="none" xmlns="http://www.w3.org/2000/svg">
<g clip-path="url(#clip0_0_1914)">
<path d="M26.9062 25.8125H1.09375C0.489672 25.8125 0 26.3022 0 26.9062C0 27.5103 0.489672 28 1.09375 28H26.9062C27.5103 28 28 27.5103 28 26.9062C28 26.3022 27.5103 25.8125 26.9062 25.8125Z" fill="#6A5F0C"/>
<path d="M8.53125 20.3438V18.1562C8.53125 16.347 7.05928 14.875 5.25 14.875C3.44072 14.875 1.96875 16.347 1.96875 18.1562V20.3438C1.96875 22.153 3.44072 23.625 5.25 23.625C7.05928 23.625 8.53125 22.153 8.53125 20.3438ZM4.15625 20.3438V18.1562C4.15625 17.5532 4.64691 17.0625 5.25 17.0625C5.85309 17.0625 6.34375 17.5532 6.34375 18.1562V20.3438C6.34375 20.9468 5.85309 21.4375 5.25 21.4375C4.64691 21.4375 4.15625 20.9468 4.15625 20.3438Z" fill="#6A5F0C"/>
<path d="M17.2812 20.3438V15.9688C17.2812 14.1595 15.8093 12.6875 14 12.6875C12.1907 12.6875 10.7188 14.1595 10.7188 15.9688V20.3438C10.7188 22.153 12.1907 23.625 14 23.625C15.8093 23.625 17.2812 22.153 17.2812 20.3438ZM12.9062 20.3438V15.9688C12.9062 15.3657 13.3969 14.875 14 14.875C14.6031 14.875 15.0938 15.3657 15.0938 15.9688V20.3438C15.0938 20.9468 14.6031 21.4375 14 21.4375C13.3969 21.4375 12.9062 20.9468 12.9062 20.3438Z" fill="#6A5F0C"/>
<path d="M26.0312 20.3438V11.5938C26.0312 9.78447 24.5593 8.3125 22.75 8.3125C20.9407 8.3125 19.4688 9.78447 19.4688 11.5938V20.3438C19.4688 22.153 20.9407 23.625 22.75 23.625C24.5593 23.625 26.0312 22.153 26.0312 20.3438ZM21.6562 20.3438V11.5938C21.6562 10.9907 22.1469 10.5 22.75 10.5C23.3531 10.5 23.8438 10.9907 23.8438 11.5938V20.3438C23.8438 20.9468 23.3531 21.4375 22.75 21.4375C22.1469 21.4375 21.6562 20.9468 21.6562 20.3438Z" fill="#6A5F0C"/>
<path d="M18.229 9.3491L23.8437 3.73434V5.46875C23.8437 6.07283 24.3334 6.5625 24.9375 6.5625C25.5416 6.5625 26.0312 6.07283 26.0312 5.46875V1.09375C26.0312 1.09211 26.031 1.09058 26.031 1.08894C26.0281 0.476492 25.5267 0 24.9375 0H20.5625C19.9584 0 19.4687 0.489672 19.4687 1.09375C19.4687 1.69783 19.9584 2.1875 20.5625 2.1875H22.2969L16.6821 7.80227C16.3148 8.16966 15.7344 8.22719 15.302 7.93893L11.7238 5.55346C10.4269 4.68885 8.68571 4.86123 7.58349 5.96345L2.28908 11.2579C1.86197 11.685 1.86197 12.3775 2.28908 12.8046C2.71619 13.2317 3.40875 13.2318 3.83592 12.8046L9.13032 7.51023C9.49766 7.1429 10.0781 7.08537 10.5104 7.37357L14.0886 9.75904C15.3855 10.6236 17.1267 10.4512 18.229 9.3491Z" fill="#B3A115"/>
</g>
<defs>
<clipPath id="clip0_0_1914">
<rect width="28" height="28" fill="white"/>
</clipPath>
</defs>
</svg>
