<svg width="28" height="28" viewBox="0 0 28 28" fill="none" xmlns="http://www.w3.org/2000/svg">
<g clip-path="url(#clip0_0_384)">
<path d="M6.30499 10.3789C6.0753 10.4741 5.83741 10.5479 5.59351 10.6004C5.8128 10.4866 6.05233 10.41 6.30499 10.3789Z" fill="#CEE1F2"/>
<path d="M6.5625 21.6289H3.28125C2.0732 21.6289 1.09375 20.6494 1.09375 19.4414V12.8789C1.09375 11.6708 2.0732 10.6914 3.28125 10.6914H4.73211C5.02359 10.6914 5.3118 10.6607 5.59289 10.6006C4.87102 10.9741 4.375 11.7457 4.375 12.6054V19.4414C4.375 20.6494 5.35445 21.6289 6.5625 21.6289Z" fill="#FCE31D"/>
<path d="M11.287 4.41424L10.5388 2.35865C10.3323 1.79099 9.70446 1.49836 9.13697 1.70491C8.56931 1.91152 8.27668 2.53917 8.48323 3.10677L9.23141 5.16236C9.43769 5.72915 10.0647 6.02298 10.6333 5.8161C11.2009 5.60949 11.4936 4.98184 11.287 4.41424Z" fill="#B3A115"/>
<path d="M18.863 1.70493C18.2953 1.49832 17.6678 1.79106 17.4611 2.35866L16.713 4.41426C16.5064 4.98186 16.799 5.6095 17.3667 5.81611C17.9354 6.02311 18.5623 5.72894 18.7686 5.16238L19.5167 3.10679C19.7233 2.53918 19.4307 1.91154 18.863 1.70493Z" fill="#B3A115"/>
<path d="M14 5.22241C14.6041 5.22241 15.0938 4.73274 15.0938 4.12866V1.94116C15.0938 1.33708 14.6041 0.847412 14 0.847412C13.3959 0.847412 12.9062 1.33708 12.9062 1.94116V4.12866C12.9062 4.73269 13.3959 5.22241 14 5.22241Z" fill="#B3A115"/>
<path d="M24.7188 9.59749H22.0944C21.4303 9.59749 20.7574 9.28982 20.094 8.6829C18.1654 6.91852 15.2059 6.98518 13.3563 8.83466L9.37475 12.8162C8.09539 14.0955 8.09539 16.1772 9.37475 17.4566C10.6571 18.7388 12.7327 18.7391 14.0152 17.4566L16.9343 14.5375C17.3614 14.1103 17.3614 13.4178 16.9343 12.9907C16.5071 12.5635 15.8146 12.5635 15.3875 12.9907L12.4684 15.9098C12.0409 16.3372 11.3491 16.3372 10.9216 15.9098C10.4951 15.4833 10.4951 14.7895 10.9216 14.363L14.9032 10.3815C15.9229 9.36163 17.5544 9.32438 18.6175 10.2969C19.6816 11.2704 20.8838 11.785 22.0944 11.785H24.7188C25.3219 11.785 25.8126 12.2756 25.8126 12.8787V19.4412C25.8126 20.0443 25.3219 20.535 24.7188 20.535H21.5464C22.0632 19.3362 21.8337 17.8901 20.8559 16.9122L20.0276 16.0839C19.6004 15.6568 18.9079 15.6568 18.4808 16.0839C18.0537 16.511 18.0537 17.2036 18.4809 17.6308L19.3092 18.459C19.7356 18.8855 19.7356 19.5794 19.3092 20.0058L18.4599 20.8551C18.4598 20.8552 18.4597 20.8554 18.4595 20.8555L14.6687 24.6462C14.4622 24.8527 14.1875 24.9665 13.8953 24.9665C13.6032 24.9665 13.3285 24.8527 13.1219 24.6462L10.6124 22.1367C9.5795 21.1037 8.20619 20.5349 6.74543 20.5349H3.28125C2.67816 20.5349 2.1875 20.0442 2.1875 19.4411V12.8786C2.1875 12.2755 2.67816 11.7849 3.28125 11.7849H4.732C6.04729 11.7849 7.30368 11.2933 8.26979 10.4007C8.8305 9.88263 9.5597 9.59738 10.3231 9.59738C10.9272 9.59738 11.4168 9.10771 11.4168 8.50363C11.4168 7.89956 10.9272 7.40988 10.3231 7.40988C9.00774 7.40988 7.75135 7.90147 6.78535 8.79402C6.22464 9.31208 5.49538 9.59738 4.732 9.59738H3.28125C1.47197 9.59738 0 11.0694 0 12.8786V19.4411C0 21.2504 1.47197 22.7224 3.28125 22.7224H6.74543C7.62185 22.7224 8.44588 23.0637 9.0656 23.6835L11.5751 26.193C12.2148 26.8326 13.0551 27.1525 13.8953 27.1525C14.7356 27.1525 15.5758 26.8326 16.2155 26.193L19.6861 22.7224H24.7188C26.528 22.7224 28 21.2505 28 19.4412V12.8787C28 11.0695 26.528 9.59749 24.7188 9.59749Z" fill="#6A5F0C"/>
</g>
<defs>
<clipPath id="clip0_0_384">
<rect width="28" height="28" fill="white"/>
</clipPath>
</defs>
</svg>
