<svg width="28" height="28" viewBox="0 0 28 28" fill="none" xmlns="http://www.w3.org/2000/svg">
<path d="M8.77122 18.6662C7.18315 16.3206 6.34375 13.5836 6.34375 10.751V4.67212C5.33105 5.14413 4.25359 5.46875 3.0625 5.46875V10.751C3.0625 17.8659 7.3943 24.2638 14 26.9063C15.4477 26.3271 16.7862 25.5676 17.9938 24.6596C14.1577 23.9504 10.8923 21.7991 8.77122 18.6662Z" fill="#FCE31D"/>
<path d="M7.4375 13.7812L12.4532 8.76546C13.3075 7.91119 14.6926 7.91119 15.5468 8.76546L20.5625 13.7812" stroke="#B3A115" stroke-width="2.1875" stroke-miterlimit="10" stroke-linecap="round" stroke-linejoin="round"/>
<path d="M18.375 11.5938V15.9688C18.375 17.1769 17.3956 18.1562 16.1875 18.1562H11.8125C10.6044 18.1562 9.625 17.1769 9.625 15.9688V11.5938" stroke="#B3A115" stroke-width="2.1875" stroke-miterlimit="10" stroke-linecap="round" stroke-linejoin="round"/>
<path d="M14 15.9688V18.1562" stroke="#B3A115" stroke-width="2.1875" stroke-miterlimit="10" stroke-linecap="round" stroke-linejoin="round"/>
<path d="M24.9375 5.46875V10.751C24.9375 17.8659 20.6057 24.2638 14 26.9062C7.3943 24.2638 3.0625 17.8659 3.0625 10.751V5.46875C7.4375 5.46875 10.2812 1.09375 14 1.09375C17.7188 1.09375 20.5625 5.46875 24.9375 5.46875Z" stroke="#6A5F0C" stroke-width="2.1875" stroke-miterlimit="10" stroke-linecap="round" stroke-linejoin="round"/>
</svg>
