<svg width="40" height="40" viewBox="0 0 40 40" fill="none" xmlns="http://www.w3.org/2000/svg">
<g opacity="0.5">
<circle cx="20" cy="20" r="19.2857" stroke="white" stroke-width="1.42857"/>
<g clip-path="url(#clip0_0_1072)">
<path d="M17.6294 13.3511C16.8492 13.3879 16.3163 13.5124 15.8505 13.6955C15.3684 13.8833 14.9598 14.1355 14.5532 14.5435C14.1467 14.9515 13.8963 15.3604 13.7098 15.8433C13.5292 16.3101 13.4069 16.8434 13.3724 17.6241C13.338 18.4048 13.3303 18.6557 13.3341 20.6472C13.338 22.6386 13.3468 22.8882 13.3846 23.6706C13.4219 24.4507 13.5459 24.9834 13.729 25.4493C13.9171 25.9314 14.169 26.3399 14.5771 26.7466C14.9853 27.1533 15.3939 27.4031 15.8779 27.5899C16.3443 27.7702 16.8778 27.8931 17.6583 27.9273C18.4389 27.9614 18.6901 27.9694 20.681 27.9655C22.6718 27.9617 22.9225 27.9529 23.7046 27.9158C24.4868 27.8787 25.0167 27.7538 25.4828 27.5716C25.9649 27.383 26.3737 27.1316 26.7801 26.7233C27.1865 26.315 27.4367 25.9058 27.6231 25.4226C27.8038 24.9562 27.9266 24.4228 27.9605 23.6428C27.9946 22.8601 28.0027 22.6102 27.9989 20.619C27.9951 18.6279 27.9861 18.3782 27.949 17.5962C27.9119 16.8142 27.7877 16.2831 27.6048 15.8169C27.4163 15.3348 27.1648 14.9266 26.7568 14.5196C26.3488 14.1126 25.9393 13.8625 25.4563 13.6765C24.9896 13.496 24.4565 13.3729 23.6759 13.3392C22.8953 13.3055 22.6441 13.2968 20.6525 13.3006C18.6609 13.3045 18.4116 13.313 17.6294 13.3511ZM17.7151 26.608C17.0001 26.5769 16.6119 26.4581 16.3531 26.3587C16.0105 26.2267 15.7665 26.0671 15.5086 25.8117C15.2508 25.5564 15.0924 25.3115 14.9586 24.9696C14.8582 24.7109 14.7372 24.3231 14.7037 23.6081C14.6673 22.8353 14.6597 22.6033 14.6555 20.6454C14.6512 18.6876 14.6587 18.4558 14.6926 17.6827C14.7231 16.9683 14.8426 16.5797 14.9419 16.3211C15.0739 15.978 15.2329 15.7344 15.4888 15.4767C15.7448 15.219 15.989 15.0603 16.3311 14.9266C16.5896 14.8257 16.9773 14.7057 17.6921 14.6717C18.4654 14.635 18.6972 14.6277 20.6547 14.6234C22.6123 14.6192 22.8446 14.6265 23.6183 14.6605C24.3327 14.6916 24.7215 14.81 24.9798 14.9099C25.3225 15.0419 25.5664 15.2004 25.8241 15.4568C26.0818 15.7132 26.2407 15.9565 26.3744 16.2994C26.4755 16.5571 26.5954 16.9447 26.6292 17.6599C26.666 18.4332 26.6744 18.6651 26.6779 20.6225C26.6814 22.5799 26.6745 22.8124 26.6406 23.5852C26.6094 24.3002 26.4909 24.6886 26.3913 24.9476C26.2593 25.2901 26.1002 25.5343 25.8441 25.7918C25.588 26.0493 25.3441 26.208 25.0018 26.3418C24.7436 26.4426 24.3554 26.5628 23.6413 26.5969C22.8679 26.6332 22.6362 26.6409 20.6779 26.6451C18.7196 26.6494 18.4886 26.6414 17.7152 26.608M23.6934 16.7137C23.6936 16.8878 23.7455 17.0578 23.8425 17.2024C23.9394 17.347 24.0771 17.4595 24.238 17.5259C24.3989 17.5922 24.5759 17.6093 24.7466 17.575C24.9172 17.5408 25.0739 17.4567 25.1967 17.3334C25.3196 17.2101 25.4031 17.0531 25.4368 16.8823C25.4704 16.7115 25.4526 16.5346 25.3857 16.3739C25.3188 16.2132 25.2057 16.076 25.0608 15.9796C24.9159 15.8832 24.7457 15.8319 24.5716 15.8323C24.3383 15.8327 24.1147 15.9258 23.95 16.0911C23.7853 16.2564 23.693 16.4804 23.6934 16.7137ZM16.9012 20.6404C16.9053 22.7202 18.5943 24.4023 20.6736 24.3983C22.7529 24.3944 24.4362 22.7055 24.4323 20.6258C24.4283 18.546 22.7389 16.8635 20.6593 16.8676C18.5797 16.8717 16.8973 18.561 16.9012 20.6404ZM18.2221 20.6378C18.2211 20.1543 18.3636 19.6814 18.6314 19.2789C18.8992 18.8764 19.2804 18.5623 19.7267 18.3764C20.173 18.1905 20.6644 18.1411 21.1387 18.2345C21.6131 18.3279 22.0491 18.5598 22.3917 18.901C22.7342 19.2422 22.9679 19.6773 23.0632 20.1513C23.1584 20.6253 23.111 21.1169 22.9269 21.5639C22.7427 22.011 22.4302 22.3934 22.0287 22.6628C21.6272 22.9322 21.1549 23.0765 20.6714 23.0774C20.3504 23.0781 20.0324 23.0155 19.7356 22.8933C19.4387 22.771 19.1689 22.5915 18.9414 22.365C18.714 22.1384 18.5334 21.8693 18.41 21.5729C18.2865 21.2766 18.2227 20.9588 18.2221 20.6378Z" fill="white"/>
</g>
</g>
<defs>
<clipPath id="clip0_0_1072">
<rect width="14.6667" height="14.6667" fill="white" transform="translate(13.3333 13.2998)"/>
</clipPath>
</defs>
</svg>
