<svg width="34" height="34" viewBox="0 0 34 34" fill="none" xmlns="http://www.w3.org/2000/svg">
<g clip-path="url(#clip0_0_793)">
<path d="M10.3594 11.9531C10.3594 6.76613 14.0765 2.448 18.9922 1.51539C18.3468 1.39294 17.681 1.32812 17 1.32812C11.132 1.32813 6.375 6.08507 6.375 11.9531C6.375 17.8614 12.2157 23.7696 15.2362 26.43C15.7431 26.8765 16.3715 27.0997 17 27.0997C17.6285 27.0997 18.2569 26.8765 18.7638 26.43C18.8381 26.3645 18.9146 26.2966 18.9922 26.2272C15.9158 23.4783 10.3594 17.716 10.3594 11.9531Z" fill="#FCE31D"/>
<path d="M17 27.0997C17.6285 27.0997 18.2569 26.8764 18.7638 26.43C21.7843 23.7696 27.625 17.8614 27.625 11.9531C27.625 6.08507 22.8681 1.32812 17 1.32812C11.1319 1.32812 6.375 6.08507 6.375 11.9531C6.375 17.8614 12.2157 23.7696 15.2362 26.43C15.7431 26.8765 16.3715 27.0997 17 27.0997Z" stroke="#6A5F0C" stroke-width="2.5" stroke-miterlimit="10" stroke-linecap="round" stroke-linejoin="round"/>
<path d="M25.8361 25.7129C28.5637 26.4426 30.2812 27.5049 30.2812 28.6876C30.2812 30.8881 24.335 32.6719 17 32.6719C9.66496 32.6719 3.71875 30.8881 3.71875 28.6876C3.71875 27.5049 5.43628 26.4426 8.16392 25.7129" stroke="#6A5F0C" stroke-width="2.5" stroke-miterlimit="10" stroke-linecap="round" stroke-linejoin="round"/>
<path d="M17 15.9375C19.2005 15.9375 20.9844 14.1536 20.9844 11.9531C20.9844 9.75262 19.2005 7.96875 17 7.96875C14.7995 7.96875 13.0156 9.75262 13.0156 11.9531C13.0156 14.1536 14.7995 15.9375 17 15.9375Z" stroke="#B3A115" stroke-width="2.5" stroke-miterlimit="10" stroke-linecap="round" stroke-linejoin="round"/>
</g>
<defs>
<clipPath id="clip0_0_793">
<rect width="34" height="34" fill="white"/>
</clipPath>
</defs>
</svg>
