<svg width="28" height="28" viewBox="0 0 28 28" fill="none" xmlns="http://www.w3.org/2000/svg">
<g clip-path="url(#clip0_0_1222)">
<path d="M14.2805 24.2582L14.2649 24.2556C11.1336 20.2804 6.99975 15.0237 6.99975 11.472C6.99975 6.19422 10.6672 2.01956 15.7068 1.23102C15.1553 1.14259 14.5896 1.09595 14.0128 1.09595H13.9993C8.12952 1.09595 3.39062 5.85431 3.39062 11.7241C3.39062 15.2758 7.70408 21.3903 10.8354 25.3654C12.3456 27.2824 15.1563 27.4092 16.8427 25.7517C15.8739 25.6044 14.9495 25.1074 14.2805 24.2582Z" fill="#FCE31D"/>
<path d="M22.2866 3.43711C20.0811 1.22209 17.1428 0.00220474 14.0129 0.00220474H13.9994C7.69675 -0.126794 2.1674 5.42372 2.29716 11.7241C2.46214 16.1728 6.74197 21.8227 10.0748 26.1634C11.0536 27.3326 12.4798 28 14.0119 28C15.5977 28 17.0701 27.2854 18.0515 26.0395C20.524 22.967 25.8628 15.5771 25.7016 11.7239C25.7017 8.59182 24.4889 5.64885 22.2866 3.43711ZM16.3332 24.686C15.203 26.1769 12.8254 26.1796 11.6947 24.6886C7.17544 18.934 4.4844 14.1417 4.4844 11.724C4.4844 6.4667 8.7528 2.18961 13.9994 2.18961H14.0129C19.252 2.18961 23.5144 6.46675 23.5144 11.724C23.5144 14.168 20.8969 18.8925 16.3332 24.686Z" fill="#6A5F0C"/>
<path d="M14.1086 16.3524C11.5456 16.3524 9.46045 14.2672 9.46045 11.7043C9.46045 9.1413 11.5456 7.05615 14.1086 7.05615C16.6715 7.05615 18.7567 9.1413 18.7567 11.7043C18.7567 14.2672 16.6715 16.3524 14.1086 16.3524ZM14.1086 9.2435C12.7517 9.2435 11.6478 10.3474 11.6478 11.7043C11.6478 13.0611 12.7517 14.165 14.1086 14.165C15.4654 14.165 16.5693 13.0611 16.5693 11.7043C16.5693 10.3474 15.4655 9.2435 14.1086 9.2435Z" fill="#B3A115"/>
</g>
<defs>
<clipPath id="clip0_0_1222">
<rect width="28" height="28" fill="white"/>
</clipPath>
</defs>
</svg>
