<svg xmlns="http://www.w3.org/2000/svg" width="22" height="22" viewBox="0 0 22 22" fill="none">
  <g opacity="0.8" clip-path="url(#clip0_0_490)">
    <path d="M8.25 9.29736C8.25 10.0267 8.53973 10.7262 9.05546 11.2419C9.57118 11.7576 10.2707 12.0474 11 12.0474C11.7293 12.0474 12.4288 11.7576 12.9445 11.2419C13.4603 10.7262 13.75 10.0267 13.75 9.29736C13.75 8.56802 13.4603 7.86854 12.9445 7.35282C12.4288 6.83709 11.7293 6.54736 11 6.54736C10.2707 6.54736 9.57118 6.83709 9.05546 7.35282C8.53973 7.86854 8.25 8.56802 8.25 9.29736Z" stroke="white" stroke-width="1.17857" stroke-linecap="round" stroke-linejoin="round"/>
    <path d="M16.1855 14.483L12.2961 18.3724C11.9524 18.7158 11.4863 18.9087 11.0004 18.9087C10.5145 18.9087 10.0485 18.7158 9.70471 18.3724L5.81438 14.483C4.78883 13.4574 4.09044 12.1507 3.80751 10.7282C3.52458 9.3057 3.66983 7.83123 4.22488 6.49126C4.77994 5.15129 5.71987 4.006 6.92582 3.20022C8.13177 2.39444 9.54958 1.96436 11 1.96436C12.4503 1.96436 13.8682 2.39444 15.0741 3.20022C16.2801 4.006 17.22 5.15129 17.775 6.49126C18.3301 7.83123 18.4753 9.3057 18.1924 10.7282C17.9095 12.1507 17.2111 13.4574 16.1855 14.483Z" stroke="white" stroke-width="1.17857" stroke-linecap="round" stroke-linejoin="round"/>
  </g>
  <defs>
    <clipPath id="clip0_0_490">
      <rect width="22" height="22" fill="white"/>
    </clipPath>
  </defs>
</svg>