<svg width="23" height="23" viewBox="0 0 23 23" fill="none" xmlns="http://www.w3.org/2000/svg">
<g clip-path="url(#clip0_0_3874)">
<mask id="mask0_0_3874" style="mask-type:luminance" maskUnits="userSpaceOnUse" x="0" y="0" width="23" height="23">
<path d="M0 1.90735e-06H23V23H0V1.90735e-06Z" fill="white"/>
</mask>
<g mask="url(#mask0_0_3874)">
<path d="M3.59411 8.38337C3.55903 4.73072 6.19913 1.65937 9.66696 1.02058C9.22803 0.940529 8.77486 0.898438 8.31055 0.898438C4.20743 0.898438 0.859311 4.27301 0.898797 8.38337L0.898438 15.7227L1.02134 15.6104C1.71521 14.9165 2.65488 14.5646 3.59379 14.6031L3.59411 8.38337Z" fill="#FCE31D"/>
<path d="M8.31055 0.898436C4.20743 0.898436 0.85931 4.27297 0.898797 8.38336L0.898438 15.7227L1.0213 15.6104C2.06007 14.5715 3.64995 14.2978 4.96328 14.956C5.95736 15.4542 7.08216 15.7232 8.27748 15.7227C12.3575 15.7245 15.6831 12.4632 15.7223 8.38336C15.7618 4.27297 12.4799 0.898436 8.31055 0.898436Z" stroke="#6A5F0C" stroke-width="2" stroke-miterlimit="10" stroke-linecap="round" stroke-linejoin="round"/>
<path d="M19.0918 8.71484C20.9331 10.0818 22.1249 12.3002 22.1012 14.7623L22.1016 22.1016L21.9787 21.9893C20.9399 20.9504 19.3501 20.6767 18.0367 21.3349C17.0426 21.8331 15.9178 22.1021 14.7225 22.1016C12.2739 22.1027 10.1177 20.9579 8.75977 19.1367" stroke="#6A5F0C" stroke-width="2" stroke-miterlimit="10" stroke-linecap="round" stroke-linejoin="round"/>
<path d="M12.9375 8.35547C12.9375 8.97571 12.4347 9.47852 11.8145 9.47852C11.1942 9.47852 10.6914 8.97571 10.6914 8.35547C10.6914 7.73523 11.1942 7.23242 11.8145 7.23242C12.4347 7.23242 12.9375 7.73523 12.9375 8.35547Z" fill="#B3A115"/>
<path d="M9.38867 8.35547C9.38867 8.97571 8.88591 9.47852 8.26562 9.47852C7.64534 9.47852 7.14258 8.97571 7.14258 8.35547C7.14258 7.73523 7.64534 7.23242 8.26562 7.23242C8.88591 7.23242 9.38867 7.73523 9.38867 8.35547Z" fill="#B3A115"/>
<path d="M5.83984 8.35547C5.83984 8.97571 5.33708 9.47852 4.7168 9.47852C4.09652 9.47852 3.59375 8.97571 3.59375 8.35547C3.59375 7.73523 4.09652 7.23242 4.7168 7.23242C5.33708 7.23242 5.83984 7.73523 5.83984 8.35547Z" fill="#B3A115"/>
</g>
</g>
<defs>
<clipPath id="clip0_0_3874">
<rect width="23" height="23" fill="white"/>
</clipPath>
</defs>
</svg>
