<svg xmlns="http://www.w3.org/2000/svg" width="28" height="28" viewBox="0 0 28 28" fill="none">
  <g clip-path="url(#clip0_0_3915)">
    <path d="M4.375 16.4062V5.46875C4.375 3.05238 6.3338 1.09375 8.75 1.09375H5.46875C3.05255 1.09375 1.09375 3.05238 1.09375 5.46875V16.4062C1.09375 18.8225 3.05255 20.7812 5.46875 20.7812H8.75C6.3338 20.7812 4.375 18.8225 4.375 16.4062Z" fill="#FCE31D"/>
    <path d="M22.5312 0H5.46875C2.45328 0 0 2.45328 0 5.46875V16.4062C0 19.4217 2.45328 21.875 5.46875 21.875H22.5312C25.5467 21.875 28 19.4217 28 16.4062V5.46875C28 2.45328 25.5467 0 22.5312 0ZM25.8125 16.4062C25.8125 18.2155 24.3405 19.6875 22.5312 19.6875H5.46875C3.65947 19.6875 2.1875 18.2155 2.1875 16.4062V5.46875C2.1875 3.65947 3.65947 2.1875 5.46875 2.1875H22.5312C24.3405 2.1875 25.8125 3.65947 25.8125 5.46875V16.4062Z" fill="#6A5F0C"/>
    <path d="M14 23.625C13.3959 23.625 12.9062 24.1147 12.9062 24.7188V25.8125H9.625C9.02092 25.8125 8.53125 26.3022 8.53125 26.9062C8.53125 27.5103 9.02092 28 9.625 28H18.375C18.9791 28 19.4688 27.5103 19.4688 26.9062C19.4688 26.3022 18.9791 25.8125 18.375 25.8125H15.0938V24.7188C15.0938 24.1147 14.6041 23.625 14 23.625Z" fill="#6A5F0C"/>
    <path d="M22.5312 13.125H5.46875C4.86467 13.125 4.375 13.6147 4.375 14.2188C4.375 14.8228 4.86467 15.3125 5.46875 15.3125H22.5312C23.1353 15.3125 23.625 14.8228 23.625 14.2188C23.625 13.6147 23.1353 13.125 22.5312 13.125Z" fill="#B3A115"/>
  </g>
  <defs>
    <clipPath id="clip0_0_3915">
      <rect width="28" height="28" fill="white"/>
    </clipPath>
  </defs>
</svg>