<svg width="23" height="23" viewBox="0 0 23 23" fill="none" xmlns="http://www.w3.org/2000/svg">
<g clip-path="url(#clip0_0_583)">
<path d="M3.59375 11.5C3.59375 5.42706 8.1495 1.97499 11.6582 1.11366C11.3337 0.975209 10.9766 0.898438 10.6016 0.898438C7.09649 0.898438 0.898438 4.41658 0.898438 11.5C0.898438 17.4543 5.5457 22.1016 11.5 22.1016C11.9525 22.1016 12.3984 22.0734 12.8362 22.0193C7.54872 21.3734 3.59375 16.9929 3.59375 11.5Z" fill="#FCE31D"/>
<path d="M17.6094 7.39941V20.3045C17.6094 21.2969 18.4139 22.1014 19.4062 22.1014C20.3986 22.1014 21.2031 21.2969 21.2031 20.3045V7.39941" stroke="#6A5F0C" stroke-width="2" stroke-miterlimit="10" stroke-linecap="round" stroke-linejoin="round"/>
<path d="M14.3816 21.7121C13.4644 21.9659 12.498 22.1016 11.5 22.1016C5.5457 22.1016 0.898438 17.4543 0.898438 11.5C0.898438 4.41658 7.09649 0.898438 10.6016 0.898438C12.0901 0.898438 13.2969 2.10517 13.2969 3.59375C13.2969 4.00973 13.2026 4.40369 13.0344 4.75547L11.9375 6.86842C11.657 7.45474 11.5 8.11136 11.5 8.80469C11.5 11.8655 14.3815 14.2113 17.6094 12.9476" stroke="#6A5F0C" stroke-width="2" stroke-miterlimit="10" stroke-linecap="round" stroke-linejoin="round"/>
<path d="M10.6016 18.6875C11.5939 18.6875 12.3984 17.883 12.3984 16.8906C12.3984 15.8982 11.5939 15.0938 10.6016 15.0938C9.60918 15.0938 8.80469 15.8982 8.80469 16.8906C8.80469 17.883 9.60918 18.6875 10.6016 18.6875Z" stroke="#B3A115" stroke-width="2" stroke-miterlimit="10" stroke-linecap="round" stroke-linejoin="round"/>
<path d="M6.10938 13.2969C7.10176 13.2969 7.90625 12.4924 7.90625 11.5C7.90625 10.5076 7.10176 9.70312 6.10938 9.70312C5.11699 9.70312 4.3125 10.5076 4.3125 11.5C4.3125 12.4924 5.11699 13.2969 6.10938 13.2969Z" stroke="#B3A115" stroke-width="2" stroke-miterlimit="10" stroke-linecap="round" stroke-linejoin="round"/>
<circle cx="7.90625" cy="6.10938" r="0.898438" stroke="#6A5F0C" stroke-width="2" stroke-miterlimit="10" stroke-linecap="round" stroke-linejoin="round"/>
<path d="M22.1016 5.39062C22.1016 6.8792 20.8948 8.08594 19.4062 8.08594C17.9177 8.08594 16.7109 6.8792 16.7109 5.39062C16.7109 3.90205 19.4062 0.898438 19.4062 0.898438C19.4062 0.898438 22.1016 3.90205 22.1016 5.39062Z" stroke="#6A5F0C" stroke-width="2" stroke-miterlimit="10" stroke-linecap="round" stroke-linejoin="round"/>
</g>
<defs>
<clipPath id="clip0_0_583">
<rect width="23" height="23" fill="white"/>
</clipPath>
</defs>
</svg>
