<svg xmlns="http://www.w3.org/2000/svg" width="28" height="28" viewBox="0 0 28 28" fill="none">
  <g clip-path="url(#clip0_0_3956)">
    <path d="M12.9062 23.8438C12.9062 22.0079 14.0376 20.4372 15.6406 19.788C15.1338 19.5828 14.5804 19.4688 14 19.4688C11.5837 19.4688 9.625 21.4275 9.625 23.8438C9.625 25.0519 10.6044 26.0312 11.8125 26.0312H15.0938C13.8856 26.0312 12.9062 25.0519 12.9062 23.8438Z" fill="#FCE31D"/>
    <path d="M17.2812 15.0938C17.2812 13.2845 15.8093 11.8125 14 11.8125C12.1907 11.8125 10.7188 13.2845 10.7188 15.0938C10.7188 16.903 12.1907 18.375 14 18.375C15.8093 18.375 17.2812 16.903 17.2812 15.0938ZM14 16.1875C13.3969 16.1875 12.9062 15.6968 12.9062 15.0938C12.9062 14.4907 13.3969 14 14 14C14.6031 14 15.0938 14.4907 15.0938 15.0938C15.0938 15.6968 14.6031 16.1875 14 16.1875Z" fill="#6A5F0C"/>
    <path d="M22.5312 9.625C20.722 9.625 19.25 11.097 19.25 12.9062C19.25 14.7155 20.722 16.1875 22.5312 16.1875C24.3405 16.1875 25.8125 14.7155 25.8125 12.9062C25.8125 11.097 24.3405 9.625 22.5312 9.625ZM22.5312 14C21.9282 14 21.4375 13.5093 21.4375 12.9062C21.4375 12.3032 21.9282 11.8125 22.5312 11.8125C23.1343 11.8125 23.625 12.3032 23.625 12.9062C23.625 13.5093 23.1343 14 22.5312 14Z" fill="#6A5F0C"/>
    <path d="M5.46875 16.1875C7.27803 16.1875 8.75 14.7155 8.75 12.9062C8.75 11.097 7.27803 9.625 5.46875 9.625C3.65947 9.625 2.1875 11.097 2.1875 12.9062C2.1875 14.7155 3.65947 16.1875 5.46875 16.1875ZM5.46875 11.8125C6.07184 11.8125 6.5625 12.3032 6.5625 12.9062C6.5625 13.5093 6.07184 14 5.46875 14C4.86566 14 4.375 13.5093 4.375 12.9062C4.375 12.3032 4.86566 11.8125 5.46875 11.8125Z" fill="#6A5F0C"/>
    <path d="M3.28125 24.9373H8.71938C9.17088 26.2103 10.3866 27.1248 11.8125 27.1248H16.1875C17.6134 27.1248 18.8291 26.2103 19.2806 24.9373H24.7188C26.3891 24.9373 27.772 23.6826 27.9745 22.0662C27.9912 21.9902 28 21.9112 28 21.8301C28 21.8301 28 21.8301 28 21.83V21.6558C28 21.6111 27.9973 21.5671 27.9921 21.5238C27.8605 18.9884 26.1075 16.8245 23.7267 16.315C22.3076 16.0113 20.8609 16.2564 19.6531 17.0052C19.1397 17.3234 18.9815 17.9976 19.2998 18.511C19.618 19.0244 20.2921 19.1827 20.8057 18.8644C21.5306 18.415 22.4055 18.2693 23.269 18.4541C24.7089 18.7622 25.763 20.1243 25.8108 21.7169C25.7791 22.2918 25.3014 22.7498 24.7188 22.7498H19.3588C18.8507 20.2566 16.641 18.3748 14 18.3748C11.359 18.3748 9.14933 20.2566 8.64123 22.7498H3.28125C2.69872 22.7498 2.22102 22.292 2.1892 21.7173C2.23699 20.1246 3.29109 18.7623 4.73102 18.4541C5.59459 18.2693 6.46942 18.415 7.19436 18.8644C7.70771 19.1827 8.38195 19.0245 8.70029 18.5111C9.01852 17.9977 8.86036 17.3234 8.34695 17.0052C7.13913 16.2565 5.69226 16.0114 4.27323 16.3151C1.89268 16.8245 0.139727 18.9882 0.00798437 21.5234C0.00267969 21.5669 0 21.6112 0 21.656V21.8302C0 21.9111 0.00880469 21.99 0.0254844 22.066C0.227883 23.6826 1.61077 24.9373 3.28125 24.9373ZM14 20.5623C15.8093 20.5623 17.2812 22.0342 17.2812 23.8435C17.2812 24.4466 16.7906 24.9373 16.1875 24.9373H11.8125C11.2094 24.9373 10.7188 24.4466 10.7188 23.8435C10.7188 22.0342 12.1907 20.5623 14 20.5623Z" fill="#6A5F0C"/>
    <path d="M5.24967 0.875C4.6456 0.875 4.15592 1.36467 4.15592 1.96875V2.65081L3.50722 2.44005C2.93267 2.25334 2.31569 2.5678 2.12904 3.14229C1.94234 3.71678 2.25674 4.33382 2.83128 4.52052L3.47999 4.73129L3.07907 5.28309C2.72399 5.77177 2.83232 6.4558 3.32101 6.81084C3.80756 7.16434 4.49214 7.05972 4.84876 6.56884L5.24967 6.01705L5.65059 6.5689C6.00671 7.05901 6.69096 7.16494 7.17834 6.81084C7.66703 6.4558 7.77536 5.77177 7.42027 5.28309L7.01936 4.73129L7.66806 4.52052C8.24256 4.33387 8.55695 3.71678 8.37031 3.14234C8.18366 2.56785 7.56662 2.25345 6.99213 2.4401L6.34342 2.65087V1.96875C6.34342 1.36473 5.85375 0.875 5.24967 0.875Z" fill="#6A5F0C"/>
    <path d="M23.8434 1.96875C23.8434 1.36467 23.3538 0.875 22.7497 0.875C22.1456 0.875 21.6559 1.36467 21.6559 1.96875V2.65081L21.0072 2.44005C20.4326 2.25334 19.8157 2.5678 19.629 3.14229C19.4423 3.71678 19.7567 4.33382 20.3313 4.52052L20.98 4.73129L20.5791 5.28309C20.224 5.77177 20.3323 6.4558 20.821 6.81084C21.3076 7.16434 21.9921 7.05972 22.3488 6.56884L22.7497 6.01705L23.1506 6.5689C23.5067 7.05901 24.191 7.16494 24.6783 6.81084C25.167 6.4558 25.2754 5.77177 24.9203 5.28309L24.5194 4.73129L25.1681 4.52052C25.7426 4.33387 26.057 3.71678 25.8703 3.14234C25.6837 2.56785 25.0666 2.25345 24.4921 2.4401L23.8434 2.65087V1.96875Z" fill="#6A5F0C"/>
    <path d="M17.1203 3.14229C16.9337 2.5678 16.3165 2.2534 15.7421 2.44005L15.0934 2.65087V1.96875C15.0934 1.36467 14.6038 0.875 13.9997 0.875C13.3956 0.875 12.9059 1.36467 12.9059 1.96875V2.65081L12.2572 2.44005C11.6826 2.25334 11.0657 2.5678 10.879 3.14229C10.6923 3.71678 11.0067 4.33382 11.5813 4.52052L12.23 4.73129L11.8291 5.28309C11.474 5.77177 11.5823 6.4558 12.071 6.81084C12.5576 7.16434 13.2421 7.05972 13.5988 6.56884L13.9997 6.01705L14.4006 6.5689C14.7567 7.05901 15.441 7.16494 15.9283 6.81084C16.417 6.4558 16.5254 5.77177 16.1703 5.28309L15.7694 4.73129L16.4181 4.52052C16.9926 4.33387 17.307 3.71678 17.1203 3.14229Z" fill="#B3A115"/>
  </g>
  <defs>
    <clipPath id="clip0_0_3956">
      <rect width="28" height="28" fill="white"/>
    </clipPath>
  </defs>
</svg>