<svg width="34" height="34" viewBox="0 0 34 34" fill="none" xmlns="http://www.w3.org/2000/svg">
<path d="M7.96875 30.0156V23.375C7.96875 22.3794 8.33392 21.4691 8.93755 20.7707L13.9271 14.9982C14.0642 14.8396 14.2203 14.6981 14.391 14.5756C14.3604 14.4144 14.3438 14.2483 14.3438 14.0781H11.9531C11.1498 14.0781 10.4298 14.4347 9.94274 14.9982L4.95318 20.7707C4.34954 21.4691 3.98438 22.3794 3.98438 23.375V30.0156C3.98438 31.4826 5.17364 32.6719 6.64062 32.6719H10.625C9.15802 32.6719 7.96875 31.4826 7.96875 30.0156Z" fill="#FCE31D"/>
<path d="M30.0156 30.0156C30.0156 31.4826 28.8264 32.6719 27.3594 32.6719H6.64062C5.17364 32.6719 3.98438 31.4826 3.98438 30.0156V23.375C3.98438 22.3794 4.34948 21.4691 4.95318 20.7707L9.94274 14.9982C10.4298 14.4347 11.1498 14.0781 11.9531 14.0781H14.3438C14.3438 15.5451 15.533 16.7344 17 16.7344C18.467 16.7344 19.6562 15.5451 19.6562 14.0781H22.0469C22.8502 14.0781 23.5702 14.4347 24.0573 14.9983L29.0468 20.7708C29.6505 21.4691 30.0156 22.3794 30.0156 23.375" stroke="#6A5F0C" stroke-width="2.5" stroke-miterlimit="10" stroke-linecap="round" stroke-linejoin="round"/>
<path d="M17 27.3594C18.467 27.3594 19.6562 26.1701 19.6562 24.7031C19.6562 23.2361 18.467 22.0469 17 22.0469C15.533 22.0469 14.3438 23.2361 14.3438 24.7031C14.3438 26.1701 15.533 27.3594 17 27.3594Z" stroke="#B3A115" stroke-width="2.5" stroke-miterlimit="10" stroke-linecap="round" stroke-linejoin="round"/>
<path d="M1.32812 6.64062C1.32812 8.10761 2.51739 9.29688 3.98438 9.29688H7.96875C9.43573 9.29688 10.625 8.10761 10.625 6.64062C10.625 3.7066 13.0035 1.32812 15.9375 1.32812H18.0625C20.9965 1.32812 23.375 3.7066 23.375 6.64062C23.375 8.10761 24.5643 9.29688 26.0312 9.29688H30.0156C31.4826 9.29688 32.6719 8.10761 32.6719 6.64062C32.6719 3.7066 30.2934 1.32812 27.3594 1.32812H6.64062C3.7066 1.32812 1.32812 3.7066 1.32812 6.64062Z" stroke="#6A5F0C" stroke-width="2.5" stroke-miterlimit="10" stroke-linecap="round" stroke-linejoin="round"/>
</svg>
