<svg width="28" height="28" viewBox="0 0 28 28" fill="none" xmlns="http://www.w3.org/2000/svg">
<path d="M6.34985 10.9606C6.34985 10.9606 6.34985 10.0694 6.34985 9.07549C6.34985 8.22292 6.85911 7.4787 7.62573 7.1056C9.19805 6.34056 10.4163 4.8201 10.6751 2.95961C10.8242 1.88765 11.7423 1.09283 12.8246 1.09277H9.54611C8.46383 1.09277 7.54563 1.88759 7.39651 2.95961C7.13773 4.8201 5.91949 6.34056 4.34717 7.1056C3.5805 7.47864 3.07129 8.22286 3.07129 9.07549V10.9606C3.07129 17.7384 7.0056 23.8651 13.0926 26.7093C13.6606 26.9747 14.3386 26.9747 14.9066 26.7093C15.1544 26.5935 15.3983 26.4717 15.6389 26.3452C9.97068 23.3647 6.34985 17.4624 6.34985 10.9606Z" fill="#FCE31D"/>
<path d="M24.1322 6.12211C22.818 5.47958 21.8803 4.20823 21.6852 2.80421C21.463 1.20551 20.0739 0 18.4539 0H9.54612C7.92632 0 6.53689 1.20769 6.31417 2.80913C6.11571 4.23577 5.20172 5.47461 3.86917 6.12299C2.70296 6.69044 1.97852 7.82174 1.97852 9.07555V10.9607C1.97852 18.1474 6.14271 24.6682 12.63 27.6994C13.0589 27.8998 13.5292 27.9999 13.9997 27.9999C14.47 27.9999 14.9406 27.8997 15.3693 27.6994C21.8545 24.6692 26.0209 18.15 26.0209 10.9607V9.07572C26.0209 7.82344 25.2971 6.69164 24.1322 6.12211ZM23.8352 10.9607C23.8352 17.2606 20.149 23.0537 14.4441 25.7193C14.17 25.8474 13.8294 25.8473 13.5553 25.7193C7.85042 23.0537 4.16418 17.2606 4.16418 10.9607V9.07555C4.16418 8.66508 4.41756 8.2868 4.82546 8.08834C6.8142 7.12063 8.18008 5.25965 8.47902 3.11021C8.55224 2.58313 9.01107 2.18567 9.54612 2.18567H18.4539C18.989 2.18567 19.4475 2.58089 19.5204 3.10507C19.8188 5.25162 21.1839 7.11348 23.1721 8.08561C23.5811 8.2856 23.8352 8.66497 23.8352 9.07577V10.9607Z" fill="#6A5F0C"/>
<path d="M12.9064 8.71202C11.6344 9.16314 10.7207 10.3779 10.7207 11.8026C10.7207 13.6103 12.1914 15.0811 13.9992 15.0811C14.6018 15.0811 15.092 15.5713 15.092 16.1739C15.092 16.7765 14.6018 17.2667 13.9992 17.2667H11.8135C11.21 17.2667 10.7207 17.756 10.7207 18.3596C10.7207 18.9631 11.21 19.4524 11.8135 19.4524H12.9064V20.5452C12.9064 21.1488 13.3956 21.6381 13.9992 21.6381C14.6028 21.6381 15.092 21.1488 15.092 20.5452V19.2644C16.364 18.8133 17.2777 17.5986 17.2777 16.1739C17.2777 14.3661 15.807 12.8954 13.9992 12.8954C13.3966 12.8954 12.9064 12.4051 12.9064 11.8026C12.9064 11.2 13.3966 10.7097 13.9992 10.7097H16.1849C16.7884 10.7097 17.2777 10.2205 17.2777 9.61688C17.2777 9.01331 16.7884 8.52405 16.1849 8.52405H15.092V7.43121C15.092 6.82764 14.6028 6.33838 13.9992 6.33838C13.3956 6.33838 12.9064 6.82764 12.9064 7.43121V8.71202Z" fill="#B3A115"/>
</svg>
