<svg width="34" height="34" viewBox="0 0 34 34" fill="none" xmlns="http://www.w3.org/2000/svg">
<g clip-path="url(#clip0_0_2763)">
<path d="M6.28571 25.9432V13.8278C6.28571 10.4822 8.84407 5.00085 12 5.00085L7.71429 7.77009C4.55836 7.77009 2 10.4822 2 13.8278V25.9432C2 29.2887 4.55836 32.0009 7.71429 32.0009H12C8.84407 32.0009 6.28571 29.2887 6.28571 25.9432Z" fill="#FCE31D"/>
<path d="M30.6386 8.91458L20.6896 1.25493C18.5166 -0.417171 15.4822 -0.417171 13.3116 1.25493L3.3602 8.91577C1.88271 10.0542 1 11.8485 1 13.7151V27.9457C1 31.284 3.71447 34.0009 7.04978 34.0009H26.9503C30.2856 34.0009 33 31.284 33 27.9457V13.7151C33 11.8485 32.1173 10.0542 30.6386 8.91458ZM26.9503 31.5722H7.04978C5.05215 31.5722 3.42654 29.9451 3.42654 27.9457V13.7151C3.42654 12.5968 3.95499 11.5223 4.84006 10.8405L14.7915 3.18081C15.4408 2.67918 16.2204 2.42896 17 2.42896C17.7796 2.42896 18.5593 2.67918 19.2097 3.18081L29.1588 10.8393C30.045 11.5223 30.5735 12.5968 30.5735 13.7151V27.9457C30.5735 29.9451 28.9479 31.5722 26.9503 31.5722Z" fill="#6A5F0C"/>
<path d="M17 10.0009C12.0371 10.0009 8 14.2622 8 19.5009C8 24.7395 12.0371 29.0009 17 29.0009C21.9629 29.0009 26 24.7395 26 19.5009C26 14.2622 21.9629 10.0009 17 10.0009ZM17 26.4675C13.3613 26.4675 10.4 23.3417 10.4 19.5009C10.4 15.66 13.3613 12.5342 17 12.5342C20.6387 12.5342 23.6 15.66 23.6 19.5009C23.6 23.3417 20.6387 26.4675 17 26.4675Z" fill="#B3A115"/>
<path d="M18.8566 16.3386L16.0122 18.9474L15.3189 17.9509C14.9353 17.3991 14.1521 17.2466 13.5699 17.6086C12.9864 17.9695 12.8249 18.7087 13.2072 19.2594L14.7404 21.463C14.9477 21.7599 15.2844 21.9555 15.6581 21.9939C15.705 21.9985 15.7507 22.0009 15.7963 22.0009C16.1232 22.0009 16.4402 21.881 16.677 21.6633L20.618 18.0475C21.1175 17.5889 21.1286 16.8345 20.6426 16.3619C20.1554 15.8916 19.3574 15.8776 18.8566 16.3386Z" fill="#B3A115"/>
</g>
<defs>
<clipPath id="clip0_0_2763">
<rect width="34" height="34" fill="white"/>
</clipPath>
</defs>
</svg>
