<svg width="34" height="34" viewBox="0 0 34 34" fill="none" xmlns="http://www.w3.org/2000/svg">
<g clip-path="url(#clip0_0_4441)">
<path d="M15.6719 28.9531C15.6719 26.7239 17.0456 24.8165 18.9922 24.0282C18.3768 23.7791 17.7048 23.6406 17 23.6406C14.066 23.6406 11.6875 26.0191 11.6875 28.9531C11.6875 30.4201 12.8768 31.6094 14.3438 31.6094H18.3281C16.8611 31.6094 15.6719 30.4202 15.6719 28.9531Z" fill="#FCE31D"/>
<path d="M20.9844 18.3281C20.9844 16.1311 19.197 14.3438 17 14.3438C14.803 14.3438 13.0156 16.1311 13.0156 18.3281C13.0156 20.5251 14.803 22.3125 17 22.3125C19.197 22.3125 20.9844 20.5251 20.9844 18.3281ZM17 19.6562C16.2677 19.6562 15.6719 19.0605 15.6719 18.3281C15.6719 17.5958 16.2677 17 17 17C17.7323 17 18.3281 17.5958 18.3281 18.3281C18.3281 19.0605 17.7323 19.6562 17 19.6562Z" fill="#6A5F0C"/>
<path d="M27.3594 11.6875C25.1624 11.6875 23.375 13.4749 23.375 15.6719C23.375 17.8689 25.1624 19.6562 27.3594 19.6562C29.5564 19.6562 31.3438 17.8689 31.3438 15.6719C31.3438 13.4749 29.5564 11.6875 27.3594 11.6875ZM27.3594 17C26.627 17 26.0312 16.4042 26.0312 15.6719C26.0312 14.9395 26.627 14.3438 27.3594 14.3438C28.0917 14.3438 28.6875 14.9395 28.6875 15.6719C28.6875 16.4042 28.0917 17 27.3594 17Z" fill="#6A5F0C"/>
<path d="M6.64062 19.6562C8.83761 19.6562 10.625 17.8689 10.625 15.6719C10.625 13.4749 8.83761 11.6875 6.64062 11.6875C4.44364 11.6875 2.65625 13.4749 2.65625 15.6719C2.65625 17.8689 4.44364 19.6562 6.64062 19.6562ZM6.64062 14.3438C7.37295 14.3438 7.96875 14.9395 7.96875 15.6719C7.96875 16.4042 7.37295 17 6.64062 17C5.9083 17 5.3125 16.4042 5.3125 15.6719C5.3125 14.9395 5.9083 14.3438 6.64062 14.3438Z" fill="#6A5F0C"/>
<path d="M3.98438 30.2813H10.5878C11.1361 31.8271 12.6123 32.9376 14.3438 32.9376H19.6562C21.3877 32.9376 22.8639 31.8271 23.4122 30.2813H30.0156C32.0439 30.2813 33.7232 28.7578 33.969 26.7951C33.9893 26.7028 34 26.6068 34 26.5084C34 26.5084 34 26.5084 34 26.5082V26.2967C34 26.2424 33.9967 26.189 33.9904 26.1365C33.8307 23.0577 31.7019 20.4301 28.811 19.8115C27.0878 19.4427 25.3311 19.7403 23.8645 20.6495C23.2411 21.036 23.0489 21.8546 23.4354 22.4781C23.8218 23.1015 24.6404 23.2936 25.2641 22.9071C26.1443 22.3614 27.2067 22.1845 28.2552 22.4089C30.0036 22.7831 31.2836 24.4371 31.3417 26.3709C31.3032 27.069 30.7231 27.6251 30.0156 27.6251H23.5071C22.8901 24.5977 20.2069 22.3126 17 22.3126C13.7931 22.3126 11.1099 24.5977 10.4929 27.6251H3.98438C3.27702 27.6251 2.69696 27.0692 2.65831 26.3713C2.71635 24.4374 3.99633 22.7831 5.7448 22.4089C6.79343 22.1846 7.85573 22.3615 8.73601 22.9072C9.35936 23.2937 10.1781 23.1016 10.5646 22.4781C10.9511 21.8547 10.759 21.036 10.1356 20.6496C8.66894 19.7404 6.91203 19.4428 5.18892 19.8115C2.29825 20.4302 0.169668 23.0575 0.00969531 26.136C0.00325391 26.1888 0 26.2425 0 26.297V26.5085C0 26.6067 0.0106914 26.7026 0.0309453 26.7948C0.276715 28.7578 1.95593 30.2813 3.98438 30.2813ZM17 24.9688C19.197 24.9688 20.9844 26.7562 20.9844 28.9532C20.9844 29.6855 20.3886 30.2813 19.6562 30.2813H14.3438C13.6114 30.2813 13.0156 29.6855 13.0156 28.9532C13.0156 26.7562 14.803 24.9688 17 24.9688Z" fill="#6A5F0C"/>
<path d="M6.37425 1.0625C5.64073 1.0625 5.04613 1.6571 5.04613 2.39062V3.21884L4.25842 2.96291C3.56075 2.7362 2.81156 3.11804 2.58491 3.81564C2.3582 4.51323 2.73997 5.2625 3.43764 5.48921L4.22535 5.74514L3.73852 6.41518C3.30735 7.00858 3.4389 7.83919 4.03231 8.2703C4.62312 8.69955 5.4544 8.57251 5.88743 7.97645L6.37425 7.30641L6.86108 7.97652C7.29352 8.57165 8.12439 8.70028 8.7162 8.2703C9.30961 7.83919 9.44116 7.00858 9.00998 6.41518L8.52316 5.74514L9.31087 5.48921C10.0085 5.26256 10.3902 4.51323 10.1636 3.8157C9.93695 3.11811 9.18769 2.73634 8.49009 2.96298L7.70238 3.21891V2.39062C7.70238 1.65717 7.10778 1.0625 6.37425 1.0625Z" fill="#6A5F0C"/>
<path d="M28.9524 2.39062C28.9524 1.6571 28.3578 1.0625 27.6243 1.0625C26.8907 1.0625 26.2961 1.6571 26.2961 2.39062V3.21884L25.5084 2.96291C24.8106 2.7362 24.0616 3.11804 23.8349 3.81564C23.6082 4.51323 23.99 5.2625 24.6876 5.48921L25.4753 5.74514L24.9885 6.41518C24.5573 7.00858 24.6889 7.83919 25.2823 8.2703C25.8731 8.69955 26.7044 8.57251 27.1374 7.97645L27.6243 7.30641L28.1111 7.97652C28.5435 8.57165 29.3744 8.70028 29.9662 8.2703C30.5596 7.83919 30.6912 7.00858 30.26 6.41518L29.7732 5.74514L30.5609 5.48921C31.2585 5.26256 31.6402 4.51323 31.4136 3.8157C31.1869 3.11811 30.4376 2.73634 29.7401 2.96298L28.9524 3.21891V2.39062Z" fill="#6A5F0C"/>
<path d="M20.7886 3.81564C20.562 3.11804 19.8126 2.73627 19.1151 2.96291L18.3274 3.21891V2.39062C18.3274 1.6571 17.7328 1.0625 16.9993 1.0625C16.2657 1.0625 15.6711 1.6571 15.6711 2.39062V3.21884L14.8834 2.96291C14.1856 2.7362 13.4366 3.11804 13.2099 3.81564C12.9832 4.51323 13.365 5.2625 14.0626 5.48921L14.8503 5.74514L14.3635 6.41518C13.9323 7.00858 14.0639 7.83919 14.6573 8.2703C15.2481 8.69955 16.0794 8.57251 16.5124 7.97645L16.9993 7.30641L17.4861 7.97652C17.9185 8.57165 18.7494 8.70028 19.3412 8.2703C19.9346 7.83919 20.0662 7.00858 19.635 6.41518L19.1482 5.74514L19.9359 5.48921C20.6335 5.26256 21.0153 4.51323 20.7886 3.81564Z" fill="#B3A115"/>
</g>
<defs>
<clipPath id="clip0_0_4441">
<rect width="34" height="34" fill="white"/>
</clipPath>
</defs>
</svg>
