<svg width="23" height="23" viewBox="0 0 23 23" fill="none" xmlns="http://www.w3.org/2000/svg">
<g clip-path="url(#clip0_0_660)">
<path d="M5.39062 20.3047V15.8125C5.39062 15.139 5.63765 14.5232 6.04599 14.0508L9.42129 10.1458C9.514 10.0386 9.61962 9.94283 9.73506 9.85999C9.7144 9.75092 9.70312 9.63853 9.70312 9.52344H8.08594C7.54252 9.52344 7.05547 9.76467 6.72597 10.1458L3.35068 14.0508C2.94234 14.5232 2.69531 15.139 2.69531 15.8125V20.3047C2.69531 21.2971 3.49982 22.1016 4.49219 22.1016H7.1875C6.19513 22.1016 5.39062 21.2971 5.39062 20.3047Z" fill="#FCE31D"/>
<path d="M20.3047 20.3047C20.3047 21.2971 19.5002 22.1016 18.5078 22.1016H4.49219C3.49982 22.1016 2.69531 21.2971 2.69531 20.3047V15.8125C2.69531 15.139 2.94229 14.5232 3.35068 14.0508L6.72597 10.1458C7.05547 9.76467 7.54252 9.52344 8.08594 9.52344H9.70312C9.70312 10.5158 10.5076 11.3203 11.5 11.3203C12.4924 11.3203 13.2969 10.5158 13.2969 9.52344H14.9141C15.4575 9.52344 15.9445 9.76467 16.274 10.1459L19.6493 14.0508C20.0577 14.5232 20.3047 15.139 20.3047 15.8125" stroke="#6A5F0C" stroke-width="2.1875" stroke-miterlimit="10" stroke-linecap="round" stroke-linejoin="round"/>
<path d="M11.5 18.5078C12.4924 18.5078 13.2969 17.7033 13.2969 16.7109C13.2969 15.7186 12.4924 14.9141 11.5 14.9141C10.5076 14.9141 9.70312 15.7186 9.70312 16.7109C9.70312 17.7033 10.5076 18.5078 11.5 18.5078Z" stroke="#B3A115" stroke-width="2.1875" stroke-miterlimit="10" stroke-linecap="round" stroke-linejoin="round"/>
<path d="M0.898438 4.49219C0.898438 5.48456 1.70294 6.28906 2.69531 6.28906H5.39062C6.38299 6.28906 7.1875 5.48456 7.1875 4.49219C7.1875 2.5074 8.79647 0.898438 10.7812 0.898438H12.2188C14.2035 0.898438 15.8125 2.5074 15.8125 4.49219C15.8125 5.48456 16.617 6.28906 17.6094 6.28906H20.3047C21.2971 6.28906 22.1016 5.48456 22.1016 4.49219C22.1016 2.5074 20.4926 0.898438 18.5078 0.898438H4.49219C2.5074 0.898438 0.898438 2.5074 0.898438 4.49219Z" stroke="#6A5F0C" stroke-width="2.1875" stroke-miterlimit="10" stroke-linecap="round" stroke-linejoin="round"/>
</g>
<defs>
<clipPath id="clip0_0_660">
<rect width="23" height="23" fill="white"/>
</clipPath>
</defs>
</svg>
