<svg width="228" height="283" viewBox="0 0 228 283" fill="none" xmlns="http://www.w3.org/2000/svg">
<path d="M71.8387 152.187C72.3843 152.452 72.4396 152.805 72.7068 153.338L72.6068 153.659C72.1065 153.622 71.6673 153.574 71.1873 153.424L71.1426 153.105L71.8387 152.187Z" fill="#FAAE25"/>
<path d="M188.881 253.125L190.013 250.806L191.333 253.12L188.881 253.125Z" fill="#FAAE25"/>
<path d="M0.352081 179.019C-0.00637916 178.07 -0.127929 177.241 0.161394 176.245C0.421153 175.352 1.14907 174.497 1.99176 174.102C2.99195 173.635 3.94683 173.73 4.96763 174.084L4.5233 174.71C3.42599 174.57 2.72191 174.558 1.81042 175.259C1.32106 175.635 0.917891 176.235 0.841708 176.857C0.792192 177.262 0.832687 177.693 0.854219 178.099L0.452959 177.957L0.352081 179.019Z" fill="#F79022"/>
<path d="M4.96717 174.084C5.86932 174.716 6.72227 175.43 6.93897 176.577C7.129 177.582 6.94121 178.639 6.3326 179.465C5.841 180.132 5.23753 180.482 4.47301 180.749L4.26111 180.828C3.46604 181.1 2.33396 180.783 1.61961 180.367C1.1309 180.083 0.627453 179.511 0.351562 179.019L0.452504 177.957L0.853764 178.099C1.11675 178.579 1.39422 179.028 1.82313 179.38C2.48 179.92 3.16256 180.074 3.99556 179.974C4.67173 179.892 5.38252 179.451 5.77253 178.893C6.21843 178.255 6.31074 177.48 6.17602 176.728C6.00693 175.781 5.27289 175.219 4.52285 174.71L4.96717 174.084Z" fill="#E6700A"/>
<path d="M0.854455 178.099C0.832924 177.693 0.792429 177.262 0.841944 176.857C0.918127 176.235 1.3213 175.635 1.81066 175.259C2.72215 174.558 3.42623 174.57 4.52354 174.71C5.27365 175.219 6.00763 175.781 6.17672 176.728C6.31143 177.48 6.21919 178.255 5.77322 178.893C5.38322 179.451 4.67235 179.892 3.99626 179.974C3.16325 180.074 2.48063 179.92 1.82383 179.38C1.39491 179.028 1.11744 178.579 0.854455 178.099Z" fill="white"/>
<path d="M184.012 48.1253C184.366 48.1028 184.719 48.087 185.062 48.1957C185.974 48.4844 186.738 49.1965 187.113 50.0727C187.424 50.8009 187.382 51.6493 187.038 52.3589C186.588 53.2887 185.784 53.7224 184.874 54.0803C184.462 54.0909 184.039 54.1051 183.643 53.9748C182.824 53.7067 182.09 53.1177 181.715 52.3316C181.412 51.6944 181.452 50.6225 181.729 49.9727C182.167 48.947 183.035 48.5162 184.012 48.1253Z" fill="#E6700A"/>
<path d="M183.822 49.1L184.679 49.0695C185.222 49.1174 185.791 49.4701 186.11 49.9131C186.43 50.3575 186.529 50.9339 186.435 51.467C186.29 52.2888 185.763 52.6888 185.097 53.1131L184.036 53.1154C183.543 53.0453 183.003 52.6405 182.726 52.2293C182.429 51.7898 182.287 51.2577 182.405 50.7343C182.596 49.888 183.131 49.5579 183.822 49.1Z" fill="white"/>
<path d="M119.686 40.1541L119.781 39.8892C122.681 37.538 124.397 33.9837 125.086 30.3777L126.667 29.9893C126.956 32.6781 127.298 35.1923 125.514 37.4828C124.144 39.2414 122.043 39.9163 119.908 40.1336L119.686 40.1541Z" fill="#211E63"/>
<path d="M193.412 179.498C193.949 179.467 194.541 179.404 195.07 179.512C196.121 179.727 196.917 180.265 197.456 181.193C197.847 181.866 198.066 182.75 197.832 183.511C197.466 184.697 196.473 185.445 195.417 185.978C194.927 186.082 194.182 186.13 193.681 186.02C192.779 185.82 191.83 185.004 191.397 184.203C190.947 183.369 190.952 182.43 191.267 181.554C191.645 180.503 192.444 179.956 193.412 179.498Z" fill="#83BD46"/>
<path d="M22.4149 52.8189C22.9714 52.7817 23.6372 52.7225 24.1828 52.855C25.1615 53.0923 25.9768 53.7902 26.4331 54.6763C26.8723 55.5289 26.9674 56.4986 26.6453 57.4136C26.272 58.4737 25.2319 59.1571 24.2803 59.6414C23.7337 59.7069 23.0248 59.7886 22.4869 59.6545C21.5079 59.4108 20.6704 58.7729 20.2045 57.8772C19.7933 57.087 19.6605 56.0643 19.9583 55.2122C20.3884 53.9818 21.2671 53.3331 22.4149 52.8189Z" fill="#F13B42"/>
<path d="M23.2585 54.2301C23.9215 54.3786 24.5185 54.5616 24.8927 55.1773C25.1506 55.6007 25.2647 56.5122 25.0657 56.9723C24.741 57.7243 24.1243 57.9458 23.3964 58.1911C23.164 58.1455 22.9386 58.0963 22.718 58.0066C22.1689 57.7834 21.7448 57.3828 21.5352 56.8199C21.3748 56.3888 21.4049 55.8775 21.5966 55.4619C21.932 54.7352 22.5438 54.477 23.2585 54.2301Z" fill="white"/>
<path d="M20.6755 111.812C21.4767 111.779 22.2682 111.914 22.9604 112.338C23.7883 112.845 24.4674 113.837 24.6558 114.789C24.8339 115.692 24.6445 116.777 24.0857 117.519C23.3745 118.463 22.6557 118.772 21.5275 118.975C20.8938 118.93 20.3196 118.897 19.7316 118.633C18.8353 118.232 18.1642 117.54 17.8251 116.61C17.5026 115.726 17.6566 114.747 18.0424 113.907C18.5876 112.717 19.5264 112.254 20.6755 111.812Z" fill="#F13B42"/>
<path d="M214.008 78.3616C214.685 78.2935 215.568 78.2144 216.218 78.4426C217.095 78.7509 217.926 79.4463 218.34 80.2813C218.835 81.2825 218.91 82.1271 218.538 83.1685C218.143 84.2745 217.18 84.9358 216.163 85.412C215.483 85.5505 214.936 85.6383 214.259 85.4236C213.116 85.0612 212.252 84.4163 211.734 83.3209C211.327 82.4611 211.352 81.5046 211.683 80.6237C212.125 79.4451 212.926 78.8959 214.008 78.3616Z" fill="#F79022"/>
<path d="M49.0369 16.8035C49.6645 16.7878 50.4075 16.8511 50.9814 17.1144C51.8089 17.4942 52.6024 18.277 52.914 19.1412C53.2629 20.1096 53.1754 21.1937 52.7069 22.1013C52.1247 23.2302 51.1393 23.686 49.9921 24.042C49.2205 24.0214 48.4872 23.9285 47.7895 23.5687C46.8487 23.0835 46.1263 22.2238 45.8511 21.1937C45.6109 20.2951 45.8325 19.1772 46.3321 18.4018C46.9934 17.3751 47.9059 17.0652 49.0369 16.8035Z" fill="#83BD46"/>
<path d="M166.329 197.171C166.913 197.154 167.554 197.103 168.111 197.302C169.078 197.647 170.064 198.461 170.449 199.428C170.797 200.301 170.819 201.331 170.403 202.184C169.825 203.369 168.828 203.935 167.647 204.383C166.894 204.408 166.215 204.39 165.507 204.102C164.686 203.77 163.945 203.04 163.605 202.222C163.214 201.283 163.148 200.369 163.556 199.418C164.095 198.163 165.106 197.613 166.329 197.171Z" fill="#F13B42"/>
<path d="M166.259 198.893L167.286 198.92C167.779 198.991 168.251 199.32 168.536 199.724C168.845 200.164 168.946 200.699 168.818 201.222C168.658 201.879 168.196 202.204 167.647 202.536C167.351 202.575 167.044 202.629 166.744 202.591C166.238 202.527 165.785 202.265 165.479 201.859C165.131 201.397 165.006 200.886 165.106 200.314C165.227 199.621 165.718 199.276 166.259 198.893Z" fill="white"/>
<path d="M192.826 239.095C193.25 239.584 193.379 240.098 193.748 240.609L197.239 247.463L194.197 251.732C193.933 252.087 193.361 253.058 192.918 253.157C192.558 253.237 192.344 253.149 192 253.051C191.268 252.274 190.774 251.257 190.201 250.358C191.994 246.939 192.836 243.185 192.779 239.318L192.826 239.095Z" fill="#FAAE25"/>
<path d="M176.055 242.402L176.071 240.788L176.21 240.724L181.567 246.556C181.88 246.873 183.257 247.862 183.37 248.188C183.444 248.403 183.364 249.018 183.363 249.261L183.338 253.093L177.945 253.092C177.037 249.448 176.238 246.186 176.055 242.402Z" fill="#FBCB50"/>
<path d="M50.6321 216.288L54.9484 208.124C56.552 210.831 58.0776 213.406 59.3055 216.314L55.7232 223.075L55.5959 223.054L55.4815 223.463L55.1921 222.397C55.0307 222.666 55.0986 223.155 55.0947 223.478C55.0837 224.458 55.1285 225.473 55.0101 226.445C54.8288 225.374 54.9237 224.208 54.9101 223.122C54.9053 222.748 54.9802 222.131 54.8214 221.789C54.632 221.381 54.1793 220.91 53.8938 220.547C52.8164 219.186 51.497 217.94 50.5742 216.476L50.6321 216.288Z" fill="#FAAE25"/>
<path d="M50.5742 216.476L50.6321 216.288C51.9902 216.866 53.742 218.794 54.3921 220.113L53.8938 220.547C52.8164 219.186 51.4969 217.94 50.5742 216.476Z" fill="#FBD18E"/>
<path d="M54.8645 220.385L54.7288 214.826L54.9497 214.619L55.3024 214.746L55.4101 220.583L55.5947 223.054L55.4802 223.463L55.1909 222.397C55.0295 222.666 55.0973 223.155 55.0935 223.478C55.0825 224.458 55.1272 225.472 55.0089 226.445C54.8276 225.374 54.9225 224.208 54.9089 223.122C54.9041 222.748 54.979 222.131 54.8201 221.789C54.6308 221.381 54.1781 220.91 53.8926 220.547L54.3909 220.113L54.8645 220.385Z" fill="#FBD18E"/>
<path d="M192.779 239.318C192.835 243.185 191.993 246.939 190.201 250.358L190.013 250.806L188.881 253.125C187.172 253.11 185.382 252.983 183.686 253.196C183.909 251.793 183.784 250.187 183.795 248.754C183.796 248.565 183.732 247.848 183.803 247.698C184.03 247.22 185.265 246.343 185.7 245.961L190.318 241.728C191.061 241.041 192.043 240.303 192.643 239.504L192.779 239.318Z" fill="#FBCB50"/>
<path d="M191.903 228.722L184.213 236.862L185.057 227.96C185.116 227.353 185.034 225.978 185.323 225.486C185.738 224.779 186.58 224.04 187.166 223.451L191.294 219.311L192.87 227.532L191.903 228.722Z" fill="#FBCB50"/>
<path d="M59.3045 216.314L59.6762 217.061C60.298 218.6 60.9108 220.137 61.3988 221.724C61.8103 223.061 62.1045 224.685 62.6971 225.934C61.8155 226.625 61.2856 227.622 60.686 228.548L57.8757 232.976C57.4208 233.681 56.4839 234.754 56.2627 235.527L55.7772 236.207C55.5557 235.913 55.6203 225.162 55.4805 223.463L55.5949 223.054L55.7223 223.075L59.3045 216.314Z" fill="#FBCB50"/>
<path d="M59.3049 216.314L59.6766 217.061C59.1783 218.233 56.7361 223.393 56.0756 223.719C55.8541 223.499 55.7924 223.38 55.7227 223.075L59.3049 216.314Z" fill="#FBD18E"/>
<path d="M64.0528 236.192C64.3653 237.928 64.444 240.833 64.0521 242.528C63.8228 246.183 63.5174 250.558 61.0293 253.433L55.6314 253.455L55.6555 249.654C55.6578 249.311 55.5671 248.662 55.6639 248.373C55.7665 248.066 56.5333 247.379 56.7798 247.097C56.7483 246.647 56.7573 246.665 56.4326 246.352C57.0958 245.19 58.1569 244.079 59.0107 243.041C60.4221 241.326 61.9837 239.046 63.7578 237.744L63.998 237.573L64.0528 236.192Z" fill="#FBCB50"/>
<path d="M64.0537 236.192C64.3662 237.928 64.445 240.833 64.053 242.528L64.072 237.996L56.7809 247.097C56.7493 246.647 56.7583 246.665 56.4336 246.352C57.0969 245.19 58.1579 244.079 59.0118 243.041C60.4231 241.326 61.9847 239.046 63.7589 237.744L63.999 237.573L64.0537 236.192Z" fill="#FBD18E"/>
<path d="M192.193 228.989L192.717 228.338C193.048 228.581 192.998 228.866 193.058 229.265L193.37 232.524C192.69 234.3 192.953 236.655 192.958 238.54L193.054 238.668C193.397 239.134 193.736 239.653 193.922 240.205L193.748 240.609C193.379 240.098 193.25 239.584 192.826 239.096L192.595 238.858C189.962 241.738 186.949 244.521 183.943 247.022L183.916 246.542L184.079 238.779C184.092 238.489 184.024 237.712 184.119 237.487C184.222 237.243 184.662 236.824 184.846 236.613C185.547 235.812 186.326 235.072 187.077 234.317L192.193 228.989Z" fill="#FBCB50"/>
<path d="M62.6978 225.934L62.7129 226.389L64.0533 236.192L63.9987 237.573L63.7585 237.744C61.9845 239.046 60.4229 241.326 59.0114 243.041C58.1575 244.079 57.0965 245.19 56.4333 246.352C56.2339 246.651 55.9626 247.255 55.625 247.347L55.6291 237.269C56.1448 237.053 56.3288 236.689 56.6162 236.239C56.5291 235.997 56.3805 235.757 56.2635 235.527C56.4847 234.753 57.4216 233.681 57.8765 232.976L60.6868 228.548C61.2864 227.622 61.8163 226.625 62.6978 225.934Z" fill="#FBCB50"/>
<path d="M62.698 225.934L62.7131 226.389L62.3276 227.252C61.8823 228.296 61.1734 229.231 60.5619 230.183L56.6163 236.239C56.5292 235.997 56.3807 235.757 56.2637 235.527C56.4848 234.754 57.4218 233.681 57.8767 232.976L60.687 228.548C61.2866 227.622 61.8165 226.625 62.698 225.934Z" fill="#FBD18E"/>
<path d="M191.166 218.959L185.337 224.967L185.141 225.218L186.583 215.38L187.475 209.509C187.61 208.457 187.802 207.587 187.758 206.507C187.33 207.387 187.294 208.713 187.124 209.682L185.532 219.644L185.002 224.601L181.332 218.217C182.584 215.119 184.04 212.18 185.609 209.233C186.185 208.151 186.712 206.94 187.411 205.938L188.138 204.781L191.205 218.628L191.166 218.959Z" fill="#FBCB50"/>
<g filter="url(#filter0_f_0_3521)">
<path d="M127.406 275.81L161.644 275.885C161.807 276.897 161.752 277.935 161.743 278.957L127.559 278.962L127.406 275.81Z" fill="#111111"/>
</g>
<path d="M127.406 275.81L161.644 275.885C161.807 276.897 161.752 277.935 161.743 278.957L127.559 278.962L127.406 275.81Z" fill="#211E63"/>
<g filter="url(#filter1_f_0_3521)">
<path d="M71.0712 276.002L105.88 276C106.055 276.981 105.989 278.007 105.982 279L71 278.989L71.0712 276.002Z" fill="#111111"/>
</g>
<path d="M70.7823 275.755L106.617 275.752C106.797 276.795 106.73 277.886 106.722 278.941L70.709 278.93L70.7823 275.755Z" fill="#211E63"/>
<path d="M193.37 232.524C194.189 231.219 198.5 224.251 199.331 223.992L203.17 239.119L197.594 247.049C196.766 245.762 196.105 244.38 195.371 243.039C194.894 242.168 194.198 241.152 193.922 240.205C193.737 239.653 193.397 239.134 193.054 238.669L192.958 238.54C192.953 236.655 192.691 234.299 193.37 232.524Z" fill="#FAAE25"/>
<path d="M225.131 208.623L225.753 208.576L225.888 208.798L211.204 228.228L210.995 228.168L210.653 226.922L209.356 219.371C209.141 218.065 209.038 216.688 208.646 215.423L208.598 215.277C209.498 214.444 210.744 213.773 211.809 213.153C216.029 210.695 220.271 209.127 225.131 208.623Z" fill="#FAAE25"/>
<path d="M208.134 215.598L208.259 215.625C208.67 216.188 208.645 217.342 208.744 218.041L209.612 223.567L210.662 228.81C210.129 230.029 209.071 231.176 208.292 232.255L203.552 238.698L203.328 238.716L203.239 238.263L199.647 223.714L199.602 223.581C200.363 222.502 201.357 221.571 202.295 220.647C204.15 218.817 206.051 217.164 208.134 215.598Z" fill="#FAAE25"/>
<path d="M178.297 226.622L181.251 218.568C181.79 219.655 182.294 220.788 182.906 221.833C183.507 222.857 184.505 224.041 184.904 225.148C185.189 225.94 184.688 228.107 184.596 228.973L183.86 237.729L179 231.556C178.634 231.126 178.021 230.175 177.507 230.018C177.575 230.708 178.49 231.534 178.944 232.066L182.666 236.734C182.949 237.118 183.536 237.767 183.69 238.191C183.811 238.525 183.672 239.524 183.667 239.914L183.423 247.689C180.669 245.651 178.249 242.569 176.049 239.938C175.929 238.373 176.174 236.626 176.367 235.077C176.529 233.779 176.641 232.469 176.957 231.197L178.297 226.622Z" fill="#FBCB50"/>
<path d="M137.562 54.4127C139.743 56.1861 141.724 58.2775 143.734 60.2448C148.341 64.7524 153.143 69.4715 157.07 74.5912L141.19 74.5163L137.562 54.4127Z" fill="#E6700A"/>
<path d="M127.904 252.284L143.693 252.433C143.112 254.765 142.872 257.282 142.606 259.674C142.494 260.685 142.247 261.851 142.353 262.859L142.131 263.031C141.065 263.865 140.801 264.603 140.108 265.705C139.053 267.385 136.626 267.766 134.812 267.533C133.201 267.327 131.316 266.763 129.838 266.102C129.99 265.316 129.552 264.053 129.434 263.235L127.904 252.284Z" fill="#F29272"/>
<path d="M84.4586 25.928C84.9097 25.548 85.0697 25.5467 85.6546 25.6078C86.4956 25.6955 87.328 25.9177 88.1714 26.0209C89.1323 26.1386 90.4364 26.0993 91.3099 26.4887C91.5051 27.9753 91.8324 29.324 93.1072 30.2751C94.009 30.948 95.0317 31.2627 96.1525 31.0804C96.4927 31.0254 96.8 30.9522 97.1485 30.9274C97.4559 31.4991 97.4778 32.3664 97.6874 33.013C98.5393 35.6411 99.91 37.3406 101.84 39.2641L101.827 40.6097C97.7112 41.7099 92.6642 41.868 88.6083 40.5036C85.5401 39.4712 82.7282 37.3576 81.3322 34.3885C80.5966 32.8237 80.3455 30.9528 80.968 29.3083C81.4625 28.0024 82.3993 27.0215 83.6745 26.4491C83.9417 26.3292 84.1268 26.2675 84.3445 26.0608L84.4586 25.928Z" fill="#211E63"/>
<path d="M73.0059 252.069L90.9242 252.262L88.9965 257.879C88.5518 259.215 87.6474 261.132 87.8818 262.555C87.051 262.974 85.0393 263.317 84.7387 264.258C84.5944 264.711 84.7474 265.855 84.5844 266.124C84.5297 266.213 84.015 266.495 83.8973 266.569C82.1759 267.637 80.2903 267.751 78.341 267.434C77.4835 267.295 76.6656 267.159 75.855 266.821C75.1879 266.543 74.569 266.122 73.889 265.886C73.4859 264.666 73.6049 262.918 73.5248 261.606L73.0059 252.069Z" fill="#F29272"/>
<path d="M121.248 242.841C121.512 242.754 121.807 242.713 122.08 242.655C123.008 242.877 123.993 242.826 124.942 242.838L129.564 242.881L148.869 242.76L148.923 243.809L148.868 252.491L143.692 252.433L127.903 252.284L121.372 252.166L121.248 242.841Z" fill="#486ECA"/>
<path d="M121.248 242.841C121.512 242.754 121.807 242.713 122.08 242.655C123.008 242.877 123.993 242.826 124.942 242.838L129.564 242.881L148.869 242.76L148.923 243.809L128.123 243.764L123.08 243.791C122.571 243.795 121.816 243.911 121.353 243.682L121.248 242.841Z" fill="#211E63"/>
<path d="M67.2296 242.899C67.2376 242.51 67.2289 242.157 67.3694 241.787C67.8925 241.649 68.4169 241.804 68.9377 241.898C70.1045 242.212 71.3661 242.157 72.5647 242.167L78.0577 242.221C84.1583 242.349 90.4204 242.756 96.5081 242.448L96.9904 242.621C97.1437 242.96 97.1357 243.045 97.1049 243.42L97.0541 243.577C96.7432 244.615 96.7603 245.759 96.7094 246.837L96.4876 252.269L90.9226 252.262L73.0043 252.069L67.2148 251.998L67.2296 242.899Z" fill="#486ECA"/>
<path d="M67.2305 242.899C67.2385 242.51 67.2298 242.157 67.3703 241.787C67.8934 241.649 68.4178 241.804 68.9386 241.898C70.1054 242.212 71.367 242.157 72.5656 242.167L78.0586 242.221C84.1592 242.349 90.4212 242.756 96.509 242.448L96.9913 242.621C97.1446 242.96 97.1366 243.045 97.1058 243.42L67.2305 242.899Z" fill="#211E63"/>
<path d="M142.352 262.859C143.034 262.532 143.769 262.21 144.528 262.497C145.082 262.705 145.345 263.127 145.585 263.642L145.766 263.629L146.318 263.615L146.461 263.857L146.312 264.258C146.593 264.574 146.822 264.828 147.223 264.997C147.381 265.064 148.112 265.211 148.188 265.296C148.208 265.318 148.323 265.758 148.348 265.798C148.439 265.943 148.916 266.187 149.076 266.288C149.799 266.745 150.604 267.253 151.403 267.558C153.29 268.28 155.321 268.57 157.21 269.389C158.255 269.842 159.197 270.482 160.057 271.228C161.065 272.716 161.377 274.144 161.644 275.885L127.406 275.81L127.998 270.827L128.594 268.036C128.827 267.108 129.005 266.61 129.837 266.102C131.315 266.763 133.2 267.327 134.811 267.533C136.624 267.766 139.052 267.385 140.107 265.705C140.8 264.603 141.064 263.865 142.129 263.031L142.352 262.859Z" fill="#047077"/>
<path d="M50.5736 216.476C51.4963 217.94 52.8158 219.186 53.8932 220.547C54.1787 220.91 54.6313 221.381 54.8207 221.789C54.9795 222.131 54.9047 222.748 54.9095 223.122C54.923 224.208 54.8282 225.374 55.0095 226.445C55.1278 225.473 55.0831 224.458 55.094 223.478C55.0979 223.155 55.03 222.666 55.1915 222.397L55.4808 223.463C55.6207 225.162 55.5561 235.913 55.7776 236.207L56.263 235.527C56.3801 235.757 56.5286 235.997 56.6157 236.239C56.3283 236.689 56.1444 237.053 55.6287 237.269L55.6245 247.347C55.9621 247.255 56.2335 246.651 56.4328 246.352C56.7575 246.665 56.7485 246.647 56.7801 247.097C56.5335 247.379 55.7666 248.066 55.6641 248.373C55.5673 248.662 55.658 249.311 55.6558 249.654L55.6317 253.455L54.8462 253.437C53.0499 253.366 50.8116 253.724 49.0815 253.364C48.2099 253.182 47.753 251.98 47.3155 251.29C47.2991 249.361 46.3969 247.419 46.1738 245.475C45.9144 243.216 45.9668 240.872 45.9803 238.601C45.998 235.629 46.0893 232.725 46.4918 229.777C46.7111 228.171 46.9809 226.456 47.6409 224.964C48.0421 224.27 48.2392 223.378 48.472 222.611C48.8721 220.468 49.693 218.457 50.5736 216.476Z" fill="#FBCB50"/>
<path d="M54.2653 231.877C53.0091 230.403 51.9909 228.505 50.9013 226.898C50.2888 225.994 49.0295 224.582 48.7533 223.588C48.7089 223.428 48.7762 223.059 48.7839 222.88C50.4191 224.924 51.9446 226.988 53.366 229.188C53.8004 229.861 54.4251 230.645 54.6713 231.405C54.4003 231.587 54.3418 231.542 54.2653 231.877Z" fill="#FBD18E"/>
<path d="M55.056 245.064L47.125 235.001L47.1925 234.635L47.4925 234.542C50.3533 237.307 52.5826 240.516 55.0563 243.605C55.1698 244.165 55.2376 244.515 55.056 245.064Z" fill="#FBD18E"/>
<path d="M55.0096 226.445C55.1279 225.473 55.0832 224.458 55.0942 223.478C55.098 223.155 55.0302 222.666 55.1916 222.397L55.4809 223.463C55.6208 225.162 55.5562 235.913 55.7777 236.207L56.2632 235.527C56.3802 235.757 56.5287 235.997 56.6158 236.239C56.3284 236.689 56.1445 237.053 55.6288 237.269L55.6247 247.347C55.9623 247.255 56.2336 246.651 56.4329 246.352C56.7577 246.665 56.7486 246.647 56.7802 247.097C56.5336 247.379 55.7668 248.066 55.6642 248.373C55.5674 248.662 55.6581 249.311 55.6559 249.654L55.6318 253.455L54.8463 253.437L55.0566 245.064C55.2382 244.515 55.1704 244.166 55.0569 243.605L55.0559 238.55L55.0398 234.061C55.0369 233.833 55.1077 233.099 55.0228 232.911C54.8768 232.59 54.481 232.172 54.2656 231.877C54.3421 231.542 54.4007 231.587 54.6717 231.405C54.7929 231.577 54.789 231.662 55.0035 231.706C55.2031 230.018 55.0321 228.152 55.0096 226.445Z" fill="#F7F3B1"/>
<path d="M87.8817 262.555C89.0559 262.718 89.8497 262.995 90.6731 263.87L90.7995 264.526C91.0332 264.428 91.1936 264.273 91.438 264.385C91.9305 264.612 92.3475 265.035 92.8088 265.325C94.0238 266.092 95.3481 266.965 96.6097 267.631C98.9799 268.883 101.636 269.569 104.04 270.848C105.607 272.331 106.192 273.68 106.618 275.752L70.7832 275.755L71.2982 271.118C71.485 270.097 71.6059 268.945 71.9898 267.98C72.2679 267.281 72.6152 266.999 73.3074 266.713L73.5987 266.597L73.889 265.886C74.569 266.122 75.1878 266.543 75.855 266.821C76.6655 267.159 77.4834 267.295 78.3409 267.434C80.2902 267.751 82.1759 267.637 83.8972 266.568C84.0149 266.495 84.5296 266.213 84.5843 266.123C84.7474 265.855 84.5943 264.711 84.7387 264.258C85.0393 263.317 87.051 262.974 87.8817 262.555Z" fill="#047077"/>
<path d="M200.721 243.586C201.969 241.395 203.638 239.276 205.147 237.252C205.65 236.577 206.221 235.548 206.88 235.069L215.094 235.179C216.966 235.224 219.129 235.432 220.976 235.162C220.653 234.796 220.206 234.883 219.735 234.854L206.932 234.763L210.369 230.027C211.367 228.637 212.376 227 213.635 225.847L218.574 224.693L223.617 223.858C224.305 223.759 225.391 223.764 225.943 223.346C225.452 223.065 218.76 224.28 217.661 224.571L213.626 225.636L221.7 214.992L224.824 210.825C225.299 210.189 225.781 209.35 226.345 208.798C226.59 208.56 226.848 208.476 227.174 208.429L227.441 208.397C228.376 209.629 227.906 215.765 227.688 217.384C227.405 219.485 226.853 221.358 226.197 223.347L226.18 223.56C225.982 225.345 222.432 233.993 221.025 235.162L221.026 235.327C220.945 236.027 220.193 237.054 219.82 237.657C218.412 239.929 216.949 242.265 215.233 244.315L214.922 244.282C212.368 244.026 209.786 244.129 207.223 244.028C205.292 243.952 202.962 243.549 201.065 243.855L201.213 244.012L215.023 244.528C212.404 247.799 209.267 250.987 205.214 252.404L204.935 252.499C202.945 253.187 201.102 253.095 199.029 253.089L193.551 253.121C194.553 252.103 195.361 250.835 196.175 249.664C197.601 247.614 199.057 245.449 200.721 243.586Z" fill="#FAAE25"/>
<path d="M84.4588 25.928C84.0726 25.665 83.6826 25.4007 83.3595 25.0602C82.3124 23.9577 81.6266 22.5016 81.6678 20.9616C81.7086 19.4335 82.605 18.0728 83.72 17.0842C85.1375 15.8271 86.6756 15.3335 88.5394 15.5097C89.7486 15.6242 90.4961 16.2389 91.2333 17.1376L91.3957 17.3372C91.3722 15.8586 91.3053 14.3395 91.5111 12.8721C92.0274 9.19211 94.7374 6.06045 97.5937 3.89724C101.06 1.27213 106.083 -0.52715 110.465 0.139531L110.733 0.183647C113.411 0.603014 115.132 2.08064 116.871 4.05428C118.924 4.0479 120.411 3.99522 122.214 5.1832C125.613 7.42259 127.376 11.2244 128.208 15.0889C128.645 17.1186 128.746 19.6119 128.36 21.6519C127.76 21.3047 126.878 20.6668 126.16 20.8311C125.711 20.9337 125.308 21.6721 125.127 22.0512C124.903 22.5251 124.784 23.0543 124.672 23.5642L124.557 24.0169C124.267 23.833 124.336 23.9378 124.227 23.7218C123.347 21.984 123.11 20.0562 122.007 18.3876C121.41 17.4854 120.594 16.7016 119.896 15.8779C118.399 14.1138 117.348 12.4753 116.392 10.3724C115.896 11.1366 115.398 12.006 114.744 12.6448C112.694 14.6469 109.128 15.7023 106.457 16.4952C103.983 17.2301 100.793 18.0629 99.3538 20.417C98.6451 21.5763 98.4378 22.9456 98.2597 24.2709C97.6016 23.3044 96.9556 22.1531 95.7021 21.9329C94.6929 21.7554 93.7154 22.0277 92.9316 22.6832C91.8028 23.6269 91.5504 25.1174 91.3103 26.4886C90.4367 26.0993 89.1326 26.1385 88.1717 26.0209C87.3283 25.9177 86.496 25.6955 85.6549 25.6078C85.0699 25.5466 84.9098 25.5479 84.4588 25.928Z" fill="#211E63"/>
<path d="M107.386 0.920678C109.466 0.636819 111.378 1.03057 113.159 2.10721C110.101 1.92646 107.672 1.59875 104.667 2.57227C99.8433 4.13471 96.3775 7.25181 94.0954 11.7317C93.3177 13.3508 92.8402 15.168 92.4094 16.9035L92.3821 16.782C91.823 13.5141 92.9656 10.2499 94.9522 7.69647C97.9756 3.80989 102.592 1.58242 107.386 0.920678Z" fill="white"/>
<path d="M91.3105 26.4886C91.5507 25.1174 91.8031 23.6269 92.9319 22.6832C93.7157 22.0277 94.6931 21.7553 95.7023 21.9329C96.9559 22.1531 97.6018 23.3044 98.26 24.2709C98.4381 22.9456 98.6454 21.5763 99.354 20.417C100.793 18.0629 103.983 17.2302 106.457 16.4952C109.129 15.7023 112.695 14.6468 114.744 12.6448C115.399 12.006 115.896 11.1366 116.392 10.3724C117.349 12.4753 118.4 14.1138 119.896 15.8779C120.594 16.7016 121.411 17.4854 122.007 18.3876C123.11 20.0562 123.347 21.984 124.227 23.7217C124.336 23.9378 124.268 23.833 124.558 24.0169L124.672 23.5642C124.784 23.0543 124.903 22.5251 125.128 22.0512C125.308 21.6721 125.712 20.9336 126.16 20.8311C126.878 20.6668 127.761 21.3046 128.361 21.6519C129.53 22.9749 130.294 24.3304 130.124 26.1582C130.073 26.7054 129.765 27.3098 129.471 27.7638C128.728 29.1168 127.842 29.2029 126.668 29.9893L125.087 30.3777C124.399 33.9838 122.682 37.538 119.783 39.8892L119.687 40.1541C118.507 40.5338 117.652 40.8891 116.746 41.7742L116.712 43.2618L116.837 44.3202L117.137 45.0558C117.008 47.8462 115.924 50.2382 114.617 52.6707C114.036 53.753 113.394 54.9769 112.538 55.864C112.025 55.6135 111.954 55.5129 111.376 55.6295L110.644 56.2883C107.907 54.0561 105.393 51.412 103.489 48.4265C103.085 47.7938 102.668 47.1415 102.324 46.4743C102.056 45.9538 101.965 45.376 101.529 44.961L102.052 44.8498L102.207 44.4257C102.073 43.2104 102.243 41.7414 101.827 40.6098L101.841 39.2642C99.9105 37.3406 98.5399 35.6412 97.6879 33.0131C97.4783 32.3666 97.4564 31.4992 97.1491 30.9275C96.8006 30.9523 96.4932 31.0255 96.1531 31.0805C95.0322 31.2628 94.0095 30.948 93.1077 30.2752C91.833 29.324 91.5057 27.9753 91.3105 26.4886Z" fill="#FC807C"/>
<path d="M117.497 18.8991C118.352 18.8586 119.196 18.8052 119.968 19.2441C120.436 19.5106 120.733 19.8733 120.867 20.3938C120.618 20.7095 120.588 20.7526 120.211 20.8819C119.659 20.5873 119.194 20.296 118.547 20.3674C118.116 20.415 117.55 20.5436 117.131 20.4134C116.773 20.3018 116.748 20.2266 116.611 19.9115C116.84 19.3136 116.992 19.2634 117.497 18.8991Z" fill="#211E63"/>
<path d="M105.85 18.9004C106.574 18.8287 107.345 18.7107 107.972 19.1348C108.295 19.6167 108.274 19.6483 108.24 20.2331L107.862 20.5546C107.156 20.4267 106.593 20.3312 105.875 20.4563L105.718 20.4868C105.224 20.8501 104.742 21.2771 104.142 21.44C103.863 21.1218 103.847 21.0543 103.771 20.635C104.233 19.539 104.77 19.3418 105.85 18.9004Z" fill="#211E63"/>
<path d="M109.332 33.2233C110.095 33.3638 110.568 33.8811 111.22 34.267C111.859 34.6454 112.475 34.7785 113.207 34.7991C114.598 34.8386 115.23 34.3499 116.198 33.4497L116.402 33.4953L116.46 34.4576C115.909 35.0807 115.413 35.6153 114.59 35.8729C113.475 36.2217 112.199 36.0066 111.172 35.4883C110.2 34.9984 109.646 34.2454 109.332 33.2233Z" fill="white"/>
<path d="M105.705 23.3395C106.303 23.3745 106.73 23.3128 107.174 23.7918C107.561 24.2101 107.651 24.7621 107.656 25.3113C107.665 26.3944 107.491 26.8111 106.726 27.5763C106.238 27.5448 105.944 27.5226 105.557 27.177C105.108 26.7767 104.95 26.0539 104.912 25.4827C104.85 24.5246 105.078 24.0413 105.705 23.3395Z" fill="#020022"/>
<path d="M118.833 22.8875C119.367 23.0203 119.756 23.1504 120.093 23.6089C120.571 24.2597 120.577 25.4068 120.408 26.1704C120.258 26.8478 119.86 27.0738 119.312 27.4075C118.964 27.332 118.524 27.2622 118.27 26.9886C117.812 26.4925 117.696 25.8746 117.725 25.2165C117.769 24.1786 118.064 23.5655 118.833 22.8875Z" fill="#020022"/>
<path d="M125.32 23.352C125.653 22.8865 125.884 22.5267 126.405 22.2686C127.243 22.2969 127.996 22.4074 128.596 23.0527C129.115 23.6102 129.471 24.5336 129.435 25.2968C129.405 25.9334 128.977 26.1257 128.71 26.6221L128.093 26.8089C127.19 27.088 126.253 27.0664 125.315 27.098C125.221 25.827 125.053 24.6143 125.32 23.352Z" fill="#F13B42"/>
<path d="M94.0578 22.891L95.0587 22.8849C95.7554 22.9412 96.357 23.3601 96.7662 23.9124C97.4044 24.7734 97.3864 25.9791 97.2585 27.0008C96.4097 27.3005 95.8725 27.4959 95.3024 28.2296L95.1825 28.3932L94.5765 28.8594C94.1023 28.7961 93.8634 28.6974 93.5316 28.3341C92.8947 27.6367 92.4983 26.404 92.5661 25.4717C92.6561 24.2343 93.1766 23.6784 94.0578 22.891Z" fill="#F13B42"/>
<path d="M101.841 39.2642C102.671 39.7812 103.5 40.3827 104.374 40.8183C106.025 41.641 107.824 41.9989 109.638 42.2413C111.996 42.5567 114.221 42.2635 116.538 41.8548C116.561 42.2255 116.516 42.9743 116.713 43.2617L116.838 44.3201C114.152 45.5634 111.134 46.1765 108.182 45.8389C106.176 45.6094 104.155 44.9541 102.208 44.4256C102.074 43.2103 102.244 41.7413 101.828 40.6096L101.841 39.2642Z" fill="#F13B42"/>
<path d="M116.837 44.3202L117.137 45.0558C117.008 47.8462 115.924 50.2382 114.617 52.6707C114.036 53.753 113.394 54.9769 112.538 55.8639C112.025 55.6135 111.954 55.5129 111.376 55.6295L110.644 56.2883C107.907 54.0561 105.393 51.412 103.489 48.4265C103.085 47.7938 102.667 47.1415 102.324 46.4743C102.056 45.9538 101.965 45.376 101.529 44.961L102.052 44.8498L102.207 44.4257C104.154 44.9543 106.175 45.6096 108.181 45.8391C111.133 46.1766 114.151 45.5635 116.837 44.3202Z" fill="#FC807C"/>
<path d="M117.136 45.0558C117.737 44.9028 118.364 44.9002 118.981 44.8671C121.549 45.5896 124.151 46.5586 125.55 49.0082C125.981 49.7624 126.179 50.4614 126.33 51.3034C128.339 51.2411 130.923 52.3885 132.892 52.9473C134.337 53.3575 136.266 53.6925 137.562 54.4128L141.19 74.5164L116.63 74.5148L110.704 74.5167L86.3482 74.6598C86.3925 69.0832 85.8495 63.4607 85.3245 57.9143C85.1836 56.4274 85.219 54.5594 84.7988 53.1373C87.7709 52.1911 90.7095 50.9424 93.8066 50.445L94.5933 48.8972C95.8179 46.8628 97.6289 45.842 99.8599 45.2915L101.529 44.961C101.964 45.376 102.055 45.9538 102.323 46.4743C102.667 47.1414 103.085 47.7937 103.488 48.4265C105.392 51.412 107.907 54.0561 110.643 56.2883L111.375 55.6295C111.953 55.5128 112.024 55.6134 112.537 55.8639C113.393 54.9769 114.035 53.7529 114.617 52.6707C115.923 50.2382 117.007 47.8462 117.136 45.0558Z" fill="#F79022"/>
<path d="M93.6777 52.1059L93.8687 51.9017C95.3946 56.9063 98.5132 63.0143 103.279 65.6054C105.938 63.6023 108.019 60.1696 109.931 57.4763L110.643 56.2883L111.375 55.6296C111.952 55.5129 112.024 55.6135 112.537 55.864L113.342 56.6147L120.859 63.8798C124.392 61.0116 125.386 56.3973 126.15 52.1428L126.339 52.7228C125.942 55.3389 125.185 57.5114 124.37 60.0037C123.62 61.2335 122.279 63.6821 120.785 63.9927C120.479 64.0563 120.559 64.049 120.252 63.9059C119.199 63.4156 118.295 62.4119 117.465 61.6158C115.546 59.7771 113.645 57.6111 111.49 56.0688L112.144 70.7904L111.937 70.9103C111.02 69.948 111.11 58.9694 111.095 56.8848C108.833 60.0478 106.581 63.8673 103.308 66.052L102.946 65.9099C101.714 65.3896 100.653 64.411 99.7363 63.4558C97.1642 60.7769 95.5696 57.7715 94.225 54.3503C93.9754 53.5957 93.7944 52.8961 93.6777 52.1059Z" fill="black"/>
<path d="M117.136 45.0558C117.737 44.9028 118.364 44.9002 118.981 44.8671C121.549 45.5896 124.151 46.5586 125.55 49.0082C125.981 49.7624 126.179 50.4614 126.33 51.3034C126.447 51.7886 126.472 52.2329 126.339 52.7228L126.15 52.1428C125.387 56.3973 124.392 61.0116 120.859 63.8798L113.342 56.6147L112.537 55.864C113.393 54.9769 114.035 53.7529 114.616 52.6708C115.923 50.2382 117.007 47.8462 117.136 45.0558Z" fill="#F79022"/>
<path d="M117.136 45.0558C117.737 44.9028 118.364 44.9002 118.981 44.8671C118.248 49.0258 115.322 52.9524 113.342 56.6148L112.537 55.8641C113.393 54.977 114.035 53.753 114.616 52.6708C115.923 50.2382 117.007 47.8462 117.136 45.0558Z" fill="#E6700A"/>
<path d="M99.8591 45.2915L101.528 44.9609C101.963 45.376 102.054 45.9538 102.323 46.4743C102.666 47.1414 103.084 47.7937 103.488 48.4264C105.392 51.412 107.906 54.0561 110.643 56.2883L109.931 57.4762C108.018 60.1695 105.938 63.6023 103.279 65.6053C98.513 63.0142 95.3944 56.9062 93.8685 51.9016L93.6775 52.1058L93.5801 51.9309C93.7679 51.4731 93.7624 50.9339 93.8058 50.4449L94.5925 48.8972C95.8171 46.8627 97.6282 45.8419 99.8591 45.2915Z" fill="#F79022"/>
<path d="M99.8594 45.2915L101.528 44.9609C101.963 45.376 102.055 45.9538 102.323 46.4743C102.666 47.1414 103.084 47.7937 103.488 48.4264C105.392 51.412 107.906 54.0561 110.643 56.2883L109.931 57.4762C107.127 55.3446 104.924 52.6597 102.808 49.8674C101.715 48.4262 100.566 46.9685 99.8594 45.2915Z" fill="#E6700A"/>
<path d="M84.7988 53.1373C87.7709 52.1911 90.7095 50.9423 93.8066 50.4449C93.7632 50.934 93.7686 51.4731 93.5809 51.9309L93.6783 52.1058C93.795 52.8961 93.976 53.5957 94.2255 54.3503C94.0661 55.4225 94.3702 56.2674 94.6985 57.2628C95.4116 59.4246 96.3549 61.3756 97.7111 63.2097C99.0357 65.0009 100.973 66.7756 103.257 67.0823C104.728 67.28 105.524 66.9077 106.622 65.9782L108.657 63.9977L110.705 74.5165L86.3483 74.6596C86.3927 69.0831 85.8497 63.4605 85.3246 57.9142C85.1837 56.4273 85.2191 54.5593 84.7988 53.1373Z" fill="#FBCB50"/>
<path d="M126.331 51.3033C128.34 51.241 130.925 52.3884 132.893 52.9472C134.338 53.3574 136.267 53.6925 137.563 54.4127L141.191 74.5163L116.632 74.5147L113.895 60.5419C115.047 61.8894 116.232 63.187 117.625 64.2962C118.47 64.9694 119.406 65.6195 120.539 65.4385C121.463 65.2913 122.266 64.6389 122.79 63.893C123.377 63.0571 124.536 60.9779 124.372 60.0037C125.187 57.5114 125.944 55.3389 126.341 52.7228C126.473 52.2329 126.448 51.7886 126.331 51.3033Z" fill="#FBCB50"/>
<path d="M27.3505 249.998C19.3693 245.686 14.2377 237.696 10.442 229.715C9.04856 226.785 7.69887 223.752 6.625 220.691C7.56705 220.595 8.67272 220.803 9.62306 220.894C14.6659 221.376 19.1892 222.432 23.8836 224.349C23.943 223.927 23.5177 222.984 23.3875 222.543L22.0385 217.922L21.0727 213.647C19.7452 206.233 20.2229 197.925 21.8266 190.578C25.8982 192.808 29.5451 195.894 32.8106 199.171L33.0556 199.501C38.0531 204.501 41.7811 211.055 44.6875 217.44C45.7986 219.881 46.9345 222.368 47.6406 224.964C46.9805 226.456 46.7108 228.171 46.4915 229.777C46.089 232.724 45.9977 235.629 45.98 238.601C45.9665 240.872 45.914 243.216 46.1735 245.475C46.3966 247.418 47.2988 249.36 47.3152 251.29C47.3058 251.944 47.4055 252.836 47.166 253.443C46.1722 253.626 45.025 253.511 44.0194 253.426C42.1591 253.427 40.2162 253.538 38.3694 253.312C34.7464 252.869 31.5644 251.788 28.2059 250.408C27.9225 250.336 27.6148 250.132 27.3505 249.998Z" fill="#E6700A"/>
<path d="M14.709 227.915C13.7203 227.765 11.7103 227.875 10.9805 227.285L11.1444 226.997C12.3813 227.03 13.65 227.114 14.8659 227.35L14.709 227.915Z" fill="#FBCB50"/>
<path d="M11.1603 224.074C10.3508 223.359 9.56984 222.677 8.90625 221.819L9.13612 221.595C10.0598 221.731 10.9816 222.906 11.6635 223.541L11.1603 224.074Z" fill="#FAAE25"/>
<path d="M26.7974 204.746C27.0867 204.959 27.3886 205.122 27.7034 205.294L27.831 205.101C27.305 203.908 24.8644 197.782 25.0943 196.804L25.3724 196.66L25.6509 196.781C26.5463 198.3 26.999 200.552 27.5703 202.249C28.4229 204.783 29.4784 207.281 30.1343 209.874C30.8438 207.893 31.0538 205.411 31.3991 203.322C31.6367 201.886 31.6608 200.184 32.8118 199.171L33.0568 199.501L31.6116 207.391C31.411 208.304 31.2287 209.481 30.7728 210.292C30.6571 211.38 31.2323 212.371 31.6197 213.364L33.3883 218.012L34.6489 220.787C35.1386 219.141 37.7518 209.238 38.6347 208.709L38.9228 208.798C39.0951 210.397 37.8907 212.964 37.4033 214.539L36.025 219.167C35.8288 219.74 35.0759 221.12 35.0833 221.667C35.0887 222.068 35.7896 223.251 35.9793 223.695L38.38 229.745C38.687 230.331 38.9674 230.895 39.1918 231.517L43.192 220.966C43.4672 220.282 43.7521 219.135 44.2257 218.604C44.3044 218.516 44.4362 218.497 44.5414 218.443C44.8063 218.895 44.7034 219.367 44.5728 219.851C44.2835 220.924 43.7366 221.982 43.3402 223.027L41.0144 229.092C40.644 229.97 39.8541 231.253 39.6596 232.159C39.602 232.426 39.7197 232.58 39.8322 232.801C41.2996 235.686 47.2832 249.324 46.5379 252.05C46.4531 252.36 46.2746 252.616 46.1039 252.884C45.9486 253.128 46.011 253.015 45.9004 253.343L47.1671 253.442C46.1733 253.626 45.0261 253.511 44.0205 253.426C42.1602 253.427 40.2173 253.538 38.3706 253.312C34.7475 252.869 31.5655 251.788 28.207 250.408C27.9235 250.336 27.6158 250.132 27.3515 249.998C27.6821 249.786 28.0068 249.602 28.3964 249.525C29.5188 249.301 30.8933 249.42 32.0437 249.39L38.6249 249.171L33.3554 244.397C30.8715 244.742 28.2489 244.665 25.7446 244.632C24.9444 244.621 23.659 244.752 22.961 244.37V244.071C23.9323 243.882 25.1007 243.984 26.0954 243.971C28.3071 243.941 30.5107 243.931 32.7159 243.74C31.5025 242.458 30.1525 241.299 28.8166 240.145C28.6025 239.96 28.009 239.363 27.7766 239.291C27.4271 239.183 26.6494 239.283 26.2565 239.26C24.9563 239.186 20.2204 239.01 19.2167 238.357C19.036 238.239 19.0804 238.09 19.0543 237.895L19.3687 237.542L26.8544 238.431L21.7642 233.522L21.5977 233.43C20.8315 233.559 19.778 233.275 19.0073 233.143L13.4159 232.141C13.0861 231.861 13.0121 231.919 12.9648 231.464C13.5217 231.215 14.8855 231.65 15.507 231.761L20.8315 232.571C18.7552 231.066 17.2367 228.732 14.7099 227.915L14.8668 227.35L13.5329 226.054L11.1602 224.074L11.6633 223.541C12.0996 223.903 12.5838 224.407 13.141 224.534C12.7394 224.105 12.2912 223.683 11.9781 223.186C12.3047 222.891 12.2822 222.922 12.7256 222.944C13.5895 223.962 14.112 225.205 14.973 226.221C15.614 226.978 16.4455 227.595 17.1875 228.249L20.2319 230.969L18.7221 225.677L19.0224 225.464L19.5069 225.576C19.8236 226.099 19.9187 226.813 20.0833 227.405C20.6386 229.403 20.8263 231.415 22.2773 232.999C23.166 233.848 24.1048 234.955 25.1194 235.633L25.3413 235.562C24.6384 233.341 24.3793 230.783 23.8762 228.491L24.0861 228.227L24.5683 228.238C24.867 228.77 24.9303 229.446 25.0406 230.043L25.6869 234.064C25.7791 234.737 25.8329 236.171 26.1949 236.704C27.0074 237.901 28.674 238.96 29.7775 239.901C30.1054 240.181 31.0709 241.124 31.4541 241.148L30.3687 234.803C30.1305 233.504 29.7183 232.061 29.7907 230.741L30.0341 230.559L30.3556 230.728C31.0741 233.081 31.3571 235.756 31.7381 238.19C31.9017 239.236 32.2702 240.476 32.1361 241.531L32.0895 241.873C32.0965 242.629 34.5631 244.307 35.1785 244.842L38.2027 247.701L37.1381 242.191L36.3788 238.759C36.2215 238.055 35.9788 237.247 36.0534 236.528L36.3839 236.377C37.7908 237.365 38.3107 246.199 38.9913 248.223C39.1871 248.804 44.5409 252.649 45.4475 253.176C45.5877 252.183 45.8423 250.969 45.6639 249.981C45.4327 248.7 44.8849 247.384 44.4489 246.157L41.1486 237.853C40.1417 235.427 39.2517 232.621 37.8165 230.428C35.2798 229.961 32.4547 227.912 30.2665 226.568C28.6892 225.647 26.8984 224.883 25.4204 223.821C25.1059 223.594 24.7764 223.41 24.6481 223.025L24.8539 222.751C25.0265 222.753 25.2085 222.699 25.3722 222.755C25.8194 222.905 26.4676 223.507 26.9003 223.77C28.4033 224.685 29.9851 225.482 31.4493 226.458C32.2557 226.749 33.0353 227.311 33.7838 227.731C34.9849 228.404 36.2289 228.974 37.5017 229.496C37.0562 228.427 34.904 222.815 34.3288 222.328C33.8658 221.935 32.9168 221.595 32.3583 221.251L26.302 217.19C25.3452 216.535 23.862 215.805 23.2267 214.827L23.4103 214.553C23.6087 214.54 23.8119 214.471 24.0057 214.516C24.1533 214.549 24.5276 214.911 24.6828 215.028L26.7852 216.599C29.1441 218.273 31.5303 219.826 34.0513 221.245L32.9186 218.578L31.8811 216.193C31.7792 215.949 31.6029 215.363 31.4352 215.174C31.2313 214.945 30.2678 214.624 29.9434 214.471L23.2222 210.406L23.2547 210.059C23.5225 210.019 23.8035 209.953 24.0694 210.044C25.1915 210.428 26.5193 211.596 27.5423 212.268L30.4533 213.998C30.7439 213.963 30.5896 214 30.9101 213.862L29.5199 209.964C29.1718 209.081 28.7669 207.346 28.1882 206.648C27.8442 206.233 27.0147 205.81 26.5569 205.438C25.7824 204.969 25.0712 204.427 24.3273 203.914C23.4431 203.304 22.404 202.778 21.8356 201.835L21.9963 201.567C23.6733 202.159 25.3278 203.727 26.7974 204.746Z" fill="#FBCB50"/>
<path d="M28.207 250.408C29.1777 249.894 31.472 250.216 32.6336 250.182L39.5422 249.782L44.0205 253.426C42.1603 253.427 40.2174 253.538 38.3706 253.312C34.7475 252.869 31.5655 251.788 28.207 250.408Z" fill="#E6700A"/>
<path d="M33.0568 199.501C38.0543 204.5 41.7823 211.055 44.6887 217.44C45.7998 219.881 46.9357 222.368 47.6418 224.964C46.9817 226.456 46.712 228.171 46.4927 229.777C46.0902 232.724 45.9989 235.629 45.9812 238.601C45.9677 240.872 45.9152 243.216 46.1747 245.475C46.3978 247.418 47.3 249.36 47.3164 251.29C47.307 251.944 47.4067 252.836 47.1672 253.442L45.9004 253.343C46.011 253.015 45.9486 253.128 46.104 252.884C46.2747 252.616 46.4531 252.36 46.538 252.05C47.2832 249.324 41.2996 235.686 39.8323 232.801C39.7197 232.58 39.6021 232.426 39.6596 232.159C39.8541 231.253 40.6441 229.97 41.0145 229.092L43.3402 223.027C43.7367 221.982 44.2835 220.924 44.5729 219.851C44.7035 219.367 44.8064 218.895 44.5415 218.443C44.4363 218.497 44.3045 218.516 44.2257 218.604C43.7521 219.135 43.4673 220.282 43.1921 220.966L39.1919 231.517C38.9675 230.895 38.6871 230.331 38.3801 229.745L35.9794 223.695C35.7897 223.25 35.0888 222.068 35.0833 221.667C35.076 221.12 35.8289 219.74 36.025 219.167L37.4034 214.539C37.8908 212.964 39.0951 210.397 38.9228 208.798L38.6348 208.709C37.7519 209.238 35.1386 219.141 34.649 220.787L33.3884 218.012L31.6198 213.364C31.2323 212.371 30.6572 211.379 30.7729 210.292C31.2288 209.481 31.4111 208.304 31.6117 207.391L33.0568 199.501Z" fill="#E6700A"/>
<path d="M84.7986 53.1373C85.2188 54.5593 85.1834 56.4273 85.3242 57.9143C85.8493 63.4606 86.3923 69.0832 86.3479 74.6597L71.7279 74.517L71.7761 95.979L71.7649 109.501C73.7444 115.214 76.6139 120.86 79.1458 126.36C80.1283 128.495 81.4243 130.798 82.103 133.039C82.1573 133.218 82.1448 133.138 82.0503 133.352L78.732 134.899L67.6358 139.828L62.8755 141.244L60.3603 135.89L59.9848 135.112C59.0226 132.239 57.7034 129.43 56.5804 126.613L51.1443 112.154C50.4025 110.068 49.42 107.936 48.9227 105.782C48.6687 104.681 48.6256 103.529 48.8224 102.414C49.1847 100.361 50.127 98.3135 50.9469 96.406C53.59 90.2542 56.8814 84.4369 60.4543 78.7825C63.3913 74.2633 66.3923 69.8075 69.7707 65.6019C73.8593 60.512 78.6308 55.61 84.7986 53.1373Z" fill="#E6700A"/>
<path d="M59.9844 135.112L65.4986 133.41C70.2016 131.728 74.4452 129.562 78.8467 127.234C77.7825 125.26 76.9411 123.089 76.019 121.044L70.8029 109.319L68.8683 104.923C68.7179 104.572 68.5147 103.822 68.2822 103.544C68.0289 103.241 67.3733 102.885 67.039 102.643L63.1391 99.8155L63.197 99.485L63.6304 99.3947C65.1691 100.209 66.6503 101.469 68.0881 102.476C68.7044 100.313 69.4127 97.8749 70.4544 95.887C70.5872 95.634 70.492 95.7395 70.8402 95.6321L71.243 96.0291C70.7335 96.9943 68.7262 101.957 68.9311 102.896L71.7645 109.501C73.7441 115.214 76.6136 120.86 79.1454 126.36C80.128 128.495 81.4239 130.798 82.1027 133.039C82.157 133.218 82.1445 133.138 82.0499 133.352L81.7982 133.147C81.2912 132.693 81.0356 131.921 80.7533 131.314L79.1174 127.845C73.4482 131.638 66.8056 133.819 60.36 135.89L59.9844 135.112Z" fill="black"/>
<path d="M60.3613 135.89C66.807 133.819 73.4496 131.638 79.1188 127.845L80.7547 131.314C81.037 131.921 81.2926 132.693 81.7996 133.147L82.0513 133.352L78.733 134.899L67.6368 139.828L62.8765 141.244L60.3613 135.89Z" fill="#E6700A"/>
<path d="M118.311 152.896L144.396 152.897L147.587 234.767C147.605 237.257 147.341 240.116 147.717 242.557L148.87 242.76L129.565 242.881L124.943 242.838C123.994 242.826 123.009 242.877 122.081 242.655L122.277 242.433L119.857 225.845L115.076 192.666L112.656 175.044L111.705 168.43C111.532 167.286 111.49 166.025 111.029 164.957L110.901 164.931C110.711 164.646 110.819 164.364 110.851 164.031L112.679 152.841L113.271 152.879L117.78 152.82L118.311 152.896Z" fill="#486ECA"/>
<path d="M112.677 152.841L113.27 152.879L111.98 161.261C111.811 162.265 111.733 163.979 111.134 164.791L110.953 164.671L110.85 164.031L112.677 152.841Z" fill="#211E63"/>
<path d="M117.779 152.82L118.311 152.896L118.917 158.237L121.891 186.132L121.583 186.375L121.194 186.266L118.211 157.546L117.779 152.82Z" fill="#211E63"/>
<path d="M122.616 192.916L123.141 193.007C124.187 195.705 122.445 198.632 122.735 201.35L125.273 221.337L126.467 229.968C126.622 231.14 127.052 232.602 126.752 233.736L126.326 233.519L123.292 210.702L122.066 201C121.955 199.555 122.484 198.329 122.661 196.934C122.826 195.632 122.718 194.222 122.616 192.916Z" fill="#211E63"/>
<path d="M87.459 152.733L112.678 152.841L110.851 164.031C110.819 164.364 110.711 164.646 110.901 164.931L111.029 164.956L100.84 216.749L97.175 236.074C96.9615 237.235 95.9128 241.443 96.2269 242.266L96.5098 242.448C90.4221 242.756 84.1601 242.349 78.0594 242.221L72.5664 242.167C71.3678 242.158 70.1062 242.212 68.9395 241.898L71.1572 209.002L74.5463 185.683C74.9726 181.497 74.944 177.245 75.0604 173.041L75.4359 157.539C76.1413 158.153 76.7969 158.486 77.6447 158.856C78.2842 158.531 78.832 158.07 79.3986 157.634C79.6098 157.619 79.7374 157.637 79.9351 157.717C80.4389 157.92 80.9353 158.16 81.4925 158.024C82.2911 157.828 82.9441 157.099 83.3859 156.447C83.3527 156.077 83.3296 156.098 83.5655 155.815L84.2446 155.996L84.3083 156.014C84.9748 156.173 85.4959 156.191 86.0878 155.796C87.1472 155.09 87.1588 154.057 87.4079 152.945L87.459 152.733Z" fill="#486ECA"/>
<path d="M75.1298 235.054C75.27 235.531 75.3388 236.036 75.4066 236.528C75.4066 235.573 75.2439 235.044 75.7574 234.229L75.44 241.11L75.205 241.298L74.8511 241.159C74.7044 239.287 74.8047 236.917 75.1298 235.054Z" fill="#0609A0"/>
<path d="M83.3859 156.447C83.3528 156.077 83.3297 156.098 83.5656 155.815L84.2447 155.996L84.1994 156.265L81.4974 191.792L81.2348 191.883C81.1457 191.788 81.013 191.72 80.9673 191.597C80.8827 191.371 80.9297 190.76 80.9239 190.504L80.9785 186.132L83.3859 156.447Z" fill="#211E63"/>
<path d="M79.4764 200.535C79.6561 200.119 79.8381 199.674 80.132 199.323C80.3927 199.011 81.1186 198.463 81.219 198.119C81.291 197.873 81.2122 197.316 81.2096 197.048L81.1254 194.441C81.1017 193.995 80.9968 193.511 81.2129 193.103L81.5196 193.013C81.8121 193.45 81.7691 193.975 81.8147 194.495C81.9337 195.849 82.0642 197.169 81.841 198.519C80.8598 199.387 80.4798 199.912 80.0361 201.169C78.6111 206.206 78.0116 211.376 77.4306 216.567L75.7571 234.229C75.2437 235.044 75.4064 235.573 75.4064 236.528C75.3386 236.036 75.2698 235.531 75.1296 235.054C75.0691 232.501 75.4431 229.775 75.6501 227.223L77.012 214.196C77.567 209.583 78.146 204.999 79.4764 200.535Z" fill="#211E63"/>
<path d="M110.705 74.5166L116.631 74.5147L141.19 74.5163L157.071 74.5912L157.355 74.6684C158.233 74.8883 159.375 74.7652 160.293 74.7671L166.613 74.7726L192.126 74.7767L196.817 74.7784C197.262 74.7813 198.1 74.7005 198.505 74.8314C198.862 74.9468 199.41 75.4375 199.582 75.7738C200.182 76.9402 199.775 95.172 199.875 98.0431C200.858 98.1759 202.238 98.2048 202.845 99.1334C203.078 99.4899 203.082 99.7295 203.001 100.128L201.628 101.164C202.617 101.752 203.443 102.175 203.806 103.343C203.536 104.115 202.808 104.46 202.095 104.813L201.794 104.952C202.517 105.292 203.231 105.581 203.514 106.388C203.635 106.733 203.609 107.084 203.594 107.442C203.013 108.286 202.261 108.442 201.32 108.708L201.465 108.925C201.737 109.307 202.195 109.5 202.6 109.711C202.856 110.148 202.99 110.55 202.853 111.074C202.741 111.499 202.422 111.665 202.041 111.817C201.401 112.073 200.673 112.087 199.995 112.116L199.874 125.258L199.926 147.818C199.939 149.03 200.283 151.419 199.426 152.331C199.097 152.682 198.719 152.853 198.242 152.897C196.42 153.065 194.447 152.92 192.611 152.922L181.235 152.925L144.396 152.897L118.311 152.896L117.779 152.82L113.27 152.879L112.678 152.841L87.4587 152.733L87.4076 152.945C87.1584 154.057 87.1468 155.09 86.0874 155.796C85.4956 156.191 84.9744 156.173 84.3079 156.014L84.2442 155.996L83.5652 155.815C83.3292 156.098 83.3524 156.077 83.3855 156.447C82.9437 157.099 82.2907 157.828 81.4921 158.024C80.9349 158.16 80.4385 157.92 79.9347 157.717C79.737 157.637 79.6094 157.619 79.3982 157.634C78.8316 158.07 78.2838 158.531 77.6443 158.856C76.7965 158.486 76.1409 158.153 75.4355 157.539C74.9282 156.975 74.3723 156.406 73.9412 155.782C73.5779 155.257 73.1149 153.933 72.6066 153.659L72.7066 153.338C72.4394 152.805 72.3841 152.452 71.8385 152.186L67.6367 139.828L78.7329 134.899L82.0512 133.352C82.1458 133.138 82.1583 133.218 82.1039 133.039C81.4253 130.798 80.1292 128.495 79.1467 126.36C76.6148 120.86 73.7454 115.214 71.7658 109.501L71.7771 95.979L71.7289 74.5169L86.3488 74.6597L110.705 74.5166Z" fill="#FBD18E"/>
<path d="M195.722 107.401C196.189 107.621 196.652 107.858 197.162 107.961C197.522 108.035 197.238 107.97 197.604 108.092C197.846 108.172 197.951 108.172 198.192 108.175C198.572 108.179 198.404 108.138 198.66 108.255C199.031 108.425 200.258 108.421 200.637 108.258L200.754 108.188L201.155 108.259L201.318 108.708L201.463 108.925C201.736 109.307 202.194 109.5 202.599 109.711C202.854 110.148 202.989 110.55 202.851 111.074C202.74 111.499 202.421 111.665 202.04 111.817C201.4 112.073 200.672 112.087 199.994 112.116C198.099 111.915 196.35 111.71 195.004 110.198C194.71 109.366 195.385 108.182 195.722 107.401Z" fill="#E97599"/>
<path d="M196.672 100.51C196.089 100.237 195.389 99.9551 194.894 99.5361C194.422 99.1377 194.456 98.9242 194.442 98.3597C194.687 98.0774 194.942 97.7742 195.273 97.5897C196.182 97.0834 198.86 97.8173 199.875 98.043C200.858 98.1759 202.238 98.2048 202.846 99.1333C203.079 99.4899 203.083 99.7294 203.001 100.128L201.628 101.164C202.618 101.752 203.444 102.175 203.807 103.343C203.537 104.115 202.809 104.46 202.096 104.813L201.794 104.952C202.517 105.292 203.232 105.58 203.515 106.388C203.636 106.733 203.61 107.084 203.594 107.442C203.013 108.286 202.262 108.442 201.32 108.707L201.157 108.259L200.756 108.188L200.639 108.257C200.26 108.421 199.033 108.425 198.662 108.255C198.405 108.137 198.574 108.179 198.194 108.175C197.952 108.172 197.847 108.172 197.606 108.091C197.24 107.97 197.524 108.035 197.163 107.961C196.654 107.858 196.191 107.621 195.724 107.401C194.885 107.064 194.087 106.75 193.463 106.076L193.494 105.433C194.012 104.812 194.394 104.706 195.176 104.553L196.094 104.335L196.004 104.147C195.418 103.953 194.77 103.619 194.296 103.212C193.851 102.828 193.928 102.426 193.916 101.896C194.325 101.238 195.924 100.786 196.672 100.51Z" fill="#FC807C"/>
<path d="M145.851 94.0753C146.375 94.0689 146.806 94.0795 147.223 94.4406C148.084 95.1852 147.921 96.8165 147.976 97.8521C148.576 96.766 149.193 95.3855 150.183 94.6039C150.831 94.0926 151.555 93.9679 152.367 94.0988C153.03 94.2055 153.65 94.7948 154.032 95.3134C154.498 95.9442 154.809 96.6731 155.025 97.4225C155.684 99.7001 155.813 102.193 156.169 104.531C156.275 105.231 156.708 106.587 156.56 107.227C156.474 107.603 156.197 107.706 155.904 107.912C155.565 107.916 155.265 107.981 154.963 107.81C153.951 107.239 153.573 104.772 153.291 103.709L152.344 99.3451C152.21 98.6163 152.184 97.4408 151.724 96.873C150.307 97.7497 149.264 101.308 148.922 102.941C148.721 103.902 148.718 105.725 148.032 106.469C147.596 106.942 146.998 107.077 146.378 107.102C145.8 107.127 145.535 106.935 145.133 106.572C144.608 105.194 144.925 102.847 144.945 101.34L145.021 96.9327C145.035 96.3264 144.95 95.4741 145.173 94.9156C145.302 94.5926 145.606 94.3142 145.851 94.0753Z" fill="#13478F"/>
<path d="M113.205 83.8799C113.614 83.9661 114.002 84.0272 114.307 84.3339C114.924 84.9525 114.847 85.8948 114.883 86.706L114.991 92.8847L115.182 97.9346C115.627 96.99 116.099 95.8988 116.883 95.1838C117.39 94.7225 118.146 94.4199 118.834 94.455C119.766 94.5026 120.653 94.9488 121.271 95.6372C122.866 97.4107 123.212 100.858 123.719 103.102C123.932 104.044 124.373 105.194 124.33 106.158C124.306 106.71 124.33 106.747 123.914 107.113C123.338 107.169 122.743 107.206 122.243 106.849C121.294 106.17 121.145 104.147 120.917 103.068C120.656 101.564 120.326 98.1719 119.229 97.1418C118.865 96.7997 118.76 96.8547 118.288 96.8698C117.2 97.7768 116.525 99.5078 116.271 100.888L116.221 101.172C116.006 102.268 115.966 103.272 115.948 104.39C115.94 104.9 116.004 105.586 115.879 106.076C115.759 106.548 115.457 106.701 115.073 106.939C114.162 107.021 113.613 107.098 112.88 106.487C112.39 105.552 112.544 103.937 112.516 102.873L112.459 88.3671C112.467 87.3502 112.425 86.3091 112.507 85.297C112.519 85.144 112.515 84.6717 112.582 84.5347C112.677 84.342 113.045 84.0484 113.205 83.8799Z" fill="#13478F"/>
<path d="M161.746 85.8874L162.001 85.8659C162.588 85.8266 163.005 85.9272 163.434 86.3353C164.286 87.1452 164.424 95.7288 164.531 97.4856L171.044 90.551C171.655 89.9542 172.382 89.073 173.136 88.6862C173.54 88.4791 173.764 88.6326 174.164 88.7531C174.52 89.1412 174.55 89.1592 174.609 89.6791C173.938 91.0908 172.358 92.3534 171.303 93.5021L166.515 98.7341L169.86 101.629L173.3 104.913C173.664 105.346 173.583 105.634 173.499 106.156C173.151 106.588 173.046 106.604 172.543 106.781C172.181 106.744 171.94 106.716 171.614 106.537C170.934 106.162 170.239 105.353 169.669 104.82L164.871 100.163C164.781 101.96 165.018 103.729 165.014 105.521C165.014 105.794 165.075 106.568 164.977 106.799C164.898 106.99 164.716 107.119 164.585 107.279C164.238 107.421 163.95 107.551 163.567 107.525C162.837 107.476 162.469 107.315 161.984 106.768C161.776 105.466 161.845 104.097 161.812 102.781L161.603 95.0791L161.296 88.1847C161.293 87.7918 161.185 86.9832 161.297 86.6247C161.366 86.4035 161.62 86.0948 161.746 85.8874Z" fill="#13478F"/>
<path d="M134.358 93.1597C135.001 93.1279 135.708 93.0481 136.337 93.2069C137.455 93.4889 138.533 93.9831 138.981 95.1292C139.193 95.6735 139.099 96.5027 139.102 97.0846C139.112 99.4423 138.962 102.622 140.26 104.674C140.792 104.591 141.212 104.512 141.645 104.904C141.882 105.119 141.964 105.519 141.986 105.823C142.029 106.441 141.796 106.756 141.402 107.201C140.787 107.509 140.21 107.563 139.537 107.396C138.222 107.069 137.581 106.006 136.893 104.942L135.942 105.802C135.413 106.224 134.848 106.688 134.229 106.966C132.985 107.526 131.183 107.593 129.933 107.042C128.718 106.505 127.842 105.409 127.372 104.19C126.765 102.617 126.919 101.01 127.597 99.4851C128.826 96.7217 131.563 94.2123 134.358 93.1597Z" fill="#13478F"/>
<path d="M135.208 95.3408C135.751 95.4572 135.792 95.4653 136.169 95.8697C136.399 97.1503 135.951 99.1802 135.717 100.475C135.436 102.032 134.979 103.081 133.607 103.977C132.682 104.582 131.995 104.581 130.943 104.344C130.561 104.128 130.217 103.908 129.952 103.549C129.592 103.059 129.594 102.448 129.702 101.877L129.747 101.655L129.888 101.001C130.584 98.7527 133.244 96.4532 135.208 95.3408Z" fill="#FBD18E"/>
<path d="M157.813 120.781C158.253 120.736 158.815 120.703 159.233 120.863C160.092 121.192 160.796 122.101 161.148 122.92C161.645 124.077 161.379 125.223 161.146 126.406C160.711 128.606 160.127 130.767 159.257 132.837C158.461 134.734 156.832 137.984 154.793 138.72C153.779 139.087 152.767 138.915 151.825 138.424C148.179 136.523 146.155 131.936 144.996 128.223C144.555 126.738 144.254 124.759 144.519 123.218C144.651 122.452 145.042 121.825 145.698 121.396C146.165 121.091 146.84 120.921 147.385 121.106C148.017 121.319 148.414 121.843 148.667 122.437C149.15 123.574 149.223 125.145 149.427 126.367C149.837 128.818 150.604 131.748 151.849 133.912C152.149 134.433 152.345 134.663 152.931 134.81C154.664 134.076 155.626 127.926 155.905 126.109C156.084 124.945 156.095 123.523 156.501 122.428C156.75 121.758 157.112 121.326 157.67 120.889L157.813 120.781Z" fill="#E97599"/>
<path d="M97.4196 84.2008C99.2474 83.9957 106.675 83.7552 108.08 84.5882C108.745 84.9824 109.006 85.5882 109.174 86.3032C109.065 86.7443 109.051 86.9263 108.729 87.2654C108.463 87.5451 108.24 87.7487 107.865 87.8602C107.089 88.0914 106.181 88.0936 105.376 88.1428L100.657 88.3544L100.962 102.604C101.05 105.113 101.472 107.954 101.101 110.435C100.609 110.943 100.379 110.938 99.7071 111.103L97.2293 111.285C96.627 111.27 96.293 111.159 95.8673 110.738L95.5696 88.5348C93.4717 88.6666 91.0582 88.7917 88.9912 88.4069C88.1553 88.2509 87.6631 87.9793 87.1841 87.2677C87.167 86.7736 87.0973 86.6209 87.4233 86.2293C87.7776 85.8039 88.4335 85.5497 88.9373 85.3706C91.4994 84.4587 94.7042 84.3931 97.4196 84.2008Z" fill="#E97599"/>
<path d="M134.336 120.652C135.091 120.607 135.802 120.563 136.533 120.803C138.438 121.428 139.995 122.836 140.858 124.639C142.095 127.223 141.672 130.538 140.754 133.162C139.778 135.952 138.053 138.554 135.333 139.846C134.205 140.03 133.172 140.002 132.122 139.516C130.282 138.664 129.284 137.129 128.609 135.272C127.449 132.082 128.014 128.307 129.448 125.279C130.495 123.069 132.007 121.48 134.336 120.652Z" fill="#E97599"/>
<path d="M135.27 124.179L135.691 124.16C136.392 124.142 137.046 124.222 137.547 124.756C137.994 125.233 138.097 126.196 138.089 126.823C138.05 130.152 136.651 133.976 134.272 136.323C133.929 136.397 133.669 136.379 133.319 136.37C132.679 135.919 132.342 135.374 132.036 134.665C131.034 132.345 131.43 129.129 132.417 126.884C133.013 125.527 133.912 124.715 135.27 124.179Z" fill="#FBD18E"/>
<path d="M122.887 114.835C123.245 114.818 123.655 114.78 124.004 114.874C125.048 115.153 125.532 115.913 126.062 116.79C126.195 119.965 125.243 122.826 124.085 125.742C122.565 129.569 120.693 133.35 118.489 136.828C117.665 138.128 116.78 139.81 115.273 140.402C114.4 140.744 113.42 140.736 112.563 140.35C111.907 140.055 111.402 139.393 111.14 138.738L115.394 129.932C113.871 128.783 112.488 127.663 111.405 126.061C109.742 123.599 107.983 120.302 108.084 117.248C108.102 116.706 108.282 116.127 108.701 115.761C109.259 115.273 109.707 115.269 110.411 115.333C111.07 115.714 111.514 116.129 111.915 116.784C112.67 118.017 113.111 119.586 113.605 120.943C114.346 122.98 115.168 124.917 116.329 126.751C118.381 122.904 118.936 117.261 122.887 114.835Z" fill="#E97599"/>
<path d="M67.6367 139.828L78.7329 134.899C79.5676 135.756 80.5115 137.182 81.4661 137.829C82.4425 138.489 83.6433 138.93 84.6863 139.495C86.3903 140.418 90.6635 143.139 90.7371 145.192C90.758 145.78 90.5462 146.313 90.1395 146.734C89.6048 147.288 88.848 147.646 88.0664 147.614L87.2141 147.484L87.326 147.788L84.8359 147.775C85.3545 148.882 86.0361 149.875 86.5952 150.956C86.8872 151.52 87.0714 152.233 87.4588 152.733L87.4077 152.945C87.1585 154.057 87.1469 155.09 86.0876 155.796C85.4957 156.191 84.9745 156.172 84.308 156.014L84.2444 155.996L83.5653 155.815C83.3293 156.098 83.3525 156.077 83.3856 156.447C82.9439 157.099 82.2909 157.828 81.4922 158.024C80.9351 158.16 80.4386 157.92 79.9349 157.717C79.7371 157.637 79.6095 157.619 79.3983 157.634C78.8318 158.07 78.2839 158.531 77.6444 158.856C76.7966 158.486 76.1411 158.153 75.4357 157.539C74.9283 156.975 74.3725 156.406 73.9413 155.782C73.578 155.257 73.115 153.933 72.6067 153.659L72.7067 153.338C72.4395 152.805 72.3842 152.452 71.8386 152.186L67.6367 139.828Z" fill="#F29272"/>
<path d="M84.8359 147.775L83.4238 144.843C84.561 145.772 85.668 146.722 86.9922 147.375L87.2141 147.484L87.3259 147.788L84.8359 147.775Z" fill="#FBD18E"/>
<path d="M87.3259 147.788L199.926 147.818C199.939 149.03 200.283 151.419 199.426 152.331C199.097 152.682 198.719 152.853 198.242 152.897C196.42 153.065 194.447 152.92 192.611 152.922L181.236 152.925L144.396 152.897L118.311 152.896L117.78 152.82L113.27 152.879L112.678 152.841L87.4588 152.733C87.0714 152.233 86.8871 151.52 86.5953 150.956C86.0362 149.875 85.3545 148.882 84.8359 147.775L87.3259 147.788Z" fill="#FAAE25"/>
<defs>
<filter id="filter0_f_0_3521" x="123.406" y="271.81" width="42.3535" height="11.1521" filterUnits="userSpaceOnUse" color-interpolation-filters="sRGB">
<feFlood flood-opacity="0" result="BackgroundImageFix"/>
<feBlend mode="normal" in="SourceGraphic" in2="BackgroundImageFix" result="shape"/>
<feGaussianBlur stdDeviation="2" result="effect1_foregroundBlur_0_3521"/>
</filter>
<filter id="filter1_f_0_3521" x="67" y="272" width="43" height="11" filterUnits="userSpaceOnUse" color-interpolation-filters="sRGB">
<feFlood flood-opacity="0" result="BackgroundImageFix"/>
<feBlend mode="normal" in="SourceGraphic" in2="BackgroundImageFix" result="shape"/>
<feGaussianBlur stdDeviation="2" result="effect1_foregroundBlur_0_3521"/>
</filter>
</defs>
</svg>
