<svg width="28" height="28" viewBox="0 0 28 28" fill="none" xmlns="http://www.w3.org/2000/svg">
<g clip-path="url(#clip0_0_2025)">
<path d="M6.34375 15.9688C6.34375 10.4858 10.3783 5.94541 15.6406 5.15375C15.1055 5.07325 14.5576 5.03125 14 5.03125C7.95938 5.03125 3.0625 9.92813 3.0625 15.9688C3.0625 22.0094 7.95938 26.9062 14 26.9062C14.5576 26.9062 15.1055 26.8643 15.6406 26.7838C10.3783 25.9921 6.34375 21.4517 6.34375 15.9688Z" fill="#FCE31D"/>
<path d="M0.320332 7.67996C-0.106777 7.25279 -0.106777 6.56028 0.320332 6.13317L3.41389 3.03961C3.84106 2.61245 4.53362 2.61245 4.96073 3.03961C5.38784 3.46678 5.38784 4.15928 4.96073 4.58639L1.86717 7.67996C1.44006 8.10712 0.747496 8.10712 0.320332 7.67996Z" fill="#B3A115"/>
<path d="M26.1326 7.67996L23.0391 4.58639C22.612 4.15923 22.612 3.46672 23.0391 3.03961C23.4662 2.61245 24.1588 2.61245 24.5859 3.03961L27.6795 6.13317C28.1066 6.56034 28.1066 7.25285 27.6795 7.67996C27.2524 8.10712 26.5598 8.10712 26.1326 7.67996Z" fill="#B3A115"/>
<path d="M15.4141 18.9296L13.2266 16.7421C13.0215 16.5371 12.9062 16.2588 12.9062 15.9688V11.5938C12.9062 10.9897 13.3959 10.5 14 10.5C14.6041 10.5 15.0938 10.9897 15.0938 11.5938V15.5157L16.9609 17.3829C17.3881 17.81 17.3881 18.5025 16.9609 18.9296C16.5338 19.3567 15.8412 19.3568 15.4141 18.9296Z" fill="#6A5F0C"/>
<path d="M15.0938 3.98705V2.1875H16.1875C16.7916 2.1875 17.2812 1.69783 17.2812 1.09375C17.2812 0.489672 16.7916 0 16.1875 0H11.8125C11.2084 0 10.7188 0.489672 10.7188 1.09375C10.7188 1.69783 11.2084 2.1875 11.8125 2.1875H12.9062V3.98705C6.79 4.53469 1.96875 9.67006 1.96875 15.9688C1.96875 22.618 7.34973 28 14 28C20.6495 28 26.0312 22.6189 26.0312 15.9688C26.0312 9.67717 21.2165 4.53523 15.0938 3.98705ZM14 25.8125C8.57216 25.8125 4.15625 21.3966 4.15625 15.9688C4.15625 10.5409 8.57216 6.125 14 6.125C19.4278 6.125 23.8438 10.5409 23.8438 15.9688C23.8438 21.3966 19.4278 25.8125 14 25.8125Z" fill="#6A5F0C"/>
</g>
<defs>
<clipPath id="clip0_0_2025">
<rect width="28" height="28" fill="white"/>
</clipPath>
</defs>
</svg>
