<svg width="23" height="23" viewBox="0 0 23 23" fill="none" xmlns="http://www.w3.org/2000/svg">
<g clip-path="url(#clip0_0_605)">
<path d="M16.8906 20.3047V12.4794C16.8906 11.8373 16.5421 11.2531 15.9864 10.9313C14.3811 10.0016 13.2969 8.27846 13.2969 6.28905C13.2969 5.18959 13.628 4.17153 14.1953 3.32367V1.22852C12.1064 1.97112 10.6016 3.94535 10.6016 6.28905C10.6016 8.27846 11.6858 10.0016 13.2911 10.9313C13.8468 11.2531 14.1953 11.8373 14.1953 12.4794V20.3047C14.1953 21.297 14.9998 22.1016 15.9922 22.1016C16.529 22.1016 17.0106 21.8658 17.3398 21.4925C17.0605 21.1758 16.8906 20.7602 16.8906 20.3047Z" fill="#FCE31D"/>
<path d="M7.00781 13.4766V20.3047C7.00781 21.2971 6.20331 22.1016 5.21094 22.1016C4.21857 22.1016 3.41406 21.2971 3.41406 20.3047V13.4766" stroke="#6A5F0C" stroke-width="2" stroke-miterlimit="10" stroke-linecap="round" stroke-linejoin="round"/>
<path d="M5.21094 4.49219V9.88281" stroke="#B3A115" stroke-width="2" stroke-miterlimit="10" stroke-linecap="round" stroke-linejoin="round"/>
<path d="M7.00781 4.49219H3.41406L4.3125 0.898438H6.10938L7.00781 4.49219Z" stroke="#B3A115" stroke-width="2" stroke-miterlimit="10" stroke-linecap="round" stroke-linejoin="round"/>
<path d="M1.61719 13.4766H8.80469" stroke="#6A5F0C" stroke-width="2" stroke-miterlimit="10" stroke-linecap="round" stroke-linejoin="round"/>
<path d="M21.3828 6.28901C21.3828 3.9453 19.878 1.97107 17.7891 1.22852V4.49213C17.7891 5.4845 16.9846 6.28901 15.9922 6.28901C14.9998 6.28901 14.1953 5.4845 14.1953 4.49213V1.22852C12.1064 1.97107 10.6016 3.9453 10.6016 6.28901C10.6016 8.27842 11.6858 10.0016 13.2911 10.9313C13.8468 11.2531 14.1953 11.8372 14.1953 12.4793V20.3046C14.1953 21.297 14.9998 22.1015 15.9922 22.1015C16.9846 22.1015 17.7891 21.297 17.7891 20.3046V12.4793C17.7891 11.8372 18.1376 11.2531 18.6932 10.9313C20.2986 10.0016 21.3828 8.27842 21.3828 6.28901Z" stroke="#6A5F0C" stroke-width="2" stroke-miterlimit="10" stroke-linecap="round" stroke-linejoin="round"/>
</g>
<defs>
<clipPath id="clip0_0_605">
<rect width="23" height="23" fill="white"/>
</clipPath>
</defs>
</svg>
