<svg width="28" height="28" viewBox="0 0 28 28" fill="none" xmlns="http://www.w3.org/2000/svg">
<g clip-path="url(#clip0_0_1999)">
<path d="M4.375 20.3438V11.5938C4.375 9.17749 6.33374 7.21875 8.75 7.21875H5.46875C3.05249 7.21875 1.09375 9.17749 1.09375 11.5938V20.3438C1.09375 22.76 3.05249 24.7188 5.46875 24.7188H8.75C6.33374 24.7188 4.375 22.76 4.375 20.3438Z" fill="#FCE31D"/>
<path d="M22.5312 6.125H5.46875C2.45323 6.125 0 8.57828 0 11.5938V20.3438C0 22.9847 1.88191 25.1945 4.375 25.7026V26.9062C4.375 27.5103 4.86467 28 5.46875 28C6.07283 28 6.5625 27.5103 6.5625 26.9062V25.8125H18.1562C18.7603 25.8125 19.25 25.3228 19.25 24.7188C19.25 24.1147 18.7603 23.625 18.1562 23.625H5.46875C3.65947 23.625 2.1875 22.153 2.1875 20.3438V11.5938C2.1875 9.78447 3.65947 8.3125 5.46875 8.3125H22.5312C24.3405 8.3125 25.8125 9.78447 25.8125 11.5938V20.3438C25.8125 22.153 24.3405 23.625 22.5312 23.625C21.9272 23.625 21.4375 24.1147 21.4375 24.7188V26.9062C21.4375 27.5103 21.9272 28 22.5312 28C23.1353 28 23.625 27.5103 23.625 26.9062V25.7026C26.1181 25.1945 28 22.9847 28 20.3438V11.5938C28 8.57828 25.5468 6.125 22.5312 6.125Z" fill="#6A5F0C"/>
<path d="M22.5312 12.6875C23.1353 12.6875 23.625 12.1978 23.625 11.5938C23.625 10.9897 23.1353 10.5 22.5312 10.5C21.9272 10.5 21.4375 10.9897 21.4375 11.5938C21.4375 12.1978 21.9272 12.6875 22.5312 12.6875Z" fill="#6A5F0C"/>
<path d="M22.5312 17.0625C23.1353 17.0625 23.625 16.5728 23.625 15.9688C23.625 15.3647 23.1353 14.875 22.5312 14.875C21.9272 14.875 21.4375 15.3647 21.4375 15.9688C21.4375 16.5728 21.9272 17.0625 22.5312 17.0625Z" fill="#6A5F0C"/>
<path d="M15.414 0.319885L14 1.73399L12.5859 0.319885C12.1588 -0.107279 11.4662 -0.107279 11.0391 0.319885C10.612 0.747049 10.6119 1.43956 11.0391 1.86667L13.2266 4.05417C13.6537 4.48128 14.3463 4.48133 14.7734 4.05417L16.9609 1.86667C17.3881 1.4395 17.3881 0.746994 16.9609 0.319885C16.5338 -0.107225 15.8412 -0.107279 15.414 0.319885Z" fill="#6A5F0C"/>
<path d="M7.65625 21.4375H15.9688C17.778 21.4375 19.25 19.9655 19.25 18.1562V13.7812C19.25 11.972 17.778 10.5 15.9688 10.5H7.65625C5.84697 10.5 4.375 11.972 4.375 13.7812V18.1562C4.375 19.9655 5.84697 21.4375 7.65625 21.4375ZM6.5625 13.7812C6.5625 13.1782 7.05316 12.6875 7.65625 12.6875H15.9688C16.5718 12.6875 17.0625 13.1782 17.0625 13.7812V18.1562C17.0625 18.7593 16.5718 19.25 15.9688 19.25H7.65625C7.05316 19.25 6.5625 18.7593 6.5625 18.1562V13.7812Z" fill="#B3A115"/>
</g>
<defs>
<clipPath id="clip0_0_1999">
<rect width="28" height="28" fill="white"/>
</clipPath>
</defs>
</svg>
