<svg width="20" height="20" viewBox="0 0 20 20" fill="none" xmlns="http://www.w3.org/2000/svg">
<g opacity="0.9" clip-path="url(#clip0_0_2804)">
<path d="M15.4145 3.67421C16.9264 4.96453 17.9273 6.7528 18.2366 8.71629C18.5459 10.6798 18.1432 12.6891 17.1012 14.3818C16.0591 16.0744 14.4463 17.3389 12.5539 17.9469C10.6615 18.5549 8.61407 18.4665 6.78112 17.6975L6.59529 17.6159L2.62945 18.3234L2.53779 18.3325C2.50726 18.3342 2.47665 18.3342 2.44612 18.3325L2.36112 18.3217L2.27112 18.3017L2.18362 18.2709L2.10112 18.2317L2.02362 18.1834L2.01195 18.1742L2.00195 18.1684L1.93029 18.1075L1.86612 18.0409L1.81029 17.9675L1.76362 17.8892L1.73529 17.8309L1.70195 17.7409L1.67862 17.6342L1.66862 17.5492C1.66645 17.5145 1.66645 17.4797 1.66862 17.445L1.67862 17.3617L1.69862 17.27L1.73612 17.1684L2.93029 14.415L2.92279 14.4034C1.92092 12.786 1.50264 10.8745 1.73746 8.9865C1.97229 7.09851 2.84607 5.34771 4.21362 4.02504L4.39279 3.85587C5.89281 2.48876 7.84018 1.71606 9.86945 1.68276C11.8987 1.64947 13.8704 2.35704 15.4145 3.67421ZM7.91695 6.25004C7.58543 6.25004 7.26749 6.38174 7.03307 6.61616C6.79865 6.85058 6.66695 7.16852 6.66695 7.50004V8.33337C6.66695 9.65946 7.19374 10.9312 8.13142 11.8689C9.0691 12.8066 10.3409 13.3334 11.667 13.3334H12.5003C12.8318 13.3334 13.1498 13.2017 13.3842 12.9673C13.6186 12.7328 13.7503 12.4149 13.7503 12.0834C13.7503 11.7519 13.6186 11.4339 13.3842 11.1995C13.1498 10.9651 12.8318 10.8334 12.5003 10.8334H11.667L11.547 10.8392C11.3562 10.8575 11.1723 10.9194 11.0093 11.0201C10.8463 11.1208 10.7086 11.2577 10.607 11.42L10.572 11.4817L10.5536 11.4759C10.0859 11.3096 9.66113 11.0412 9.31013 10.6902C8.95913 10.3392 8.69074 9.91441 8.52446 9.44671L8.51779 9.42754L8.58029 9.39337C8.75991 9.28091 8.908 9.12462 9.01062 8.9392C9.11325 8.75378 9.16704 8.5453 9.16695 8.33337V7.50004C9.16695 7.16852 9.03526 6.85058 8.80084 6.61616C8.56642 6.38174 8.24848 6.25004 7.91695 6.25004Z" fill="black"/>
</g>
<defs>
<clipPath id="clip0_0_2804">
<rect width="20" height="20" fill="white"/>
</clipPath>
</defs>
</svg>
