<svg width="18" height="18" viewBox="0 0 18 18" fill="none" xmlns="http://www.w3.org/2000/svg">
<g opacity="0.7" clip-path="url(#clip0_0_2982)">
<path d="M15.8119 16.5402L14.6381 11.4536C14.5072 10.9301 14.0387 10.5646 13.4992 10.5646H11.2184C10.8957 10.0348 10.4751 9.57029 9.9777 9.19665V5.86922C9.9777 4.98454 9.03021 4.44352 8.27885 4.81917L5.93118 5.993C5.53093 6.19304 5.28628 6.5954 5.28628 7.04305V8.5444C5.279 8.54689 5.27162 8.5477 5.26441 8.55051C3.37395 9.2889 2.15234 11.0778 2.15234 13.1079C2.15234 15.8048 4.34641 17.9989 7.04335 17.9989C9.75847 17.9989 12.0388 15.7507 11.9257 12.9122H12.5828L13.5342 17.1099C13.691 17.7358 14.321 18.1241 14.958 17.9639C15.5855 17.807 15.9686 17.1684 15.8119 16.5402ZM7.04328 16.8251C4.99364 16.8251 3.32614 15.1575 3.32614 13.1079C3.32614 11.7169 4.08492 10.4808 5.28624 9.8385V11.3472C5.28624 11.9945 5.80887 12.521 6.45617 12.521C7.10347 12.521 7.63 11.9945 7.63 11.3472V9.42597C7.65904 9.43624 7.68829 9.44615 7.71962 9.45192C9.48151 9.77553 10.7605 11.3132 10.7605 13.108C10.7604 15.1575 9.09293 16.8251 7.04328 16.8251Z" fill="black"/>
<path d="M9.00002 0C8.02911 0 7.23926 0.78982 7.23926 1.76077C7.23926 2.73171 8.02908 3.52153 9.00002 3.52153C9.97097 3.52153 10.7608 2.73171 10.7608 1.76077C10.7608 0.78982 9.97093 0 9.00002 0Z" fill="black"/>
</g>
<defs>
<clipPath id="clip0_0_2982">
<rect width="18" height="18" fill="white"/>
</clipPath>
</defs>
</svg>
